RobotoCondensed-Italic.ufo
<glyph name="numbersign" format="2">
  <advance width="1089"/>
  <unicode hex="0023"/>
  <outline>
    <contour>
      <point x="147" y="0" type="line"/>
      <point x="282" y="0" type="line"/>
      <point x="767" y="1455" type="line"/>
      <point x="632" y="1455" type="line"/>
    </contour>
    <contour>
      <point x="475" y="0" type="line"/>
      <point x="610" y="0" type="line"/>
      <point x="1094" y="1455" type="line"/>
      <point x="960" y="1455" type="line"/>
    </contour>
    <contour>
      <point x="1102" y="902" type="line"/>
      <point x="1110" y="1040" type="line"/>
      <point x="266" y="1040" type="line"/>
      <point x="259" y="902" type="line"/>
    </contour>
    <contour>
      <point x="942" y="410" type="line"/>
      <point x="949" y="547" type="line"/>
      <point x="105" y="547" type="line"/>
      <point x="98" y="410" type="line"/>
    </contour>
  </outline>
</glyph>
<glyph name="dollar" format="2">
  <advance width="978"/>
  <unicode hex="0024"/>
  <outline>
    <contour>
      <point x="745" y="1692" type="line"/>
      <point x="604" y="1692" type="line"/>
      <point x="569" y="1388" type="line"/>
      <point x="711" y="1388" type="line"/>
    </contour>
    <contour>
      <point x="468" y="58" type="line"/>
      <point x="329" y="58" type="line"/>
      <point x="294" y="-208" type="line"/>
      <point x="434" y="-208" type="line"/>
    </contour>
    <contour>
      <point x="655" y="375" type="curve" smooth="yes"/>
      <point x="621" y="202"/>
      <point x="491" y="142"/>
      <point x="391" y="141" type="curve" smooth="yes"/>
      <point x="249" y="139"/>
      <point x="222" y="262"/>
      <point x="253" y="429" type="curve"/>
      <point x="77" y="429" type="line"/>
      <point x="44" y="151"/>
      <point x="165" y="-22"/>
      <point x="391" y="-21" type="curve" smooth="yes"/>
      <point x="610" y="-20"/>
      <point x="799" y="116"/>
      <point x="833" y="377" type="curve" smooth="yes"/>
      <point x="868" y="609"/>
      <point x="732" y="737"/>
      <point x="566" y="809" type="curve" smooth="yes"/>
      <point x="532" y="846"/>
      <point x="372" y="907"/>
      <point x="410" y="1083" type="curve" smooth="yes"/>
      <point x="445" y="1257"/>
      <point x="567" y="1315"/>
      <point x="640" y="1315" type="curve" smooth="yes"/>
      <point x="751" y="1315"/>
      <point x="784" y="1174"/>
      <point x="756" y="1009" type="curve"/>
      <point x="931" y="1009" type="line"/>
      <point x="962" y="1276"/>
      <point x="871" y="1477"/>
      <point x="639" y="1477" type="curve" smooth="yes"/>
      <point x="445" y="1477"/>
      <point x="267" y="1332"/>
      <point x="233" y="1080" type="curve" smooth="yes"/>
      <point x="197" y="843"/>
      <point x="350" y="714"/>
      <point x="505" y="645" type="curve" smooth="yes"/>
      <point x="550" y="614"/>
      <point x="692" y="526"/>
    </contour>
  </outline>
</glyph>
<glyph name="ampersand" format="2">
  <advance width="1077"/>
  <unicode hex="0026"/>
  <outline>
    <contour>
      <point x="381" y="808" type="line" smooth="yes"/>
      <point x="226" y="697"/>
      <point x="87" y="586"/>
      <point x="60" y="392" type="curve" smooth="yes"/>
      <point x="25" y="141"/>
      <point x="194" y="-20"/>
      <point x="396" y="-20" type="curve" smooth="yes"/>
      <point x="510" y="-20"/>
      <point x="654" y="38"/>
      <point x="749" y="142" type="curve" smooth="yes"/>
      <point x="755" y="149"/>
      <point x="771" y="179"/>
      <point x="776" y="184" type="curve" smooth="yes"/>
      <point x="907" y="319"/>
      <point x="964" y="491"/>
      <point x="991" y="672" type="curve"/>
      <point x="834" y="672" type="line"/>
      <point x="779" y="412"/>
      <point x="623" y="131"/>
      <point x="395" y="132" type="curve" smooth="yes"/>
      <point x="314" y="132"/>
      <point x="204" y="211"/>
      <point x="237" y="392" type="curve" smooth="yes"/>
      <point x="263" y="505"/>
      <point x="379" y="611"/>
      <point x="412" y="637" type="curve" smooth="yes"/>
      <point x="685" y="852" type="line" smooth="yes"/>
      <point x="811" y="949"/>
      <point x="869" y="1025"/>
      <point x="889" y="1169" type="curve" smooth="yes"/>
      <point x="912" y="1341"/>
      <point x="790" y="1476"/>
      <point x="630" y="1476" type="curve" smooth="yes"/>
      <point x="448" y="1476"/>
      <point x="305" y="1342"/>
      <point x="279" y="1123" type="curve" smooth="yes"/>
      <point x="254" y="958"/>
      <point x="359" y="813"/>
      <point x="429" y="676" type="curve" smooth="yes"/>
      <point x="760" y="0" type="line"/>
      <point x="968" y="0" type="line"/>
      <point x="542" y="826" type="line" smooth="yes"/>
      <point x="499" y="916"/>
      <point x="435" y="1019"/>
      <point x="456" y="1129" type="curve" smooth="yes"/>
      <point x="481" y="1238"/>
      <point x="554" y="1325"/>
      <point x="630" y="1324" type="curve" smooth="yes"/>
      <point x="695" y="1324"/>
      <point x="748" y="1256"/>
      <point x="726" y="1169" type="curve" smooth="yes"/>
      <point x="707" y="1057"/>
      <point x="652" y="1015"/>
      <point x="583" y="963" type="curve" smooth="yes"/>
    </contour>
  </outline>
</glyph>
<glyph name="asterisk" format="2">
  <advance width="856"/>
  <unicode hex="002A"/>
  <outline>
    <contour>
      <point x="140" y="710" type="line"/>
      <point x="262" y="617" type="line"/>
      <point x="492" y="896" type="line"/>
      <point x="614" y="610" type="line"/>
      <point x="741" y="702" type="line"/>
      <point x="603" y="972" type="line"/>
      <point x="925" y="1064" type="line"/>
      <point x="886" y="1218" type="line"/>
      <point x="578" y="1110" type="line"/>
      <point x="655" y="1457" type="line"/>
      <point x="503" y="1457" type="line"/>
      <point x="443" y="1111" type="line"/>
      <point x="174" y="1224" type="line"/>
      <point x="121" y="1075" type="line"/>
      <point x="389" y="986" type="line"/>
    </contour>
  </outline>
</glyph>
<glyph name="zero" format="2">
  <advance width="978"/>
  <unicode hex="0030"/>
  <outline>
    <contour>
      <point x="912" y="844" type="line" smooth="yes"/>
      <point x="954" y="1195"/>
      <point x="925" y="1476"/>
      <point x="635" y="1476" type="curve" smooth="yes"/>
      <point x="352" y="1476"/>
      <point x="205" y="1217"/>
      <point x="156" y="844" type="curve" smooth="yes"/>
      <point x="110" y="622" type="line" smooth="yes"/>
      <point x="68" y="271"/>
      <point x="99" y="-20"/>
      <point x="387" y="-20" type="curve" smooth="yes"/>
      <point x="671" y="-20"/>
      <point x="817" y="248"/>
      <point x="866" y="622" type="curve" smooth="yes"/>
    </contour>
    <contour>
      <point x="689" y="592" type="line" smooth="yes"/>
      <point x="644" y="349"/>
      <point x="563" y="131"/>
      <point x="387" y="132" type="curve" smooth="yes"/>
      <point x="209" y="132"/>
      <point x="250" y="376"/>
      <point x="287" y="592" type="curve" smooth="yes"/>
      <point x="333" y="875" type="line" smooth="yes"/>
      <point x="378" y="1115"/>
      <point x="462" y="1325"/>
      <point x="635" y="1324" type="curve" smooth="yes"/>
      <point x="817" y="1324"/>
      <point x="772" y="1089"/>
      <point x="735" y="875" type="curve" smooth="yes"/>
    </contour>
  </outline>
</glyph>
<glyph name="one" format="2">
  <advance width="978"/>
  <unicode hex="0031"/>
  <outline>
    <contour>
      <point x="773" y="1463" type="line"/>
      <point x="742" y="1463" type="line"/>
      <point x="274" y="1264" type="line"/>
      <point x="265" y="1097" type="line"/>
      <point x="584" y="1231" type="line"/>
      <point x="345" y="0" type="line"/>
      <point x="522" y="0" type="line"/>
    </contour>
  </outline>
</glyph>
<glyph name="two" format="2">
  <advance width="978"/>
  <unicode hex="0032"/>
  <outline>
    <contour>
      <point x="815" y="151" type="line"/>
      <point x="240" y="152" type="line"/>
      <point x="628" y="575" type="line" smooth="yes"/>
      <point x="750" y="711"/>
      <point x="894" y="880"/>
      <point x="926" y="1087" type="curve" smooth="yes"/>
      <point x="961" y="1299"/>
      <point x="840" y="1477"/>
      <point x="620" y="1476" type="curve" smooth="yes"/>
      <point x="351" y="1475"/>
      <point x="201" y="1270"/>
      <point x="160" y="1028" type="curve"/>
      <point x="338" y="1028" type="line"/>
      <point x="378" y="1188"/>
      <point x="452" y="1323"/>
      <point x="620" y="1324" type="curve" smooth="yes"/>
      <point x="717" y="1325"/>
      <point x="782" y="1204"/>
      <point x="748" y="1065" type="curve" smooth="yes"/>
      <point x="716" y="890"/>
      <point x="591" y="781"/>
      <point x="496" y="664" type="curve" smooth="yes"/>
      <point x="27" y="133" type="line"/>
      <point x="20" y="0" type="line"/>
      <point x="809" y="0" type="line"/>
    </contour>
  </outline>
</glyph>
<glyph name="five" format="2">
  <advance width="978"/>
  <unicode hex="0035"/>
  <outline>
    <contour>
      <point x="349" y="693" type="line"/>
      <point x="425" y="755"/>
      <point x="475" y="786"/>
      <point x="546" y="785" type="curve" smooth="yes"/>
      <point x="683" y="784"/>
      <point x="732" y="627"/>
      <point x="698" y="462" type="curve" smooth="yes"/>
      <point x="662" y="312"/>
      <point x="569" y="132"/>
      <point x="420" y="132" type="curve" smooth="yes"/>
      <point x="307" y="132"/>
      <point x="260" y="239"/>
      <point x="271" y="383" type="curve"/>
      <point x="105" y="383" type="line"/>
      <point x="94" y="152"/>
      <point x="207" y="-20"/>
      <point x="420" y="-20" type="curve" smooth="yes"/>
      <point x="672" y="-19"/>
      <point x="838" y="207"/>
      <point x="875" y="464" type="curve" smooth="yes"/>
      <point x="910" y="719"/>
      <point x="826" y="953"/>
      <point x="589" y="952" type="curve" smooth="yes"/>
      <point x="532" y="951"/>
      <point x="474" y="943"/>
      <point x="391" y="889" type="curve"/>
      <point x="518" y="1285" type="line"/>
      <point x="983" y="1285" type="line"/>
      <point x="989" y="1456" type="line"/>
      <point x="376" y="1456" type="line"/>
      <point x="208" y="732" type="line"/>
    </contour>
  </outline>
</glyph>
<glyph name="six" format="2">
  <advance width="978"/>
  <unicode hex="0036"/>
  <outline>
    <contour>
      <point x="829" y="1457" type="line" smooth="yes"/>
      <point x="236" y="1454"/>
      <point x="206" y="884"/>
      <point x="137" y="626" type="curve" smooth="yes"/>
      <point x="111" y="539" type="line" smooth="yes"/>
      <point x="74" y="321"/>
      <point x="124" y="-21"/>
      <point x="415" y="-20" type="curve" smooth="yes"/>
      <point x="695" y="-18"/>
      <point x="827" y="243"/>
      <point x="863" y="475" type="curve" smooth="yes"/>
      <point x="899" y="679"/>
      <point x="842" y="955"/>
      <point x="594" y="955" type="curve" smooth="yes"/>
      <point x="457" y="955"/>
      <point x="273" y="864"/>
      <point x="193" y="537" type="curve"/>
      <point x="285" y="535" type="line"/>
      <point x="341" y="687"/>
      <point x="452" y="802"/>
      <point x="565" y="802" type="curve" smooth="yes"/>
      <point x="696" y="802"/>
      <point x="724" y="616"/>
      <point x="689" y="466" type="curve" smooth="yes"/>
      <point x="654" y="300"/>
      <point x="565" y="135"/>
      <point x="414" y="133" type="curve" smooth="yes"/>
      <point x="292" y="132"/>
      <point x="254" y="322"/>
      <point x="289" y="533" type="curve" smooth="yes"/>
      <point x="318" y="747" type="line" smooth="yes"/>
      <point x="383" y="888"/>
      <point x="411" y="1296"/>
      <point x="827" y="1301" type="curve" smooth="yes"/>
      <point x="838" y="1301" type="line"/>
      <point x="845" y="1457" type="line"/>
    </contour>
  </outline>
</glyph>
<glyph name="nine" format="2">
  <advance width="978"/>
  <unicode hex="0039"/>
  <outline>
    <contour>
      <point x="179" y="155" type="line"/>
      <point x="172" y="-1" type="line"/>
      <point x="187" y="-1" type="line" smooth="yes"/>
      <point x="727" y="2"/>
      <point x="804" y="507"/>
      <point x="871" y="820" type="curve" smooth="yes"/>
      <point x="896" y="887" type="line" smooth="yes"/>
      <point x="937" y="1076"/>
      <point x="931" y="1478"/>
      <point x="603" y="1476" type="curve" smooth="yes"/>
      <point x="330" y="1474"/>
      <point x="193" y="1216"/>
      <point x="156" y="973" type="curve" smooth="yes"/>
      <point x="122" y="769"/>
      <point x="166" y="488"/>
      <point x="420" y="487" type="curve" smooth="yes"/>
      <point x="631" y="487"/>
      <point x="786" y="736"/>
      <point x="830" y="941" type="curve"/>
      <point x="747" y="942" type="line"/>
      <point x="690" y="715"/>
      <point x="503" y="640"/>
      <point x="449" y="641" type="curve" smooth="yes"/>
      <point x="307" y="642"/>
      <point x="297" y="837"/>
      <point x="329" y="983" type="curve" smooth="yes"/>
      <point x="365" y="1158"/>
      <point x="460" y="1320"/>
      <point x="603" y="1322" type="curve" smooth="yes"/>
      <point x="754" y="1325"/>
      <point x="756" y="1069"/>
      <point x="720" y="912" type="curve" smooth="yes"/>
      <point x="691" y="689" type="line" smooth="yes"/>
      <point x="629" y="462"/>
      <point x="540" y="160"/>
      <point x="190" y="155" type="curve" smooth="yes"/>
    </contour>
  </outline>
</glyph>
<glyph name="greater" format="2">
  <advance width="911"/>
  <unicode hex="003E"/>
  <outline>
    <contour>
      <point x="705" y="632" type="line"/>
      <point x="839" y="605" type="line"/>
      <point x="845" y="721" type="line"/>
      <point x="213" y="1099" type="line"/>
      <point x="205" y="909" type="line"/>
    </contour>
    <contour>
      <point x="85" y="389" type="line"/>
      <point x="76" y="198" type="line"/>
      <point x="837" y="576" type="line"/>
      <point x="844" y="691" type="line"/>
      <point x="706" y="671" type="line"/>
    </contour>
  </outline>
</glyph>
<glyph name="question" format="2">
  <advance width="838"/>
  <unicode hex="003F"/>
  <outline>
    <contour>
      <point x="444" y="410" type="line"/>
      <point x="470" y="518"/>
      <point x="509" y="594"/>
      <point x="567" y="663" type="curve" smooth="yes"/>
      <point x="658" y="755"/>
      <point x="815" y="914"/>
      <point x="844" y="1096" type="curve" smooth="yes"/>
      <point x="875" y="1316"/>
      <point x="774" y="1476"/>
      <point x="567" y="1476" type="curve" smooth="yes"/>
      <point x="349" y="1476"/>
      <point x="209" y="1313"/>
      <point x="166" y="1116" type="curve"/>
      <point x="343" y="1116" type="line"/>
      <point x="382" y="1247"/>
      <point x="489" y="1315"/>
      <point x="568" y="1314" type="curve" smooth="yes"/>
      <point x="665" y="1314"/>
      <point x="697" y="1214"/>
      <point x="667" y="1091" type="curve" smooth="yes"/>
      <point x="637" y="972"/>
      <point x="539" y="878"/>
      <point x="465" y="796" type="curve" smooth="yes"/>
      <point x="362" y="679"/>
      <point x="295" y="601"/>
      <point x="268" y="411" type="curve"/>
    </contour>
    <contour>
      <point x="203" y="95" type="curve" smooth="yes"/>
      <point x="199" y="38"/>
      <point x="230" y="-11"/>
      <point x="295" y="-11" type="curve" smooth="yes"/>
      <point x="359" y="-11"/>
      <point x="398" y="36"/>
      <point x="403" y="92" type="curve" smooth="yes"/>
      <point x="407" y="149"/>
      <point x="375" y="199"/>
      <point x="310" y="199" type="curve" smooth="yes"/>
      <point x="246" y="200"/>
      <point x="208" y="151"/>
    </contour>
  </outline>
</glyph>
<glyph name="D" format="2">
  <advance width="1129"/>
  <unicode hex="0044"/>
  <anchor x="419" y="10" name="bottom"/>
  <anchor x="692" y="1612" name="top"/>
  <anchor x="1284" y="1612" name="top0315"/>
  <anchor x="298" y="738" name="cross"/>
  <anchor x="1282" y="1600" name="top_dd"/>
  <anchor x="935" y="-407" name="bottom_dd"/>
  <outline>
    <contour>
      <point x="371" y="0" type="line" smooth="yes"/>
      <point x="737" y="4"/>
      <point x="953" y="243"/>
      <point x="1014" y="604" type="curve" smooth="yes"/>
      <point x="1044" y="851" type="line" smooth="yes"/>
      <point x="1098" y="1200"/>
      <point x="970" y="1452"/>
      <point x="630" y="1456" type="curve" smooth="yes"/>
      <point x="373" y="1456" type="line"/>
      <point x="366" y="1298" type="line"/>
      <point x="631" y="1298" type="line" smooth="yes"/>
      <point x="879" y="1293"/>
      <point x="913" y="1120"/>
      <point x="863" y="853" type="curve" smooth="yes"/>
      <point x="831" y="604" type="line" smooth="yes"/>
      <point x="773" y="340"/>
      <point x="646" y="162"/>
      <point x="370" y="157" type="curve" smooth="yes"/>
      <point x="137" y="157" type="line"/>
      <point x="128" y="0" type="line"/>
    </contour>
    <contour>
      <point x="482" y="1456" type="line"/>
      <point x="298" y="1456" type="line"/>
      <point x="48" y="0" type="line"/>
      <point x="231" y="0" type="line"/>
    </contour>
  </outline>
</glyph>
<glyph name="G" format="2">
  <advance width="1168"/>
  <unicode hex="0047"/>
  <anchor x="737" y="1633" name="top"/>
  <anchor x="507" y="-9" name="bottom"/>
  <anchor x="1321" y="1600" name="top_dd"/>
  <anchor x="974" y="-407" name="bottom_dd"/>
  <anchor x="1327" y="1633" name="top0315"/>
  <outline>
    <contour>
      <point x="1044" y="725" type="line"/>
      <point x="607" y="725" type="line"/>
      <point x="600" y="569" type="line"/>
      <point x="851" y="569" type="line"/>
      <point x="775" y="243" type="line"/>
      <point x="674" y="164"/>
      <point x="594" y="136"/>
      <point x="509" y="136" type="curve" smooth="yes"/>
      <point x="291" y="137"/>
      <point x="259" y="342"/>
      <point x="306" y="592" type="curve" smooth="yes"/>
      <point x="348" y="867" type="line" smooth="yes"/>
      <point x="402" y="1129"/>
      <point x="501" y="1318"/>
      <point x="741" y="1318" type="curve" smooth="yes"/>
      <point x="842" y="1318"/>
      <point x="940" y="1261"/>
      <point x="931" y="1030" type="curve"/>
      <point x="1114" y="1030" type="line"/>
      <point x="1114" y="1349"/>
      <point x="963" y="1476"/>
      <point x="739" y="1476" type="curve" smooth="yes"/>
      <point x="389" y="1475"/>
      <point x="219" y="1225"/>
      <point x="163" y="865" type="curve" smooth="yes"/>
      <point x="122" y="592" type="line" smooth="yes"/>
      <point x="71" y="249"/>
      <point x="183" y="-20"/>
      <point x="509" y="-21" type="curve" smooth="yes"/>
      <point x="676" y="-21"/>
      <point x="838" y="58"/>
      <point x="958" y="192" type="curve"/>
    </contour>
  </outline>
</glyph>
<glyph name="H" format="2">
  <advance width="1227"/>
  <unicode hex="0048"/>
  <anchor x="969" y="0" name="right"/>
  <anchor x="1382" y="1612" name="top0315"/>
  <anchor x="151" y="1457" name="tonos"/>
  <anchor x="771" y="1612" name="top"/>
  <anchor x="496" y="10" name="bottom"/>
  <anchor x="1380" y="1600" name="top_dd"/>
  <anchor x="1033" y="-407" name="bottom_dd"/>
  <outline>
    <contour>
      <point x="941" y="830" type="line"/>
      <point x="339" y="830" type="line"/>
      <point x="331" y="673" type="line"/>
      <point x="934" y="673" type="line"/>
    </contour>
    <contour>
      <point x="482" y="1456" type="line"/>
      <point x="298" y="1456" type="line"/>
      <point x="48" y="0" type="line"/>
      <point x="231" y="0" type="line"/>
    </contour>
    <contour>
      <point x="1222" y="1456" type="line"/>
      <point x="1038" y="1456" type="line"/>
      <point x="788" y="0" type="line"/>
      <point x="971" y="0" type="line"/>
    </contour>
  </outline>
</glyph>
<glyph name="J" format="2">
  <advance width="957"/>
  <unicode hex="004A"/>
  <anchor x="870" y="1599" name="top"/>
  <anchor x="329" y="-10" name="bottom"/>
  <anchor x="1109" y="1600" name="top_dd"/>
  <anchor x="763" y="-407" name="bottom_dd"/>
  <anchor x="1106" y="1599" name="top0315"/>
  <outline>
    <contour>
      <point x="605" y="425" type="line" smooth="yes"/>
      <point x="564" y="291"/>
      <point x="486" y="138"/>
      <point x="333" y="137" type="curve" smooth="yes"/>
      <point x="228" y="137"/>
      <point x="171" y="241"/>
      <point x="204" y="403" type="curve"/>
      <point x="21" y="403" type="line"/>
      <point x="-14" y="155"/>
      <point x="105" y="-21"/>
      <point x="333" y="-20" type="curve" smooth="yes"/>
      <point x="592" y="-19"/>
      <point x="745" y="189"/>
      <point x="790" y="425" type="curve" smooth="yes"/>
      <point x="964" y="1456" type="line"/>
      <point x="781" y="1456" type="line"/>
    </contour>
  </outline>
</glyph>
<glyph name="S" format="2">
  <advance width="1025"/>
  <unicode hex="0053"/>
  <anchor x="701" y="1603" name="top"/>
  <anchor x="423" y="-1" name="bottom"/>
  <anchor x="1178" y="1600" name="top_dd"/>
  <anchor x="831" y="-407" name="bottom_dd"/>
  <anchor x="1184" y="1603" name="top0315"/>
  <outline>
    <contour>
      <point x="717" y="368" type="curve" smooth="yes"/>
      <point x="673" y="195"/>
      <point x="533" y="138"/>
      <point x="428" y="137" type="curve" smooth="yes"/>
      <point x="250" y="136"/>
      <point x="195" y="257"/>
      <point x="232" y="422" type="curve"/>
      <point x="49" y="422" type="line"/>
      <point x="10" y="167"/>
      <point x="183" y="-21"/>
      <point x="429" y="-20" type="curve" smooth="yes"/>
      <point x="654" y="-19"/>
      <point x="862" y="117"/>
      <point x="903" y="370" type="curve" smooth="yes"/>
      <point x="946" y="611"/>
      <point x="789" y="739"/>
      <point x="585" y="818" type="curve" smooth="yes"/>
      <point x="577" y="844"/>
      <point x="349" y="893"/>
      <point x="394" y="1082" type="curve" smooth="yes"/>
      <point x="436" y="1269"/>
      <point x="593" y="1318"/>
      <point x="670" y="1318" type="curve" smooth="yes"/>
      <point x="810" y="1318"/>
      <point x="873" y="1212"/>
      <point x="840" y="1036" type="curve"/>
      <point x="1023" y="1036" type="line"/>
      <point x="1058" y="1267"/>
      <point x="925" y="1475"/>
      <point x="670" y="1476" type="curve" smooth="yes"/>
      <point x="465" y="1476"/>
      <point x="249" y="1331"/>
      <point x="209" y="1080" type="curve" smooth="yes"/>
      <point x="167" y="833"/>
      <point x="383" y="713"/>
      <point x="525" y="650" type="curve" smooth="yes"/>
      <point x="600" y="605"/>
      <point x="763" y="553"/>
    </contour>
  </outline>
</glyph>
<glyph name="U" format="2">
  <advance width="1109"/>
  <unicode hex="0055"/>
  <anchor x="598" y="0" name="right"/>
  <anchor x="1264" y="1601" name="top0315"/>
  <anchor x="729" y="1601" name="top"/>
  <anchor x="453" y="0" name="bottom"/>
  <anchor x="1262" y="1600" name="top_dd"/>
  <anchor x="684" y="44" name="ogonek"/>
  <anchor x="915" y="-407" name="bottom_dd"/>
  <outline>
    <contour>
      <point x="955" y="1456" type="line"/>
      <point x="784" y="431" type="line" smooth="yes"/>
      <point x="736" y="232"/>
      <point x="623" y="136"/>
      <point x="454" y="136" type="curve" smooth="yes"/>
      <point x="289" y="136"/>
      <point x="243" y="239"/>
      <point x="284" y="431" type="curve" smooth="yes"/>
      <point x="454" y="1456" type="line"/>
      <point x="272" y="1456" type="line"/>
      <point x="101" y="431" type="line" smooth="yes"/>
      <point x="57" y="147"/>
      <point x="195" y="-21"/>
      <point x="454" y="-21" type="curve" smooth="yes"/>
      <point x="704" y="-21"/>
      <point x="917" y="142"/>
      <point x="969" y="431" type="curve" smooth="yes"/>
      <point x="1139" y="1456" type="line"/>
    </contour>
  </outline>
</glyph>
<glyph name="X" format="2">
  <advance width="1092"/>
  <unicode hex="0058"/>
  <anchor x="824" y="0" name="right"/>
  <anchor x="1229" y="1612" name="top0315"/>
  <anchor x="705" y="1612" name="top"/>
  <anchor x="449" y="10" name="bottom"/>
  <anchor x="570" y="742" name="cross"/>
  <anchor x="1227" y="1600" name="top_dd"/>
  <anchor x="915" y="-407" name="bottom_dd"/>
  <outline>
    <contour>
      <point x="418" y="1457" type="line"/>
      <point x="207" y="1457" type="line"/>
      <point x="463" y="738" type="line"/>
      <point x="-27" y="0" type="line"/>
      <point x="191" y="0" type="line"/>
      <point x="567" y="567" type="line"/>
      <point x="723" y="0" type="line"/>
      <point x="936" y="0" type="line"/>
      <point x="679" y="731" type="line"/>
      <point x="1155" y="1455" type="line"/>
      <point x="939" y="1455" type="line"/>
      <point x="574" y="899" type="line"/>
    </contour>
  </outline>
</glyph>
<glyph name="e" format="2">
  <advance width="938"/>
  <unicode hex="0065"/>
  <anchor x="1018" y="1290" name="top0315"/>
  <anchor x="764" y="654" name="rhotichook"/>
  <anchor x="585" y="1290" name="top"/>
  <anchor x="388" y="0" name="bottom"/>
  <anchor x="1066" y="1600" name="top_dd"/>
  <anchor x="590" y="26" name="ogonek"/>
  <anchor x="753" y="-407" name="bottom_dd"/>
  <outline>
    <contour>
      <point x="411" y="-21" type="curve" smooth="yes"/>
      <point x="571" y="-21"/>
      <point x="685" y="52"/>
      <point x="766" y="139" type="curve"/>
      <point x="670" y="237" type="line"/>
      <point x="613" y="202"/>
      <point x="541" y="130"/>
      <point x="420" y="131" type="curve" smooth="yes"/>
      <point x="235" y="133"/>
      <point x="226" y="278"/>
      <point x="260" y="463" type="curve" smooth="yes"/>
      <point x="267" y="585" type="line" smooth="yes"/>
      <point x="307" y="833"/>
      <point x="406" y="951"/>
      <point x="558" y="950" type="curve" smooth="yes"/>
      <point x="714" y="950"/>
      <point x="705" y="832"/>
      <point x="680" y="674" type="curve" smooth="yes"/>
      <point x="677" y="640" type="line"/>
      <point x="203" y="640" type="line"/>
      <point x="196" y="489" type="line"/>
      <point x="850" y="489" type="line"/>
      <point x="859" y="592" type="line" smooth="yes"/>
      <point x="889" y="890"/>
      <point x="847" y="1102"/>
      <point x="557" y="1102" type="curve" smooth="yes"/>
      <point x="315" y="1102"/>
      <point x="132" y="907"/>
      <point x="90" y="585" type="curve" smooth="yes"/>
      <point x="83" y="463" type="line" smooth="yes"/>
      <point x="48" y="191"/>
      <point x="123" y="-21"/>
    </contour>
  </outline>
</glyph>
<glyph name="g" format="2">
  <advance width="976"/>
  <unicode hex="0067"/>
  <anchor x="587" y="1290" name="top"/>
  <anchor x="287" y="-447" name="bottom"/>
  <anchor x="1129" y="1600" name="top_dd"/>
  <anchor x="782" y="-407" name="bottom_dd"/>
  <anchor x="1076" y="1290" name="top0315"/>
  <outline>
    <contour>
      <point x="774" y="1082" type="line"/>
      <point x="716" y="844" type="line"/>
      <point x="573" y="-46" type="line" smooth="yes"/>
      <point x="532" y="-208"/>
      <point x="427" y="-275"/>
      <point x="289" y="-275" type="curve" smooth="yes"/>
      <point x="224" y="-275"/>
      <point x="137" y="-242"/>
      <point x="80" y="-149" type="curve"/>
      <point x="-13" y="-258" type="line"/>
      <point x="64" y="-396"/>
      <point x="236" y="-427"/>
      <point x="303" y="-427" type="curve" smooth="yes"/>
      <point x="541" y="-427"/>
      <point x="706" y="-290"/>
      <point x="750" y="-37" type="curve" smooth="yes"/>
      <point x="934" y="1082" type="line"/>
    </contour>
    <contour>
      <point x="81" y="489" type="line" smooth="yes"/>
      <point x="44" y="244"/>
      <point x="78" y="-21"/>
      <point x="340" y="-21" type="curve" smooth="yes"/>
      <point x="525" y="-21"/>
      <point x="707" y="134"/>
      <point x="752" y="453" type="curve"/>
      <point x="827" y="626" type="line"/>
      <point x="857" y="922"/>
      <point x="721" y="1102"/>
      <point x="525" y="1102" type="curve" smooth="yes"/>
      <point x="262" y="1102"/>
      <point x="130" y="862"/>
      <point x="85" y="590" type="curve" smooth="yes"/>
    </contour>
    <contour>
      <point x="262" y="590" type="line" smooth="yes"/>
      <point x="303" y="768"/>
      <point x="381" y="946"/>
      <point x="572" y="946" type="curve" smooth="yes"/>
      <point x="633" y="945"/>
      <point x="753" y="886"/>
      <point x="736" y="699" type="curve"/>
      <point x="669" y="378" type="line"/>
      <point x="616" y="233"/>
      <point x="486" y="136"/>
      <point x="385" y="136" type="curve" smooth="yes"/>
      <point x="191" y="137"/>
      <point x="224" y="336"/>
      <point x="258" y="489" type="curve" smooth="yes"/>
    </contour>
  </outline>
</glyph>
<glyph name="h" format="2">
  <advance width="956"/>
  <unicode hex="0068"/>
  <anchor x="727" y="0" name="right"/>
  <anchor x="1110" y="1611" name="top0315"/>
  <anchor x="605" y="1611" name="top"/>
  <anchor x="397" y="10" name="bottom"/>
  <anchor x="365" y="1306" name="cross"/>
  <anchor x="1108" y="1600" name="top_dd"/>
  <anchor x="762" y="-407" name="bottom_dd"/>
  <outline>
    <contour>
      <point x="466" y="1536" type="line"/>
      <point x="288" y="1536" type="line"/>
      <point x="24" y="0" type="line"/>
      <point x="201" y="0" type="line"/>
    </contour>
    <contour>
      <point x="267" y="582" type="line"/>
      <point x="317" y="850"/>
      <point x="483" y="943"/>
      <point x="578" y="946" type="curve" smooth="yes"/>
      <point x="733" y="948"/>
      <point x="703" y="787"/>
      <point x="672" y="711" type="curve" smooth="yes"/>
      <point x="552" y="0" type="line"/>
      <point x="728" y="0" type="line"/>
      <point x="848" y="709" type="line" smooth="yes"/>
      <point x="883" y="919"/>
      <point x="835" y="1103"/>
      <point x="631" y="1102" type="curve" smooth="yes"/>
      <point x="407" y="1100"/>
      <point x="242" y="880"/>
      <point x="205" y="586" type="curve"/>
    </contour>
  </outline>
</glyph>
<glyph name="o" format="2">
  <advance width="990"/>
  <unicode hex="006F"/>
  <anchor x="401" y="-1" name="bottom"/>
  <anchor x="831" y="654" name="rhotichook"/>
  <anchor x="595" y="1290" name="top"/>
  <anchor x="1082" y="1290" name="top0315"/>
  <anchor x="1130" y="1600" name="top_dd"/>
  <anchor x="818" y="-407" name="bottom_dd"/>
  <outline>
    <contour>
      <point x="104" y="489" type="line" smooth="yes"/>
      <point x="67" y="230"/>
      <point x="126" y="-21"/>
      <point x="403" y="-21" type="curve" smooth="yes"/>
      <point x="681" y="-21"/>
      <point x="816" y="220"/>
      <point x="860" y="489" type="curve" smooth="yes"/>
      <point x="867" y="592" type="line" smooth="yes"/>
      <point x="904" y="851"/>
      <point x="845" y="1102"/>
      <point x="567" y="1102" type="curve" smooth="yes"/>
      <point x="290" y="1102"/>
      <point x="155" y="861"/>
      <point x="110" y="592" type="curve" smooth="yes"/>
    </contour>
    <contour>
      <point x="288" y="592" type="line" smooth="yes"/>
      <point x="330" y="788"/>
      <point x="406" y="950"/>
      <point x="568" y="950" type="curve" smooth="yes"/>
      <point x="731" y="950"/>
      <point x="724" y="775"/>
      <point x="690" y="592" type="curve" smooth="yes"/>
      <point x="683" y="489" type="line" smooth="yes"/>
      <point x="641" y="295"/>
      <point x="567" y="131"/>
      <point x="402" y="131" type="curve" smooth="yes"/>
      <point x="239" y="131"/>
      <point x="247" y="307"/>
      <point x="281" y="489" type="curve" smooth="yes"/>
    </contour>
  </outline>
</glyph>
<glyph name="q" format="2">
  <advance width="992"/>
  <unicode hex="0071"/>
  <anchor x="574" y="1290" name="marktop"/>
  <anchor x="1091" y="1290" name="top0315"/>
  <anchor x="574" y="1290" name="top"/>
  <anchor x="586" y="-407" name="bottom"/>
  <anchor x="1144" y="1600" name="top_dd"/>
  <anchor x="798" y="-407" name="bottom_dd"/>
  <outline>
    <contour>
      <point x="496" y="-416" type="line"/>
      <point x="673" y="-416" type="line"/>
      <point x="931" y="1082" type="line"/>
      <point x="769" y="1082" type="line"/>
      <point x="718" y="874" type="line"/>
    </contour>
    <contour>
      <point x="79" y="489" type="line" smooth="yes"/>
      <point x="42" y="244"/>
      <point x="72" y="-21"/>
      <point x="342" y="-21" type="curve" smooth="yes"/>
      <point x="527" y="-21"/>
      <point x="715" y="133"/>
      <point x="758" y="453" type="curve"/>
      <point x="833" y="626" type="line"/>
      <point x="865" y="923"/>
      <point x="722" y="1102"/>
      <point x="528" y="1102" type="curve" smooth="yes"/>
      <point x="256" y="1102"/>
      <point x="127" y="862"/>
      <point x="82" y="590" type="curve" smooth="yes"/>
    </contour>
    <contour>
      <point x="260" y="590" type="line" smooth="yes"/>
      <point x="302" y="767"/>
      <point x="383" y="951"/>
      <point x="574" y="950" type="curve" smooth="yes"/>
      <point x="634" y="950"/>
      <point x="758" y="894"/>
      <point x="745" y="699" type="curve"/>
      <point x="677" y="378" type="line"/>
      <point x="623" y="232"/>
      <point x="488" y="130"/>
      <point x="388" y="131" type="curve" smooth="yes"/>
      <point x="193" y="132"/>
      <point x="223" y="336"/>
      <point x="257" y="489" type="curve" smooth="yes"/>
    </contour>
  </outline>
</glyph>
<glyph name="s" format="2">
  <advance width="903"/>
  <unicode hex="0073"/>
  <anchor x="593" y="1290" name="top"/>
  <anchor x="391" y="-10" name="bottom"/>
  <anchor x="1039" y="1600" name="top_dd"/>
  <anchor x="726" y="-407" name="bottom_dd"/>
  <anchor x="991" y="1290" name="top0315"/>
  <outline>
    <contour>
      <point x="575" y="277" type="curve" smooth="yes"/>
      <point x="544" y="141"/>
      <point x="412" y="133"/>
      <point x="365" y="132" type="curve" smooth="yes"/>
      <point x="275" y="130"/>
      <point x="201" y="181"/>
      <point x="216" y="324" type="curve"/>
      <point x="39" y="324" type="line"/>
      <point x="19" y="97"/>
      <point x="201" y="-20"/>
      <point x="366" y="-20" type="curve" smooth="yes"/>
      <point x="526" y="-20"/>
      <point x="723" y="71"/>
      <point x="752" y="291" type="curve" smooth="yes"/>
      <point x="782" y="497"/>
      <point x="571" y="545"/>
      <point x="480" y="619" type="curve" smooth="yes"/>
      <point x="482" y="686"/>
      <point x="301" y="672"/>
      <point x="334" y="796" type="curve" smooth="yes"/>
      <point x="363" y="927"/>
      <point x="489" y="950"/>
      <point x="528" y="950" type="curve" smooth="yes"/>
      <point x="581" y="950"/>
      <point x="668" y="894"/>
      <point x="648" y="770" type="curve"/>
      <point x="824" y="770" type="line"/>
      <point x="846" y="979"/>
      <point x="697" y="1102"/>
      <point x="528" y="1102" type="curve" smooth="yes"/>
      <point x="378" y="1101"/>
      <point x="184" y="996"/>
      <point x="157" y="791" type="curve" smooth="yes"/>
      <point x="128" y="617"/>
      <point x="325" y="550"/>
      <point x="432" y="471" type="curve" smooth="yes"/>
      <point x="453" y="407"/>
      <point x="606" y="423"/>
    </contour>
  </outline>
</glyph>
<glyph name="t" format="2">
  <advance width="586"/>
  <unicode hex="0074"/>
  <anchor x="291" y="0" name="bottom"/>
  <anchor x="443" y="1481" name="top"/>
  <anchor x="612" y="1358" name="marktop"/>
  <anchor x="269" y="675" name="cross"/>
  <anchor x="392" y="-407" name="bottom_dd"/>
  <anchor x="634" y="1656" name="caron"/>
  <anchor x="739" y="1600" name="top_dd"/>
  <anchor x="729" y="1481" name="top0315"/>
  <outline>
    <contour>
      <point x="595" y="1082" type="line"/>
      <point x="104" y="1082" type="line"/>
      <point x="97" y="940" type="line"/>
      <point x="588" y="940" type="line"/>
    </contour>
    <contour>
      <point x="314" y="1344" type="line"/>
      <point x="122" y="269" type="line" smooth="yes"/>
      <point x="100" y="124"/>
      <point x="139" y="-19"/>
      <point x="287" y="-20" type="curve" smooth="yes"/>
      <point x="356" y="-20"/>
      <point x="375" y="-8"/>
      <point x="406" y="0" type="curve"/>
      <point x="414" y="151" type="line"/>
      <point x="404" y="147"/>
      <point x="362" y="139"/>
      <point x="342" y="139" type="curve" smooth="yes"/>
      <point x="250" y="141"/>
      <point x="280" y="243"/>
      <point x="298" y="268" type="curve" smooth="yes"/>
      <point x="491" y="1344" type="line"/>
    </contour>
  </outline>
</glyph>
<glyph name="u" format="2">
  <advance width="956"/>
  <unicode hex="0075"/>
  <anchor x="372" y="0" name="bottom"/>
  <anchor x="774" y="654" name="rhotichook"/>
  <anchor x="597" y="1290" name="top"/>
  <anchor x="1056" y="1290" name="top0315"/>
  <anchor x="328" y="0" name="bottomu"/>
  <anchor x="1109" y="1600" name="top_dd"/>
  <anchor x="715" y="0" name="ogonek"/>
  <anchor x="762" y="-407" name="bottom_dd"/>
  <outline>
    <contour>
      <point x="591" y="250" type="line"/>
      <point x="558" y="0" type="line"/>
      <point x="726" y="0" type="line"/>
      <point x="912" y="1082" type="line"/>
      <point x="735" y="1082" type="line"/>
    </contour>
    <contour>
      <point x="654" y="478" type="line"/>
      <point x="607" y="257"/>
      <point x="478" y="137"/>
      <point x="339" y="137" type="curve" smooth="yes"/>
      <point x="225" y="137"/>
      <point x="234" y="272"/>
      <point x="264" y="382" type="curve" smooth="yes"/>
      <point x="383" y="1082" type="line"/>
      <point x="207" y="1082" type="line"/>
      <point x="89" y="384" type="line" smooth="yes"/>
      <point x="54" y="180"/>
      <point x="94" y="-20"/>
      <point x="310" y="-20" type="curve" smooth="yes"/>
      <point x="547" y="-20"/>
      <point x="677" y="192"/>
      <point x="725" y="480" type="curve"/>
    </contour>
  </outline>
</glyph>
<glyph name="braceleft" format="2">
  <advance width="607"/>
  <unicode hex="007B"/>
  <outline>
    <contour>
      <point x="685" y="1597" type="line"/>
      <point x="473" y="1524"/>
      <point x="353" y="1360"/>
      <point x="317" y="1132" type="curve" smooth="yes"/>
      <point x="278" y="926" type="line" smooth="yes"/>
      <point x="250" y="789"/>
      <point x="183" y="696"/>
      <point x="70" y="688" type="curve"/>
      <point x="64" y="566" type="line"/>
      <point x="291" y="574"/>
      <point x="425" y="712"/>
      <point x="456" y="925" type="curve" smooth="yes"/>
      <point x="495" y="1132" type="line" smooth="yes"/>
      <point x="528" y="1294"/>
      <point x="593" y="1429"/>
      <point x="715" y="1482" type="curve"/>
    </contour>
    <contour>
      <point x="411" y="-252" type="line"/>
      <point x="297" y="-196"/>
      <point x="292" y="-51"/>
      <point x="321" y="99" type="curve" smooth="yes"/>
      <point x="359" y="305" type="line" smooth="yes"/>
      <point x="384" y="510"/>
      <point x="288" y="657"/>
      <point x="67" y="665" type="curve"/>
      <point x="61" y="543" type="line"/>
      <point x="176" y="534"/>
      <point x="206" y="440"/>
      <point x="182" y="306" type="curve" smooth="yes"/>
      <point x="143" y="99" type="line" smooth="yes"/>
      <point x="113" y="-110"/>
      <point x="173" y="-289"/>
      <point x="371" y="-365" type="curve"/>
    </contour>
  </outline>
</glyph>
<glyph name="braceright" format="2">
  <advance width="607"/>
  <unicode hex="007D"/>
  <outline>
    <contour>
      <point x="187" y="1484" type="line"/>
      <point x="303" y="1426"/>
      <point x="306" y="1282"/>
      <point x="278" y="1132" type="curve" smooth="yes"/>
      <point x="240" y="926" type="line" smooth="yes"/>
      <point x="214" y="721"/>
      <point x="310" y="583"/>
      <point x="531" y="576" type="curve"/>
      <point x="537" y="688" type="line"/>
      <point x="422" y="697"/>
      <point x="392" y="790"/>
      <point x="416" y="925" type="curve" smooth="yes"/>
      <point x="454" y="1132" type="line" smooth="yes"/>
      <point x="485" y="1341"/>
      <point x="427" y="1519"/>
      <point x="229" y="1596" type="curve"/>
    </contour>
    <contour>
      <point x="-86" y="-367" type="line"/>
      <point x="125" y="-294"/>
      <point x="245" y="-129"/>
      <point x="281" y="99" type="curve" smooth="yes"/>
      <point x="319" y="305" type="line" smooth="yes"/>
      <point x="347" y="440"/>
      <point x="414" y="535"/>
      <point x="527" y="543" type="curve"/>
      <point x="533" y="655" type="line"/>
      <point x="307" y="647"/>
      <point x="173" y="519"/>
      <point x="142" y="306" type="curve" smooth="yes"/>
      <point x="104" y="99" type="line" smooth="yes"/>
      <point x="71" y="-61"/>
      <point x="6" y="-198"/>
      <point x="-116" y="-250" type="curve"/>
    </contour>
  </outline>
</glyph>
<glyph name="asciitilde" format="2">
  <advance width="1165"/>
  <unicode hex="007E"/>
  <outline>
    <contour>
      <point x="928" y="776" type="line"/>
      <point x="901" y="677"/>
      <point x="843" y="567"/>
      <point x="753" y="565" type="curve" smooth="yes"/>
      <point x="693" y="564"/>
      <point x="651" y="625"/>
      <point x="636" y="663" type="curve" smooth="yes"/>
      <point x="584" y="737"/>
      <point x="507" y="803"/>
      <point x="416" y="802" type="curve" smooth="yes"/>
      <point x="260" y="801"/>
      <point x="127" y="638"/>
      <point x="99" y="437" type="curve"/>
      <point x="252" y="439" type="line"/>
      <point x="279" y="527"/>
      <point x="318" y="639"/>
      <point x="417" y="640" type="curve" smooth="yes"/>
      <point x="468" y="640"/>
      <point x="518" y="582"/>
      <point x="534" y="542" type="curve" smooth="yes"/>
      <point x="587" y="467"/>
      <point x="661" y="401"/>
      <point x="754" y="403" type="curve" smooth="yes"/>
      <point x="910" y="405"/>
      <point x="1043" y="576"/>
      <point x="1071" y="777" type="curve"/>
    </contour>
  </outline>
</glyph>
<glyph name="currency" format="2">
  <advance width="1416"/>
  <unicode hex="00A4"/>
  <outline>
    <contour>
      <point x="308" y="608" type="curve" smooth="yes"/>
      <point x="362" y="836"/>
      <point x="570" y="1062"/>
      <point x="819" y="1062" type="curve" smooth="yes"/>
      <point x="1063" y="1062"/>
      <point x="1170" y="821"/>
      <point x="1119" y="608" type="curve" smooth="yes"/>
      <point x="1066" y="381"/>
      <point x="860" y="152"/>
      <point x="610" y="152" type="curve" smooth="yes"/>
      <point x="365" y="152"/>
      <point x="258" y="396"/>
    </contour>
    <contour>
      <point x="136" y="608" type="curve" smooth="yes"/>
      <point x="84" y="295"/>
      <point x="272" y="-20"/>
      <point x="611" y="-20" type="curve" smooth="yes"/>
      <point x="955" y="-20"/>
      <point x="1238" y="283"/>
      <point x="1292" y="608" type="curve" smooth="yes"/>
      <point x="1344" y="921"/>
      <point x="1158" y="1234"/>
      <point x="818" y="1234" type="curve" smooth="yes"/>
      <point x="475" y="1234"/>
      <point x="190" y="935"/>
    </contour>
    <contour>
      <point x="1439" y="1126" type="line"/>
      <point x="1312" y="1265" type="line"/>
      <point x="1082" y="1061" type="line"/>
      <point x="1209" y="923" type="line"/>
    </contour>
    <contour>
      <point x="356" y="178" type="line"/>
      <point x="229" y="314" type="line"/>
      <point x="-1" y="112" type="line"/>
      <point x="126" y="-26" type="line"/>
    </contour>
    <contour>
      <point x="1094" y="-27" type="line"/>
      <point x="1229" y="108" type="line"/>
      <point x="1065" y="314" type="line"/>
      <point x="929" y="181" type="line"/>
    </contour>
    <contour>
      <point x="374" y="923" type="line"/>
      <point x="508" y="1056" type="line"/>
      <point x="343" y="1264" type="line"/>
      <point x="209" y="1130" type="line"/>
    </contour>
  </outline>
</glyph>
<glyph name="yen" format="2">
  <advance width="919"/>
  <unicode hex="00A5"/>
  <outline>
    <contour>
      <point x="810" y="736" type="line"/>
      <point x="132" y="736" type="line"/>
      <point x="125" y="612" type="line"/>
      <point x="802" y="612" type="line"/>
    </contour>
    <contour>
      <point x="759" y="446" type="line"/>
      <point x="81" y="446" type="line"/>
      <point x="74" y="323" type="line"/>
      <point x="751" y="323" type="line"/>
    </contour>
    <contour>
      <point x="418" y="666" type="line"/>
      <point x="435" y="606" type="line"/>
      <point x="551" y="605" type="line"/>
      <point x="1039" y="1455" type="line"/>
      <point x="835" y="1455" type="line"/>
    </contour>
    <contour>
      <point x="381" y="1457" type="line"/>
      <point x="176" y="1457" type="line"/>
      <point x="384" y="603" type="line"/>
      <point x="495" y="603" type="line"/>
      <point x="553" y="655" type="line"/>
    </contour>
    <contour>
      <point x="562" y="774" type="line"/>
      <point x="379" y="774" type="line"/>
      <point x="261" y="0" type="line"/>
      <point x="445" y="0" type="line"/>
    </contour>
  </outline>
</glyph>
<glyph name="brokenbar" format="2">
  <advance width="480"/>
  <unicode hex="00A6"/>
  <outline>
    <contour>
      <point x="177" y="-270" type="line"/>
      <point x="306" y="521" type="line"/>
      <point x="121" y="521" type="line"/>
      <point x="-8" y="-270" type="line"/>
    </contour>
    <contour>
      <point x="475" y="1456" type="line"/>
      <point x="290" y="1456" type="line"/>
      <point x="160" y="698" type="line"/>
      <point x="345" y="698" type="line"/>
    </contour>
  </outline>
</glyph>
<glyph name="section" format="2">
  <advance width="1064"/>
  <unicode hex="00A7"/>
  <outline>
    <contour>
      <point x="511" y="109" type="line"/>
      <point x="674" y="113"/>
      <point x="895" y="185"/>
      <point x="930" y="431" type="curve" smooth="yes"/>
      <point x="971" y="706"/>
      <point x="752" y="790"/>
      <point x="610" y="855" type="curve" smooth="yes"/>
      <point x="533" y="891"/>
      <point x="357" y="934"/>
      <point x="399" y="1113" type="curve" smooth="yes"/>
      <point x="440" y="1275"/>
      <point x="599" y="1326"/>
      <point x="681" y="1325" type="curve" smooth="yes"/>
      <point x="804" y="1324"/>
      <point x="874" y="1210"/>
      <point x="841" y="1046" type="curve"/>
      <point x="1017" y="1046" type="line"/>
      <point x="1054" y="1306"/>
      <point x="923" y="1477"/>
      <point x="680" y="1477" type="curve" smooth="yes"/>
      <point x="482" y="1477"/>
      <point x="259" y="1359"/>
      <point x="221" y="1111" type="curve" smooth="yes"/>
      <point x="183" y="843"/>
      <point x="379" y="757"/>
      <point x="545" y="692" type="curve" smooth="yes"/>
      <point x="580" y="656"/>
      <point x="798" y="607"/>
      <point x="752" y="428" type="curve" smooth="yes"/>
      <point x="716" y="266"/>
      <point x="572" y="231"/>
      <point x="517" y="226" type="curve"/>
    </contour>
    <contour>
      <point x="488" y="874" type="line"/>
      <point x="321" y="870"/>
      <point x="118" y="782"/>
      <point x="85" y="551" type="curve" smooth="yes"/>
      <point x="43" y="276"/>
      <point x="252" y="189"/>
      <point x="398" y="126" type="curve" smooth="yes"/>
      <point x="468" y="82"/>
      <point x="656" y="43"/>
      <point x="615" y="-131" type="curve" smooth="yes"/>
      <point x="575" y="-286"/>
      <point x="422" y="-343"/>
      <point x="334" y="-343" type="curve" smooth="yes"/>
      <point x="173" y="-344"/>
      <point x="114" y="-222"/>
      <point x="150" y="-62" type="curve"/>
      <point x="-27" y="-64" type="line"/>
      <point x="-64" y="-337"/>
      <point x="88" y="-495"/>
      <point x="334" y="-495" type="curve" smooth="yes"/>
      <point x="535" y="-494"/>
      <point x="754" y="-382"/>
      <point x="792" y="-129" type="curve" smooth="yes"/>
      <point x="830" y="139"/>
      <point x="632" y="223"/>
      <point x="467" y="289" type="curve" smooth="yes"/>
      <point x="429" y="318"/>
      <point x="216" y="366"/>
      <point x="262" y="553" type="curve" smooth="yes"/>
      <point x="298" y="708"/>
      <point x="424" y="748"/>
      <point x="483" y="753" type="curve"/>
    </contour>
  </outline>
</glyph>
<glyph name="dieresis" format="2">
  <advance width="829"/>
  <unicode hex="00A8"/>
  <anchor x="517" y="1290" name="_top"/>
  <anchor x="556" y="1577" name="mkmktop_acc"/>
  <outline>
    <contour>
      <point x="223" y="1373" type="curve" smooth="yes"/>
      <point x="219" y="1316"/>
      <point x="255" y="1267"/>
      <point x="325" y="1267" type="curve" smooth="yes"/>
      <point x="394" y="1267"/>
      <point x="437" y="1314"/>
      <point x="441" y="1370" type="curve" smooth="yes"/>
      <point x="445" y="1427"/>
      <point x="408" y="1477"/>
      <point x="338" y="1478" type="curve" smooth="yes"/>
      <point x="269" y="1478"/>
      <point x="227" y="1429"/>
    </contour>
    <contour>
      <point x="641" y="1371" type="curve" smooth="yes"/>
      <point x="637" y="1314"/>
      <point x="672" y="1265"/>
      <point x="742" y="1265" type="curve" smooth="yes"/>
      <point x="811" y="1265"/>
      <point x="854" y="1312"/>
      <point x="858" y="1368" type="curve" smooth="yes"/>
      <point x="862" y="1426"/>
      <point x="826" y="1476"/>
      <point x="756" y="1476" type="curve" smooth="yes"/>
      <point x="687" y="1476"/>
      <point x="645" y="1427"/>
    </contour>
  </outline>
</glyph>
<glyph name="copyright" format="2">
  <advance width="1559"/>
  <unicode hex="00A9"/>
  <outline>
    <contour>
      <point x="943" y="597" type="line"/>
      <point x="913" y="492"/>
      <point x="849" y="411"/>
      <point x="721" y="413" type="curve" smooth="yes"/>
      <point x="576" y="414"/>
      <point x="562" y="557"/>
      <point x="584" y="671" type="curve" smooth="yes"/>
      <point x="597" y="787" type="line" smooth="yes"/>
      <point x="625" y="912"/>
      <point x="703" y="1044"/>
      <point x="846" y="1045" type="curve" smooth="yes"/>
      <point x="972" y="1045"/>
      <point x="1000" y="964"/>
      <point x="981" y="861" type="curve"/>
      <point x="1126" y="861" type="line"/>
      <point x="1146" y="1036"/>
      <point x="1059" y="1174"/>
      <point x="846" y="1173" type="curve" smooth="yes"/>
      <point x="612" y="1172"/>
      <point x="483" y="976"/>
      <point x="452" y="786" type="curve" smooth="yes"/>
      <point x="440" y="671" type="line" smooth="yes"/>
      <point x="415" y="490"/>
      <point x="487" y="284"/>
      <point x="722" y="284" type="curve" smooth="yes"/>
      <point x="936" y="283"/>
      <point x="1057" y="419"/>
      <point x="1089" y="597" type="curve"/>
    </contour>
    <contour>
      <point x="223" y="729" type="curve" smooth="yes"/>
      <point x="281" y="1053"/>
      <point x="563" y="1357"/>
      <point x="909" y="1357" type="curve" smooth="yes"/>
      <point x="1250" y="1356"/>
      <point x="1425" y="1038"/>
      <point x="1370" y="729" type="curve" smooth="yes"/>
      <point x="1312" y="405"/>
      <point x="1030" y="98"/>
      <point x="684" y="98" type="curve" smooth="yes"/>
      <point x="342" y="99"/>
      <point x="168" y="421"/>
    </contour>
    <contour>
      <point x="107" y="729" type="curve" smooth="yes"/>
      <point x="51" y="355"/>
      <point x="279" y="-21"/>
      <point x="684" y="-21" type="curve" smooth="yes"/>
      <point x="1093" y="-21"/>
      <point x="1427" y="340"/>
      <point x="1486" y="729" type="curve" smooth="yes"/>
      <point x="1542" y="1104"/>
      <point x="1312" y="1476"/>
      <point x="909" y="1476" type="curve" smooth="yes"/>
      <point x="499" y="1476"/>
      <point x="166" y="1118"/>
    </contour>
  </outline>
</glyph>
<glyph name="ordfeminine" format="2">
  <advance width="785"/>
  <unicode hex="00AA"/>
  <outline>
    <contour>
      <point x="535" y="862" type="line" smooth="yes"/>
      <point x="527" y="810"/>
      <point x="526" y="758"/>
      <point x="529" y="706" type="curve"/>
      <point x="683" y="705" type="line"/>
      <point x="678" y="767"/>
      <point x="683" y="826"/>
      <point x="693" y="887" type="curve" smooth="yes"/>
      <point x="747" y="1201" type="line" smooth="yes"/>
      <point x="769" y="1349"/>
      <point x="713" y="1477"/>
      <point x="551" y="1477" type="curve" smooth="yes"/>
      <point x="419" y="1477"/>
      <point x="293" y="1395"/>
      <point x="261" y="1245" type="curve"/>
      <point x="414" y="1232" type="line"/>
      <point x="447" y="1304"/>
      <point x="502" y="1338"/>
      <point x="551" y="1336" type="curve" smooth="yes"/>
      <point x="615" y="1334"/>
      <point x="613" y="1267"/>
      <point x="594" y="1202" type="curve" smooth="yes"/>
    </contour>
    <contour>
      <point x="619" y="1149" type="line"/>
      <point x="501" y="1149" type="line" smooth="yes"/>
      <point x="356" y="1147"/>
      <point x="213" y="1090"/>
      <point x="186" y="919" type="curve" smooth="yes"/>
      <point x="165" y="771"/>
      <point x="257" y="691"/>
      <point x="358" y="692" type="curve" smooth="yes"/>
      <point x="457" y="693"/>
      <point x="528" y="752"/>
      <point x="580" y="836" type="curve"/>
      <point x="574" y="949" type="line"/>
      <point x="539" y="872"/>
      <point x="450" y="830"/>
      <point x="396" y="829" type="curve" smooth="yes"/>
      <point x="373" y="828"/>
      <point x="319" y="850"/>
      <point x="341" y="922" type="curve" smooth="yes"/>
      <point x="369" y="1004"/>
      <point x="454" y="1035"/>
      <point x="502" y="1037" type="curve" smooth="yes"/>
      <point x="613" y="1038" type="line"/>
    </contour>
  </outline>
</glyph>
<glyph name="registered" format="2">
  <advance width="1560"/>
  <unicode hex="00AE"/>
  <outline>
    <contour>
      <point x="817" y="655" type="line" smooth="yes"/>
      <point x="843" y="656"/>
      <point x="852" y="669"/>
      <point x="874" y="676" type="curve" smooth="yes"/>
      <point x="878" y="677"/>
      <point x="883" y="689"/>
      <point x="887" y="689" type="curve" smooth="yes"/>
      <point x="1015" y="717"/>
      <point x="1111" y="803"/>
      <point x="1127" y="909" type="curve" smooth="yes"/>
      <point x="1153" y="1092"/>
      <point x="1003" y="1163"/>
      <point x="846" y="1165" type="curve" smooth="yes"/>
      <point x="580" y="1165" type="line"/>
      <point x="452" y="317" type="line"/>
      <point x="593" y="317" type="line"/>
      <point x="714" y="1038" type="line"/>
      <point x="847" y="1038" type="line" smooth="yes"/>
      <point x="929" y="1036"/>
      <point x="1014" y="1019"/>
      <point x="987" y="904" type="curve" smooth="yes"/>
      <point x="964" y="829"/>
      <point x="883" y="788"/>
      <point x="801" y="783" type="curve" smooth="yes"/>
      <point x="608" y="783" type="line"/>
      <point x="603" y="655" type="line"/>
    </contour>
    <contour>
      <point x="803" y="656" type="line"/>
      <point x="894" y="650"/>
      <point x="936" y="608"/>
      <point x="918" y="513" type="curve" smooth="yes"/>
      <point x="912" y="461" type="line" smooth="yes"/>
      <point x="905" y="413"/>
      <point x="898" y="365"/>
      <point x="903" y="317" type="curve"/>
      <point x="1048" y="317" type="line"/>
      <point x="1050" y="333" type="line"/>
      <point x="1048" y="376"/>
      <point x="1046" y="416"/>
      <point x="1053" y="460" type="curve" smooth="yes"/>
      <point x="1058" y="514" type="line" smooth="yes"/>
      <point x="1077" y="668"/>
      <point x="995" y="738"/>
      <point x="828" y="744" type="curve"/>
    </contour>
    <contour>
      <point x="222" y="729" type="curve" smooth="yes"/>
      <point x="280" y="1053"/>
      <point x="563" y="1357"/>
      <point x="909" y="1357" type="curve" smooth="yes"/>
      <point x="1249" y="1356"/>
      <point x="1425" y="1038"/>
      <point x="1369" y="729" type="curve" smooth="yes"/>
      <point x="1312" y="405"/>
      <point x="1030" y="98"/>
      <point x="683" y="98" type="curve" smooth="yes"/>
      <point x="342" y="99"/>
      <point x="167" y="420"/>
    </contour>
    <contour>
      <point x="107" y="729" type="curve" smooth="yes"/>
      <point x="50" y="355"/>
      <point x="279" y="-21"/>
      <point x="684" y="-21" type="curve" smooth="yes"/>
      <point x="1093" y="-21"/>
      <point x="1426" y="340"/>
      <point x="1485" y="729" type="curve" smooth="yes"/>
      <point x="1542" y="1104"/>
      <point x="1311" y="1476"/>
      <point x="908" y="1476" type="curve" smooth="yes"/>
      <point x="499" y="1476"/>
      <point x="165" y="1118"/>
    </contour>
  </outline>
</glyph>
<glyph name="paragraph" format="2">
  <advance width="862"/>
  <unicode hex="00B6"/>
  <outline>
    <contour>
      <point x="605" y="0" type="line"/>
      <point x="857" y="1456" type="line"/>
      <point x="610" y="1456" type="line" smooth="yes"/>
      <point x="380" y="1452"/>
      <point x="181" y="1270"/>
      <point x="135" y="988" type="curve" smooth="yes"/>
      <point x="89" y="711"/>
      <point x="234" y="524"/>
      <point x="458" y="520" type="curve" smooth="yes"/>
      <point x="516" y="520" type="line"/>
      <point x="427" y="0" type="line"/>
    </contour>
  </outline>
</glyph>
<glyph name="periodcentered" format="2">
  <advance width="485"/>
  <unicode hex="00B7"/>
  <outline>
    <contour>
      <point x="151" y="731" type="curve" smooth="yes"/>
      <point x="146" y="671"/>
      <point x="181" y="620"/>
      <point x="249" y="620" type="curve" smooth="yes"/>
      <point x="317" y="620"/>
      <point x="358" y="669"/>
      <point x="362" y="727" type="curve" smooth="yes"/>
      <point x="367" y="789"/>
      <point x="333" y="841"/>
      <point x="264" y="841" type="curve" smooth="yes"/>
      <point x="196" y="841"/>
      <point x="155" y="790"/>
    </contour>
  </outline>
</glyph>
<glyph name="cedilla" format="2">
  <advance width="455"/>
  <unicode hex="00B8"/>
  <anchor x="95" y="0" name="_bottom"/>
  <anchor x="20" y="-440" name="mkmkbottom_acc"/>
  <outline>
    <contour>
      <point x="37" y="0" type="line"/>
      <point x="-9" y="-134" type="line"/>
      <point x="35" y="-140"/>
      <point x="117" y="-148"/>
      <point x="95" y="-229" type="curve" smooth="yes"/>
      <point x="71" y="-309"/>
      <point x="10" y="-324"/>
      <point x="-51" y="-328" type="curve"/>
      <point x="-53" y="-435" type="line"/>
      <point x="65" y="-430"/>
      <point x="208" y="-383"/>
      <point x="230" y="-226" type="curve" smooth="yes"/>
      <point x="245" y="-128"/>
      <point x="205" y="-71"/>
      <point x="138" y="-54" type="curve"/>
      <point x="162" y="0" type="line"/>
    </contour>
  </outline>
</glyph>
<glyph name="germandbls" format="2">
  <advance width="1034"/>
  <unicode hex="00DF"/>
  <outline>
    <contour>
      <point x="398" y="1112" type="line" smooth="yes"/>
      <point x="432" y="1246"/>
      <point x="485" y="1406"/>
      <point x="625" y="1403" type="curve" smooth="yes"/>
      <point x="712" y="1401"/>
      <point x="748" y="1330"/>
      <point x="727" y="1201" type="curve" smooth="yes"/>
      <point x="699" y="1069"/>
      <point x="559" y="939"/>
      <point x="535" y="822" type="curve" smooth="yes"/>
      <point x="501" y="562"/>
      <point x="766" y="498"/>
      <point x="723" y="308" type="curve" smooth="yes"/>
      <point x="691" y="191"/>
      <point x="611" y="132"/>
      <point x="512" y="132" type="curve" smooth="yes"/>
      <point x="455" y="131"/>
      <point x="396" y="162"/>
      <point x="344" y="207" type="curve"/>
      <point x="301" y="54" type="line"/>
      <point x="365" y="-2"/>
      <point x="457" y="-20"/>
      <point x="531" y="-20" type="curve" smooth="yes"/>
      <point x="746" y="-19"/>
      <point x="868" y="104"/>
      <point x="897" y="317" type="curve" smooth="yes"/>
      <point x="936" y="548"/>
      <point x="672" y="624"/>
      <point x="711" y="820" type="curve" smooth="yes"/>
      <point x="739" y="909"/>
      <point x="867" y="1031"/>
      <point x="891" y="1216" type="curve" smooth="yes"/>
      <point x="915" y="1440"/>
      <point x="805" y="1553"/>
      <point x="616" y="1554" type="curve" smooth="yes"/>
      <point x="400" y="1555"/>
      <point x="258" y="1356"/>
      <point x="222" y="1112" type="curve" smooth="yes"/>
      <point x="25" y="0" type="line"/>
      <point x="200" y="0" type="line"/>
    </contour>
  </outline>
</glyph>
<glyph name="ae" format="2">
  <advance width="1440"/>
  <unicode hex="00E6"/>
  <anchor x="836" y="1291" name="top"/>
  <anchor x="1592" y="1600" name="top_dd"/>
  <anchor x="1539" y="1291" name="top0315"/>
  <outline>
    <contour>
      <point x="543" y="184" type="line"/>
      <point x="719" y="218" type="line"/>
      <point x="805" y="718" type="line" smooth="yes"/>
      <point x="838" y="923"/>
      <point x="756" y="1102"/>
      <point x="539" y="1102" type="curve" smooth="yes"/>
      <point x="362" y="1102"/>
      <point x="176" y="989"/>
      <point x="135" y="779" type="curve"/>
      <point x="309" y="760" type="line"/>
      <point x="351" y="887"/>
      <point x="467" y="951"/>
      <point x="540" y="950" type="curve" smooth="yes"/>
      <point x="646" y="950"/>
      <point x="664" y="828"/>
      <point x="635" y="720" type="curve" smooth="yes"/>
    </contour>
    <contour>
      <point x="656" y="635" type="line"/>
      <point x="447" y="636" type="line" smooth="yes"/>
      <point x="260" y="633"/>
      <point x="63" y="545"/>
      <point x="25" y="304" type="curve" smooth="yes"/>
      <point x="-6" y="95"/>
      <point x="117" y="-21"/>
      <point x="266" y="-21" type="curve" smooth="yes"/>
      <point x="425" y="-21"/>
      <point x="587" y="52"/>
      <point x="678" y="194" type="curve"/>
      <point x="590" y="339" type="line"/>
      <point x="540" y="202"/>
      <point x="360" y="131"/>
      <point x="301" y="131" type="curve" smooth="yes"/>
      <point x="232" y="130"/>
      <point x="170" y="195"/>
      <point x="201" y="300" type="curve" smooth="yes"/>
      <point x="239" y="447"/>
      <point x="387" y="493"/>
      <point x="450" y="496" type="curve" smooth="yes"/>
      <point x="649" y="496" type="line"/>
    </contour>
    <contour>
      <point x="939" y="-21" type="curve" smooth="yes"/>
      <point x="1072" y="-21"/>
      <point x="1205" y="44"/>
      <point x="1271" y="100" type="curve"/>
      <point x="1217" y="237" type="line"/>
      <point x="1139" y="190"/>
      <point x="1061" y="130"/>
      <point x="939" y="131" type="curve" smooth="yes"/>
      <point x="761" y="132"/>
      <point x="733" y="335"/>
      <point x="772" y="520" type="curve" smooth="yes"/>
      <point x="783" y="564" type="line" smooth="yes"/>
      <point x="826" y="737"/>
      <point x="918" y="950"/>
      <point x="1084" y="950" type="curve" smooth="yes"/>
      <point x="1224" y="950"/>
      <point x="1237" y="802"/>
      <point x="1200" y="672" type="curve" smooth="yes"/>
      <point x="1193" y="640" type="line"/>
      <point x="720" y="640" type="line"/>
      <point x="712" y="498" type="line"/>
      <point x="1363" y="498" type="line"/>
      <point x="1377" y="616" type="line" smooth="yes"/>
      <point x="1414" y="873"/>
      <point x="1336" y="1102"/>
      <point x="1083" y="1102" type="curve" smooth="yes"/>
      <point x="822" y="1103"/>
      <point x="662" y="819"/>
      <point x="617" y="564" type="curve" smooth="yes"/>
      <point x="606" y="520" type="line" smooth="yes"/>
      <point x="565" y="249"/>
      <point x="655" y="-20"/>
    </contour>
  </outline>
</glyph>
<glyph name="eth" format="2">
  <advance width="1017"/>
  <unicode hex="00F0"/>
  <outline>
    <contour>
      <point x="371" y="1422" type="line"/>
      <point x="690" y="1305"/>
      <point x="792" y="977"/>
      <point x="719" y="635" type="curve" smooth="yes"/>
      <point x="705" y="535" type="line" smooth="yes"/>
      <point x="664" y="377"/>
      <point x="581" y="132"/>
      <point x="404" y="132" type="curve" smooth="yes"/>
      <point x="280" y="132"/>
      <point x="228" y="302"/>
      <point x="266" y="468" type="curve" smooth="yes"/>
      <point x="307" y="675"/>
      <point x="440" y="826"/>
      <point x="580" y="826" type="curve" smooth="yes"/>
      <point x="629" y="826"/>
      <point x="756" y="778"/>
      <point x="729" y="615" type="curve"/>
      <point x="795" y="613" type="line"/>
      <point x="825" y="786"/>
      <point x="720" y="978"/>
      <point x="536" y="978" type="curve" smooth="yes"/>
      <point x="307" y="978"/>
      <point x="131" y="727"/>
      <point x="89" y="468" type="curve" smooth="yes"/>
      <point x="49" y="222"/>
      <point x="163" y="-21"/>
      <point x="400" y="-20" type="curve" smooth="yes"/>
      <point x="682" y="-19"/>
      <point x="838" y="288"/>
      <point x="882" y="535" type="curve" smooth="yes"/>
      <point x="895" y="633" type="line" smooth="yes"/>
      <point x="969" y="1066"/>
      <point x="775" y="1473"/>
      <point x="431" y="1580" type="curve"/>
    </contour>
    <contour>
      <point x="962" y="1415" type="line"/>
      <point x="899" y="1516" type="line"/>
      <point x="409" y="1153" type="line"/>
      <point x="471" y="1051" type="line"/>
    </contour>
  </outline>
</glyph>
<glyph name="divide" format="2">
  <advance width="990"/>
  <unicode hex="00F7"/>
  <outline>
    <contour>
      <point x="910" y="784" type="line"/>
      <point x="99" y="784" type="line"/>
      <point x="92" y="601" type="line"/>
      <point x="903" y="601" type="line"/>
    </contour>
    <contour>
      <point x="463" y="1100" type="curve" smooth="yes"/>
      <point x="459" y="1041"/>
      <point x="493" y="990"/>
      <point x="561" y="989" type="curve" smooth="yes"/>
      <point x="629" y="989"/>
      <point x="670" y="1038"/>
      <point x="674" y="1097" type="curve" smooth="yes"/>
      <point x="679" y="1158"/>
      <point x="645" y="1210"/>
      <point x="576" y="1210" type="curve" smooth="yes"/>
      <point x="508" y="1210"/>
      <point x="467" y="1160"/>
    </contour>
    <contour>
      <point x="328" y="283" type="curve" smooth="yes"/>
      <point x="324" y="224"/>
      <point x="358" y="173"/>
      <point x="427" y="173" type="curve" smooth="yes"/>
      <point x="494" y="173"/>
      <point x="535" y="222"/>
      <point x="539" y="280" type="curve" smooth="yes"/>
      <point x="544" y="341"/>
      <point x="510" y="393"/>
      <point x="441" y="393" type="curve" smooth="yes"/>
      <point x="374" y="394"/>
      <point x="333" y="343"/>
    </contour>
  </outline>
</glyph>
<glyph name="dcroat" format="2">
  <advance width="1051"/>
  <unicode hex="0111"/>
  <anchor x="865" y="1310" name="parenthesses.w2"/>
  <anchor x="1206" y="1611" name="top0315"/>
  <anchor x="641" y="1611" name="top"/>
  <anchor x="419" y="0" name="bottom"/>
  <anchor x="419" y="0" name="markbottom"/>
  <anchor x="1087" y="1536" name="caron"/>
  <anchor x="1135" y="1600" name="top_dd"/>
  <anchor x="789" y="-407" name="bottom_dd"/>
  <outline>
    <contour>
      <point x="604" y="210" type="line"/>
      <point x="584" y="0" type="line"/>
      <point x="746" y="0" type="line"/>
      <point x="1010" y="1536" type="line"/>
      <point x="833" y="1536" type="line"/>
    </contour>
    <contour>
      <point x="79" y="529" type="line" smooth="yes"/>
      <point x="42" y="310"/>
      <point x="82" y="-20"/>
      <point x="339" y="-20" type="curve" smooth="yes"/>
      <point x="523" y="-20"/>
      <point x="706" y="152"/>
      <point x="749" y="493" type="curve"/>
      <point x="824" y="586" type="line"/>
      <point x="856" y="904"/>
      <point x="719" y="1102"/>
      <point x="524" y="1102" type="curve" smooth="yes"/>
      <point x="266" y="1102"/>
      <point x="127" y="794"/>
      <point x="82" y="550" type="curve" smooth="yes"/>
    </contour>
    <contour>
      <point x="260" y="550" type="line" smooth="yes"/>
      <point x="302" y="702"/>
      <point x="380" y="946"/>
      <point x="571" y="946" type="curve" smooth="yes"/>
      <point x="631" y="945"/>
      <point x="752" y="863"/>
      <point x="736" y="659" type="curve"/>
      <point x="668" y="418" type="line"/>
      <point x="614" y="250"/>
      <point x="484" y="137"/>
      <point x="384" y="137" type="curve" smooth="yes"/>
      <point x="189" y="138"/>
      <point x="223" y="402"/>
      <point x="257" y="529" type="curve" smooth="yes"/>
    </contour>
    <contour>
      <point x="1133" y="1384" type="line"/>
      <point x="606" y="1384" type="line"/>
      <point x="599" y="1233" type="line"/>
      <point x="1125" y="1233" type="line"/>
    </contour>
  </outline>
</glyph>
<glyph name="kgreenlandic" format="2">
  <advance width="974"/>
  <unicode hex="0138"/>
  <anchor x="624" y="1290" name="top"/>
  <anchor x="403" y="10" name="bottom"/>
  <anchor x="1073" y="1290" name="top0315"/>
  <outline>
    <contour>
      <point x="401" y="1082" type="line"/>
      <point x="225" y="1082" type="line"/>
      <point x="39" y="0" type="line"/>
      <point x="215" y="0" type="line"/>
    </contour>
    <contour>
      <point x="973" y="1080" type="line"/>
      <point x="759" y="1081" type="line"/>
      <point x="368" y="625" type="line"/>
      <point x="226" y="624" type="line"/>
      <point x="247" y="462" type="line"/>
      <point x="446" y="462" type="line"/>
    </contour>
    <contour>
      <point x="592" y="0" type="line"/>
      <point x="811" y="0" type="line"/>
      <point x="475" y="623" type="line"/>
      <point x="357" y="491" type="line"/>
    </contour>
  </outline>
</glyph>
<glyph name="Eng" format="2">
  <advance width="1184"/>
  <unicode hex="014A"/>
  <anchor x="783" y="1601" name="top"/>
  <anchor x="500" y="10" name="bottom"/>
  <anchor x="1339" y="1601" name="top0315"/>
  <outline>
    <contour>
      <point x="291" y="1456" type="line"/>
      <point x="41" y="0" type="line"/>
      <point x="224" y="0" type="line"/>
      <point x="475" y="1456" type="line"/>
    </contour>
    <contour>
      <point x="342" y="1344" type="line"/>
      <point x="764" y="0" type="line"/>
      <point x="895" y="112" type="line"/>
      <point x="472" y="1456" type="line"/>
    </contour>
    <contour>
      <point x="1012" y="1456" type="line"/>
      <point x="745" y="-84" type="line" smooth="yes"/>
      <point x="717" y="-163"/>
      <point x="679" y="-279"/>
      <point x="598" y="-279" type="curve" smooth="yes"/>
      <point x="591" y="-279"/>
      <point x="550" y="-277"/>
      <point x="523" y="-266" type="curve"/>
      <point x="505" y="-419" type="line"/>
      <point x="535" y="-430"/>
      <point x="567" y="-437"/>
      <point x="600" y="-437" type="curve" smooth="yes"/>
      <point x="796" y="-437"/>
      <point x="898" y="-264"/>
      <point x="930" y="-85" type="curve" smooth="yes"/>
      <point x="1196" y="1456" type="line"/>
    </contour>
  </outline>
</glyph>
<glyph name="OE" format="2">
  <advance width="1637"/>
  <unicode hex="0152"/>
  <anchor x="970" y="1603" name="top"/>
  <anchor x="688" y="0" name="bottom"/>
  <anchor x="1790" y="1600" name="top_dd"/>
  <anchor x="1443" y="-407" name="bottom_dd"/>
  <anchor x="1795" y="1603" name="top0315"/>
  <outline>
    <contour>
      <point x="707" y="1477" type="curve" smooth="yes"/>
      <point x="400" y="1473"/>
      <point x="205" y="1184"/>
      <point x="151" y="880" type="curve" smooth="yes"/>
      <point x="99" y="576" type="line" smooth="yes"/>
      <point x="52" y="286"/>
      <point x="154" y="-17"/>
      <point x="459" y="-21" type="curve" smooth="yes"/>
      <point x="533" y="-22"/>
      <point x="609" y="-11"/>
      <point x="689" y="0" type="curve"/>
      <point x="696" y="158" type="line"/>
      <point x="608" y="142"/>
      <point x="542" y="129"/>
      <point x="459" y="131" type="curve" smooth="yes"/>
      <point x="258" y="135"/>
      <point x="232" y="342"/>
      <point x="275" y="576" type="curve" smooth="yes"/>
      <point x="329" y="882" type="line" smooth="yes"/>
      <point x="380" y="1127"/>
      <point x="505" y="1321"/>
      <point x="707" y="1325" type="curve" smooth="yes"/>
      <point x="779" y="1327"/>
      <point x="855" y="1315"/>
      <point x="932" y="1298" type="curve"/>
      <point x="939" y="1456" type="line"/>
      <point x="859" y="1467"/>
      <point x="782" y="1478"/>
    </contour>
    <component base="E" xOffset="571"/>
  </outline>
</glyph>
<glyph name="oe" format="2">
  <advance width="1534"/>
  <unicode hex="0153"/>
  <anchor x="899" y="1290" name="top"/>
  <anchor x="675" y="-1" name="bottom"/>
  <anchor x="1687" y="1600" name="top_dd"/>
  <anchor x="1340" y="-407" name="bottom_dd"/>
  <anchor x="1634" y="1290" name="top0315"/>
  <outline>
    <contour>
      <point x="1023" y="-21" type="curve" smooth="yes"/>
      <point x="1162" y="-22"/>
      <point x="1279" y="41"/>
      <point x="1355" y="111" type="curve"/>
      <point x="1291" y="238" type="line"/>
      <point x="1208" y="172"/>
      <point x="1108" y="130"/>
      <point x="1022" y="131" type="curve" smooth="yes"/>
      <point x="835" y="133"/>
      <point x="845" y="353"/>
      <point x="880" y="520" type="curve" smooth="yes"/>
      <point x="891" y="564" type="line" smooth="yes"/>
      <point x="935" y="740"/>
      <point x="1036" y="951"/>
      <point x="1180" y="950" type="curve" smooth="yes"/>
      <point x="1320" y="950"/>
      <point x="1330" y="798"/>
      <point x="1294" y="675" type="curve" smooth="yes"/>
      <point x="1287" y="649" type="line"/>
      <point x="828" y="649" type="line"/>
      <point x="821" y="498" type="line"/>
      <point x="1456" y="498" type="line"/>
      <point x="1471" y="620" type="line" smooth="yes"/>
      <point x="1507" y="858"/>
      <point x="1452" y="1102"/>
      <point x="1179" y="1102" type="curve" smooth="yes"/>
      <point x="936" y="1103"/>
      <point x="760" y="822"/>
      <point x="714" y="564" type="curve" smooth="yes"/>
      <point x="704" y="520" type="line" smooth="yes"/>
      <point x="666" y="267"/>
      <point x="725" y="-19"/>
    </contour>
    <contour>
      <point x="85" y="529" type="line" smooth="yes"/>
      <point x="44" y="270"/>
      <point x="114" y="-21"/>
      <point x="391" y="-21" type="curve" smooth="yes"/>
      <point x="670" y="-21"/>
      <point x="826" y="259"/>
      <point x="875" y="529" type="curve" smooth="yes"/>
      <point x="882" y="552" type="line" smooth="yes"/>
      <point x="923" y="811"/>
      <point x="853" y="1102"/>
      <point x="575" y="1102" type="curve" smooth="yes"/>
      <point x="296" y="1102"/>
      <point x="141" y="822"/>
      <point x="92" y="552" type="curve" smooth="yes"/>
    </contour>
    <contour>
      <point x="270" y="552" type="line" smooth="yes"/>
      <point x="316" y="752"/>
      <point x="412" y="950"/>
      <point x="575" y="950" type="curve" smooth="yes"/>
      <point x="738" y="950"/>
      <point x="742" y="737"/>
      <point x="704" y="552" type="curve" smooth="yes"/>
      <point x="697" y="529" type="line" smooth="yes"/>
      <point x="650" y="332"/>
      <point x="556" y="131"/>
      <point x="391" y="131" type="curve" smooth="yes"/>
      <point x="226" y="131"/>
      <point x="224" y="345"/>
      <point x="263" y="529" type="curve" smooth="yes"/>
    </contour>
  </outline>
</glyph>
<glyph name="Tonesix" format="2">
  <advance width="1187"/>
  <unicode hex="0184"/>
  <outline>
    <contour>
      <point x="384" y="1455" type="line"/>
      <point x="332" y="1383"/>
      <point x="256" y="1325"/>
      <point x="209" y="1249" type="curve"/>
      <point x="207" y="1236"/>
      <point x="205" y="1186"/>
      <point x="203" y="1173" type="curve"/>
      <point x="230" y="1099"/>
      <point x="281" y="1042"/>
      <point x="304" y="967" type="curve"/>
      <point x="344" y="967" type="line"/>
      <point x="427" y="1456" type="line"/>
    </contour>
    <component base="uni042C" xOffset="92"/>
  </outline>
</glyph>
<glyph name="Chook" format="2">
  <advance width="1183"/>
  <unicode hex="0187"/>
  <outline>
    <contour>
      <point x="1108" y="989" type="line"/>
      <point x="1139" y="1161" type="line" smooth="yes"/>
      <point x="1164" y="1248"/>
      <point x="1231" y="1345"/>
      <point x="1333" y="1345" type="curve" smooth="yes"/>
      <point x="1340" y="1345"/>
      <point x="1352" y="1346"/>
      <point x="1377" y="1337" type="curve"/>
      <point x="1382" y="1491" type="line"/>
      <point x="1359" y="1499"/>
      <point x="1312" y="1508"/>
      <point x="1287" y="1508" type="curve" smooth="yes"/>
      <point x="1108" y="1508"/>
      <point x="1020" y="1327"/>
      <point x="991" y="1161" type="curve" smooth="yes"/>
      <point x="960" y="989" type="line"/>
    </contour>
    <component base="C"/>
  </outline>
</glyph>
<glyph name="deltaturn" format="2">
  <advance width="988"/>
  <unicode hex="018D"/>
  <outline>
    <contour>
      <point x="612" y="-376" type="line"/>
      <point x="619" y="-262" type="line"/>
      <point x="483" y="-100"/>
      <point x="472" y="-36"/>
      <point x="416" y="70" type="curve"/>
      <point x="414" y="75"/>
      <point x="392" y="69"/>
      <point x="432" y="71" type="curve" smooth="yes"/>
      <point x="664" y="108"/>
      <point x="826" y="306"/>
      <point x="878" y="548" type="curve" smooth="yes"/>
      <point x="885" y="571" type="line" smooth="yes"/>
      <point x="926" y="830"/>
      <point x="844" y="1101"/>
      <point x="575" y="1101" type="curve" smooth="yes"/>
      <point x="303" y="1101"/>
      <point x="144" y="840"/>
      <point x="95" y="571" type="curve" smooth="yes"/>
      <point x="88" y="548" type="line" smooth="yes"/>
      <point x="57" y="326"/>
      <point x="153" y="150"/>
      <point x="306" y="-34" type="curve" smooth="yes"/>
      <point x="280" y="-51"/>
      <point x="353" y="-155"/>
      <point x="383" y="-227" type="curve"/>
      <point x="37" y="-228" type="line"/>
      <point x="30" y="-376" type="line"/>
    </contour>
    <contour>
      <point x="700" y="548" type="line" smooth="yes"/>
      <point x="650" y="339"/>
      <point x="530" y="189"/>
      <point x="387" y="189" type="curve" smooth="yes"/>
      <point x="349" y="189"/>
      <point x="362" y="191"/>
      <point x="331" y="201" type="curve"/>
      <point x="210" y="328"/>
      <point x="241" y="464"/>
      <point x="265" y="548" type="curve" smooth="yes"/>
      <point x="272" y="571" type="line" smooth="yes"/>
      <point x="318" y="765"/>
      <point x="417" y="949"/>
      <point x="576" y="949" type="curve" smooth="yes"/>
      <point x="732" y="949"/>
      <point x="746" y="754"/>
      <point x="707" y="571" type="curve" smooth="yes"/>
    </contour>
  </outline>
</glyph>
<glyph name="Khook" format="2">
  <advance width="1078"/>
  <unicode hex="0198"/>
  <outline>
    <contour>
      <point x="482" y="1456" type="line"/>
      <point x="298" y="1456" type="line"/>
      <point x="48" y="0" type="line"/>
      <point x="231" y="0" type="line"/>
    </contour>
    <contour>
      <point x="755" y="0" type="line"/>
      <point x="970" y="0" type="line"/>
      <point x="593" y="863" type="line"/>
      <point x="478" y="711" type="line"/>
    </contour>
    <contour>
      <point x="792" y="1280" type="curve" smooth="yes"/>
      <point x="485" y="912" type="line"/>
      <point x="225" y="599" type="line"/>
      <point x="238" y="381" type="line"/>
      <point x="593" y="775" type="line"/>
      <point x="942" y="1194" type="line" smooth="yes"/>
      <point x="991" y="1254"/>
      <point x="1032" y="1302"/>
      <point x="1070" y="1301" type="curve" smooth="yes"/>
      <point x="1095" y="1301"/>
      <point x="1110" y="1295"/>
      <point x="1132" y="1265" type="curve"/>
      <point x="1196" y="1395" type="line"/>
      <point x="1152" y="1446"/>
      <point x="1114" y="1475"/>
      <point x="1050" y="1476" type="curve" smooth="yes"/>
      <point x="963" y="1477"/>
      <point x="884" y="1395"/>
    </contour>
  </outline>
</glyph>
<glyph name="khook" format="2">
  <advance width="894"/>
  <unicode hex="0199"/>
  <outline>
    <contour>
      <point x="408" y="1163" type="line"/>
      <point x="231" y="1163" type="line"/>
      <point x="25" y="0" type="line"/>
      <point x="202" y="0" type="line"/>
    </contour>
    <contour>
      <point x="921" y="1081" type="line"/>
      <point x="702" y="1082" type="line"/>
      <point x="382" y="728" type="line"/>
      <point x="198" y="502" type="line"/>
      <point x="205" y="303" type="line"/>
      <point x="464" y="576" type="line"/>
    </contour>
    <contour>
      <point x="571" y="0" type="line"/>
      <point x="774" y="0" type="line"/>
      <point x="479" y="681" type="line"/>
      <point x="383" y="518" type="line"/>
    </contour>
    <contour>
      <point x="400" y="1115" type="line"/>
      <point x="411" y="1255" type="line" smooth="yes"/>
      <point x="436" y="1324"/>
      <point x="494" y="1422"/>
      <point x="582" y="1422" type="curve" smooth="yes"/>
      <point x="588" y="1422"/>
      <point x="596" y="1423"/>
      <point x="618" y="1415" type="curve"/>
      <point x="624" y="1541" type="line"/>
      <point x="606" y="1549"/>
      <point x="565" y="1557"/>
      <point x="544" y="1557" type="curve" smooth="yes"/>
      <point x="389" y="1557"/>
      <point x="262" y="1391"/>
      <point x="233" y="1255" type="curve" smooth="yes"/>
      <point x="223" y="1115" type="line"/>
    </contour>
  </outline>
</glyph>
<glyph name="mcapturn" format="2">
  <advance width="1542"/>
  <unicode hex="019C"/>
  <outline>
    <contour>
      <point x="1151" y="216" type="line"/>
      <point x="1118" y="0" type="line"/>
      <point x="1285" y="0" type="line"/>
      <point x="1536" y="1456" type="line"/>
      <point x="1359" y="1456" type="line"/>
    </contour>
    <contour>
      <point x="1198" y="498" type="line"/>
      <point x="1151" y="273"/>
      <point x="1031" y="136"/>
      <point x="898" y="137" type="curve" smooth="yes"/>
      <point x="762" y="138"/>
      <point x="807" y="331"/>
      <point x="836" y="443" type="curve" smooth="yes"/>
      <point x="1007" y="1456" type="line"/>
      <point x="830" y="1456" type="line"/>
      <point x="659" y="445" type="line" smooth="yes"/>
      <point x="624" y="224"/>
      <point x="628" y="-20"/>
      <point x="868" y="-20" type="curve" smooth="yes"/>
      <point x="1102" y="-20"/>
      <point x="1232" y="209"/>
      <point x="1280" y="500" type="curve"/>
    </contour>
    <contour>
      <point x="670" y="498" type="line"/>
      <point x="623" y="273"/>
      <point x="503" y="136"/>
      <point x="369" y="137" type="curve" smooth="yes"/>
      <point x="234" y="138"/>
      <point x="278" y="331"/>
      <point x="307" y="443" type="curve" smooth="yes"/>
      <point x="478" y="1456" type="line"/>
      <point x="302" y="1456" type="line"/>
      <point x="131" y="445" type="line" smooth="yes"/>
      <point x="96" y="226"/>
      <point x="97" y="-20"/>
      <point x="340" y="-20" type="curve" smooth="yes"/>
      <point x="573" y="-20"/>
      <point x="704" y="209"/>
      <point x="752" y="500" type="curve"/>
    </contour>
  </outline>
</glyph>
<glyph name="OI" format="2">
  <advance width="1472"/>
  <unicode hex="01A2"/>
  <outline>
    <contour>
      <point x="1074" y="738" type="line"/>
      <point x="899" y="738" type="line"/>
      <point x="780" y="245" type="line"/>
      <point x="678" y="149"/>
      <point x="598" y="137"/>
      <point x="517" y="137" type="curve" smooth="yes"/>
      <point x="267" y="138"/>
      <point x="249" y="414"/>
      <point x="296" y="672" type="curve" smooth="yes"/>
      <point x="327" y="774" type="line"/>
      <point x="146" y="772" type="line"/>
      <point x="115" y="672" type="line" smooth="yes"/>
      <point x="65" y="293"/>
      <point x="187" y="-19"/>
      <point x="509" y="-20" type="curve" smooth="yes"/>
      <point x="678" y="-20"/>
      <point x="835" y="44"/>
      <point x="955" y="193" type="curve"/>
    </contour>
    <contour>
      <point x="1150" y="1263" type="line"/>
      <point x="1059" y="1418"/>
      <point x="911" y="1476"/>
      <point x="759" y="1476" type="curve" smooth="yes"/>
      <point x="433" y="1475"/>
      <point x="210" y="1166"/>
      <point x="152" y="784" type="curve" smooth="yes"/>
      <point x="123" y="693" type="line"/>
      <point x="303" y="691" type="line"/>
      <point x="334" y="784" type="line" smooth="yes"/>
      <point x="389" y="1078"/>
      <point x="539" y="1318"/>
      <point x="759" y="1319" type="curve" smooth="yes"/>
      <point x="821" y="1319"/>
      <point x="913" y="1318"/>
      <point x="973" y="1211" type="curve"/>
      <point x="855" y="699" type="line"/>
      <point x="1030" y="699" type="line"/>
    </contour>
    <contour>
      <point x="1465" y="1456" type="line"/>
      <point x="1327" y="1455" type="line"/>
      <point x="1072" y="1341" type="line"/>
      <point x="1062" y="1181" type="line"/>
      <point x="1278" y="1265" type="line"/>
      <point x="967" y="-416" type="line"/>
      <point x="1143" y="-416" type="line"/>
    </contour>
  </outline>
</glyph>
<glyph name="YR" format="2">
  <advance width="1188"/>
  <unicode hex="01A6"/>
  <outline>
    <contour>
      <point x="292" y="1361" type="line"/>
      <point x="476" y="1361" type="line"/>
      <point x="497" y="1558" type="line"/>
      <point x="314" y="1558" type="line"/>
    </contour>
    <contour>
      <point x="300" y="1456" type="line"/>
      <point x="48" y="0" type="line"/>
      <point x="232" y="0" type="line"/>
      <point x="474" y="1298" type="line"/>
      <point x="690" y="1298" type="line" smooth="yes"/>
      <point x="832" y="1295"/>
      <point x="902" y="1192"/>
      <point x="858" y="1018" type="curve" smooth="yes"/>
      <point x="819" y="840"/>
      <point x="680" y="751"/>
      <point x="551" y="747" type="curve" smooth="yes"/>
      <point x="308" y="747" type="line"/>
      <point x="302" y="590" type="line"/>
      <point x="654" y="590" type="line"/>
      <point x="704" y="611" type="line"/>
      <point x="894" y="693"/>
      <point x="1006" y="814"/>
      <point x="1042" y="1018" type="curve" smooth="yes"/>
      <point x="1086" y="1298"/>
      <point x="944" y="1453"/>
      <point x="690" y="1456" type="curve" smooth="yes"/>
    </contour>
    <contour>
      <point x="814" y="-360" type="line"/>
      <point x="1010" y="-360" type="line"/>
      <point x="1011" y="-347" type="line"/>
      <point x="739" y="661" type="line"/>
      <point x="551" y="662" type="line"/>
    </contour>
  </outline>
</glyph>
<glyph name="Tonetwo" format="2">
  <advance width="1025"/>
  <unicode hex="01A7"/>
  <outline>
    <contour>
      <point x="222" y="368" type="curve" smooth="yes"/>
      <point x="265" y="558"/>
      <point x="457" y="604"/>
      <point x="551" y="650" type="curve" smooth="yes"/>
      <point x="714" y="713"/>
      <point x="956" y="826"/>
      <point x="997" y="1079" type="curve" smooth="yes"/>
      <point x="1036" y="1332"/>
      <point x="839" y="1476"/>
      <point x="649" y="1476" type="curve" smooth="yes"/>
      <point x="386" y="1475"/>
      <point x="209" y="1269"/>
      <point x="159" y="1036" type="curve"/>
      <point x="342" y="1036" type="line"/>
      <point x="393" y="1214"/>
      <point x="502" y="1318"/>
      <point x="650" y="1318" type="curve" smooth="yes"/>
      <point x="711" y="1318"/>
      <point x="852" y="1272"/>
      <point x="813" y="1082" type="curve" smooth="yes"/>
      <point x="771" y="887"/>
      <point x="520" y="845"/>
      <point x="490" y="818" type="curve" smooth="yes"/>
      <point x="265" y="739"/>
      <point x="80" y="618"/>
      <point x="37" y="370" type="curve" smooth="yes"/>
      <point x="-3" y="116"/>
      <point x="182" y="-19"/>
      <point x="393" y="-20" type="curve" smooth="yes"/>
      <point x="653" y="-21"/>
      <point x="855" y="169"/>
      <point x="911" y="421" type="curve"/>
      <point x="727" y="422" type="line"/>
      <point x="670" y="260"/>
      <point x="583" y="136"/>
      <point x="392" y="137" type="curve" smooth="yes"/>
      <point x="303" y="138"/>
      <point x="181" y="193"/>
    </contour>
  </outline>
</glyph>
<glyph name="tonetwo" format="2">
  <advance width="903"/>
  <unicode hex="01A8"/>
  <outline>
    <contour>
      <point x="215" y="287" type="curve" smooth="yes"/>
      <point x="246" y="438"/>
      <point x="403" y="455"/>
      <point x="452" y="474" type="curve" smooth="yes"/>
      <point x="583" y="512"/>
      <point x="789" y="582"/>
      <point x="819" y="786" type="curve" smooth="yes"/>
      <point x="848" y="992"/>
      <point x="668" y="1102"/>
      <point x="528" y="1102" type="curve" smooth="yes"/>
      <point x="350" y="1102"/>
      <point x="181" y="973"/>
      <point x="140" y="765" type="curve"/>
      <point x="318" y="765" type="line"/>
      <point x="359" y="888"/>
      <point x="468" y="950"/>
      <point x="528" y="950" type="curve" smooth="yes"/>
      <point x="557" y="950"/>
      <point x="671" y="924"/>
      <point x="642" y="791" type="curve" smooth="yes"/>
      <point x="611" y="650"/>
      <point x="432" y="641"/>
      <point x="407" y="624" type="curve" smooth="yes"/>
      <point x="264" y="580"/>
      <point x="69" y="511"/>
      <point x="38" y="301" type="curve" smooth="yes"/>
      <point x="8" y="81"/>
      <point x="190" y="-20"/>
      <point x="340" y="-20" type="curve" smooth="yes"/>
      <point x="515" y="-20"/>
      <point x="713" y="109"/>
      <point x="752" y="333" type="curve"/>
      <point x="576" y="333" type="line"/>
      <point x="529" y="197"/>
      <point x="443" y="130"/>
      <point x="340" y="132" type="curve" smooth="yes"/>
      <point x="304" y="133"/>
      <point x="185" y="150"/>
    </contour>
  </outline>
</glyph>
<glyph name="tpalatalhook" format="2">
  <advance width="586"/>
  <unicode hex="01AB"/>
  <outline>
    <contour>
      <point x="285" y="78" type="line"/>
      <point x="271" y="-64" type="line" smooth="yes"/>
      <point x="247" y="-133"/>
      <point x="189" y="-231"/>
      <point x="100" y="-231" type="curve" smooth="yes"/>
      <point x="95" y="-231"/>
      <point x="86" y="-232"/>
      <point x="65" y="-224" type="curve"/>
      <point x="59" y="-350" type="line"/>
      <point x="77" y="-358"/>
      <point x="117" y="-366"/>
      <point x="139" y="-366" type="curve" smooth="yes"/>
      <point x="294" y="-366"/>
      <point x="363" y="-200"/>
      <point x="392" y="-64" type="curve" smooth="yes"/>
      <point x="405" y="1" type="line"/>
    </contour>
    <component base="t"/>
  </outline>
</glyph>
<glyph name="Thook" format="2">
  <advance width="1090"/>
  <unicode hex="01AC"/>
  <outline>
    <contour>
      <point x="816" y="1456" type="line"/>
      <point x="634" y="1456" type="line"/>
      <point x="383" y="0" type="line"/>
      <point x="565" y="0" type="line"/>
    </contour>
    <contour>
      <point x="1182" y="1456" type="line"/>
      <point x="509" y="1456" type="line"/>
      <point x="502" y="1298" type="line"/>
      <point x="1175" y="1298" type="line"/>
    </contour>
    <contour>
      <point x="619" y="1298" type="line"/>
      <point x="626" y="1456" type="line"/>
      <point x="473" y="1456" type="line" smooth="yes"/>
      <point x="324" y="1453"/>
      <point x="175" y="1380"/>
      <point x="144" y="1173" type="curve" smooth="yes"/>
      <point x="138" y="1142"/>
      <point x="139" y="1087"/>
      <point x="140" y="1057" type="curve"/>
      <point x="281" y="1057" type="line"/>
      <point x="280" y="1090"/>
      <point x="287" y="1110"/>
      <point x="293" y="1125" type="curve" smooth="yes"/>
      <point x="322" y="1251"/>
      <point x="400" y="1295"/>
      <point x="469" y="1298" type="curve" smooth="yes"/>
    </contour>
  </outline>
</glyph>
<glyph name="Upsilon2" format="2">
  <advance width="1142"/>
  <unicode hex="01B1"/>
  <outline>
    <contour>
      <point x="321" y="729" type="line" smooth="yes"/>
      <point x="374" y="954"/>
      <point x="412" y="1205"/>
      <point x="660" y="1292" type="curve"/>
      <point x="668" y="1433" type="line"/>
      <point x="307" y="1360"/>
      <point x="188" y="948"/>
      <point x="133" y="729" type="curve" smooth="yes"/>
      <point x="113" y="615" type="line" smooth="yes"/>
      <point x="66" y="326"/>
      <point x="150" y="-21"/>
      <point x="471" y="-21" type="curve" smooth="yes"/>
      <point x="790" y="-21"/>
      <point x="979" y="308"/>
      <point x="1033" y="615" type="curve" smooth="yes"/>
      <point x="1053" y="729" type="line" smooth="yes"/>
      <point x="1099" y="922"/>
      <point x="1090" y="1339"/>
      <point x="756" y="1433" type="curve"/>
      <point x="748" y="1293" type="line"/>
      <point x="977" y="1207"/>
      <point x="908" y="923"/>
      <point x="866" y="729" type="curve" smooth="yes"/>
      <point x="845" y="613" type="line" smooth="yes"/>
      <point x="794" y="349"/>
      <point x="669" y="136"/>
      <point x="470" y="136" type="curve" smooth="yes"/>
      <point x="266" y="136"/>
      <point x="257" y="370"/>
      <point x="300" y="613" type="curve" smooth="yes"/>
    </contour>
    <contour>
      <point x="672" y="1456" type="line"/>
      <point x="270" y="1456" type="line"/>
      <point x="263" y="1298" type="line"/>
      <point x="665" y="1298" type="line"/>
    </contour>
    <contour>
      <point x="1170" y="1456" type="line"/>
      <point x="760" y="1456" type="line"/>
      <point x="753" y="1298" type="line"/>
      <point x="1163" y="1298" type="line"/>
    </contour>
  </outline>
</glyph>
<glyph name="Vcursive" format="2">
  <advance width="1113"/>
  <unicode hex="01B2"/>
  <outline>
    <contour>
      <point x="452" y="-20" type="curve" smooth="yes"/>
      <point x="703" y="-20"/>
      <point x="916" y="183"/>
      <point x="968" y="471" type="curve" smooth="yes"/>
      <point x="1081" y="1128" type="line" smooth="yes"/>
      <point x="1106" y="1283"/>
      <point x="1051" y="1476"/>
      <point x="868" y="1476" type="curve" smooth="yes"/>
      <point x="844" y="1476"/>
      <point x="796" y="1467"/>
      <point x="774" y="1459" type="curve"/>
      <point x="766" y="1307" type="line"/>
      <point x="794" y="1315"/>
      <point x="809" y="1316"/>
      <point x="820" y="1316" type="curve" smooth="yes"/>
      <point x="929" y="1316"/>
      <point x="918" y="1195"/>
      <point x="897" y="1128" type="curve" smooth="yes"/>
      <point x="782" y="471" type="line" smooth="yes"/>
      <point x="735" y="272"/>
      <point x="622" y="137"/>
      <point x="452" y="137" type="curve" smooth="yes"/>
      <point x="287" y="137"/>
      <point x="241" y="279"/>
      <point x="282" y="471" type="curve" smooth="yes"/>
      <point x="452" y="1456" type="line"/>
      <point x="271" y="1456" type="line"/>
      <point x="100" y="471" type="line" smooth="yes"/>
      <point x="56" y="188"/>
      <point x="194" y="-20"/>
    </contour>
  </outline>
</glyph>
<glyph name="yhook" format="2">
  <advance width="1025"/>
  <unicode hex="01B4"/>
  <outline>
    <contour>
      <point x="284" y="121" type="line"/>
      <point x="176" y="-94" type="line" smooth="yes"/>
      <point x="123" y="-209"/>
      <point x="54" y="-275"/>
      <point x="-53" y="-275" type="curve" smooth="yes"/>
      <point x="-68" y="-276"/>
      <point x="-69" y="-273"/>
      <point x="-85" y="-271" type="curve"/>
      <point x="-92" y="-421" type="line"/>
      <point x="-66" y="-425"/>
      <point x="-29" y="-437"/>
      <point x="0" y="-437" type="curve" smooth="yes"/>
      <point x="129" y="-436"/>
      <point x="245" y="-312"/>
      <point x="310" y="-167" type="curve" smooth="yes"/>
      <point x="823" y="983" type="line" smooth="yes"/>
      <point x="878" y="1125"/>
      <point x="916" y="1226"/>
      <point x="1005" y="1227" type="curve" smooth="yes"/>
      <point x="1030" y="1228"/>
      <point x="1059" y="1212"/>
      <point x="1088" y="1188" type="curve"/>
      <point x="1132" y="1302" type="line"/>
      <point x="1095" y="1342"/>
      <point x="1035" y="1373"/>
      <point x="981" y="1372" type="curve" smooth="yes"/>
      <point x="775" y="1371"/>
      <point x="717" y="1165"/>
      <point x="671" y="1047" type="curve" smooth="yes"/>
    </contour>
    <contour>
      <point x="308" y="1083" type="line"/>
      <point x="117" y="1083" type="line"/>
      <point x="242" y="-21" type="line"/>
      <point x="370" y="46" type="line"/>
      <point x="328" y="359" type="line"/>
    </contour>
  </outline>
</glyph>
<glyph name="zbar" format="2">
  <advance width="888"/>
  <unicode hex="01B6"/>
  <anchor x="560" y="1290" name="top"/>
  <anchor x="343" y="10" name="bottom"/>
  <anchor x="988" y="1290" name="top0315"/>
  <outline>
    <contour>
      <point x="736" y="621" type="line"/>
      <point x="133" y="621" type="line"/>
      <point x="126" y="470" type="line"/>
      <point x="729" y="470" type="line"/>
    </contour>
    <component base="z" xOffset="10"/>
  </outline>
</glyph>
<glyph name="uni01B7" format="2">
  <advance width="1117"/>
  <unicode hex="01B7"/>
  <outline>
    <contour>
      <point x="-15" y="64" type="line"/>
      <point x="-33" y="-176"/>
      <point x="62" y="-418"/>
      <point x="361" y="-418" type="curve" smooth="yes"/>
      <point x="674" y="-417"/>
      <point x="877" y="-183"/>
      <point x="930" y="161" type="curve" smooth="yes"/>
      <point x="982" y="494"/>
      <point x="874" y="736"/>
      <point x="541" y="740" type="curve" smooth="yes"/>
      <point x="379" y="740" type="line"/>
      <point x="371" y="589" type="line"/>
      <point x="541" y="588" type="line" smooth="yes"/>
      <point x="787" y="584"/>
      <point x="796" y="393"/>
      <point x="747" y="161" type="curve" smooth="yes"/>
      <point x="695" y="-57"/>
      <point x="606" y="-260"/>
      <point x="360" y="-260" type="curve" smooth="yes"/>
      <point x="163" y="-261"/>
      <point x="152" y="-113"/>
      <point x="168" y="64" type="curve"/>
    </contour>
    <contour>
      <point x="1086" y="1318" type="line"/>
      <point x="1092" y="1455" type="line"/>
      <point x="1010" y="1455" type="line"/>
      <point x="362" y="733" type="line"/>
      <point x="355" y="590" type="line"/>
      <point x="436" y="590" type="line"/>
    </contour>
    <contour>
      <point x="1016" y="1456" type="line"/>
      <point x="264" y="1456" type="line"/>
      <point x="257" y="1298" type="line"/>
      <point x="1009" y="1298" type="line"/>
    </contour>
  </outline>
</glyph>
<glyph name="uni01B8" format="2">
  <advance width="1117"/>
  <unicode hex="01B8"/>
  <outline>
    <contour>
      <point x="751" y="63" type="line"/>
      <point x="674" y="-110"/>
      <point x="615" y="-261"/>
      <point x="408" y="-260" type="curve" smooth="yes"/>
      <point x="160" y="-260"/>
      <point x="171" y="-41"/>
      <point x="220" y="161" type="curve" smooth="yes"/>
      <point x="272" y="408"/>
      <point x="377" y="584"/>
      <point x="624" y="589" type="curve" smooth="yes"/>
      <point x="786" y="589" type="line"/>
      <point x="793" y="740" type="line"/>
      <point x="624" y="740" type="line" smooth="yes"/>
      <point x="290" y="736"/>
      <point x="89" y="508"/>
      <point x="36" y="161" type="curve" smooth="yes"/>
      <point x="-15" y="-169"/>
      <point x="94" y="-417"/>
      <point x="408" y="-418" type="curve" smooth="yes"/>
      <point x="715" y="-418"/>
      <point x="861" y="-174"/>
      <point x="936" y="63" type="curve"/>
    </contour>
    <contour>
      <point x="724" y="588" type="line"/>
      <point x="802" y="588" type="line"/>
      <point x="809" y="731" type="line"/>
      <point x="401" y="1456" type="line"/>
      <point x="321" y="1456" type="line"/>
      <point x="315" y="1319" type="line"/>
    </contour>
    <contour>
      <point x="390" y="1298" type="line"/>
      <point x="1141" y="1298" type="line"/>
      <point x="1148" y="1456" type="line"/>
      <point x="397" y="1456" type="line"/>
    </contour>
  </outline>
</glyph>
<glyph name="uni01B9" format="2">
  <advance width="974"/>
  <unicode hex="01B9"/>
  <outline>
    <contour>
      <point x="229" y="1082" type="line"/>
      <point x="218" y="965" type="line"/>
      <point x="515" y="361" type="line"/>
      <point x="627" y="361" type="line"/>
      <point x="630" y="476" type="line"/>
      <point x="445" y="929" type="line"/>
      <point x="927" y="930" type="line"/>
      <point x="935" y="1082" type="line"/>
    </contour>
    <contour>
      <point x="492" y="472" type="line" smooth="yes"/>
      <point x="235" y="469"/>
      <point x="41" y="305"/>
      <point x="-3" y="31" type="curve" smooth="yes"/>
      <point x="-42" y="-222"/>
      <point x="107" y="-395"/>
      <point x="339" y="-395" type="curve" smooth="yes"/>
      <point x="569" y="-395"/>
      <point x="743" y="-225"/>
      <point x="792" y="28" type="curve"/>
      <point x="615" y="29" type="line"/>
      <point x="568" y="-121"/>
      <point x="458" y="-243"/>
      <point x="339" y="-243" type="curve" smooth="yes"/>
      <point x="215" y="-244"/>
      <point x="134" y="-127"/>
      <point x="173" y="27" type="curve" smooth="yes"/>
      <point x="218" y="206"/>
      <point x="320" y="322"/>
      <point x="495" y="326" type="curve" smooth="yes"/>
      <point x="620" y="326" type="line"/>
      <point x="627" y="472" type="line"/>
    </contour>
  </outline>
</glyph>
<glyph name="uni01BA" format="2">
  <advance width="942"/>
  <unicode hex="01BA"/>
  <outline>
    <contour>
      <point x="209" y="1082" type="line"/>
      <point x="201" y="931" type="line"/>
      <point x="665" y="930" type="line"/>
      <point x="292" y="625" type="line"/>
      <point x="285" y="507" type="line"/>
      <point x="427" y="507" type="line"/>
      <point x="918" y="966" type="line"/>
      <point x="924" y="1081" type="line"/>
    </contour>
    <contour>
      <point x="125" y="-130" type="curve" smooth="yes"/>
      <point x="157" y="22"/>
      <point x="322" y="32"/>
      <point x="358" y="51" type="curve" smooth="yes"/>
      <point x="489" y="93"/>
      <point x="698" y="154"/>
      <point x="729" y="369" type="curve" smooth="yes"/>
      <point x="758" y="576"/>
      <point x="580" y="655"/>
      <point x="439" y="657" type="curve" smooth="yes"/>
      <point x="391" y="657" type="line"/>
      <point x="384" y="506" type="line"/>
      <point x="438" y="506" type="line" smooth="yes"/>
      <point x="465" y="503"/>
      <point x="583" y="509"/>
      <point x="553" y="375" type="curve" smooth="yes"/>
      <point x="521" y="240"/>
      <point x="371" y="222"/>
      <point x="331" y="205" type="curve" smooth="yes"/>
      <point x="171" y="163"/>
      <point x="-21" y="84"/>
      <point x="-52" y="-116" type="curve" smooth="yes"/>
      <point x="-82" y="-336"/>
      <point x="100" y="-437"/>
      <point x="251" y="-437" type="curve" smooth="yes"/>
      <point x="426" y="-437"/>
      <point x="623" y="-308"/>
      <point x="663" y="-84" type="curve"/>
      <point x="485" y="-84" type="line"/>
      <point x="439" y="-220"/>
      <point x="353" y="-287"/>
      <point x="250" y="-285" type="curve" smooth="yes"/>
      <point x="215" y="-284"/>
      <point x="95" y="-266"/>
    </contour>
  </outline>
</glyph>
<glyph name="wynn" format="2">
  <advance width="977"/>
  <unicode hex="01BF"/>
  <outline>
    <contour>
      <point x="351" y="874" type="line"/>
      <point x="370" y="1082" type="line"/>
      <point x="211" y="1082" type="line"/>
      <point x="-47" y="-416" type="line"/>
      <point x="129" y="-416" type="line"/>
    </contour>
    <contour>
      <point x="279" y="659" type="line"/>
      <point x="352" y="860"/>
      <point x="482" y="945"/>
      <point x="568" y="946" type="curve" smooth="yes"/>
      <point x="743" y="946"/>
      <point x="746" y="714"/>
      <point x="711" y="555" type="curve" smooth="yes"/>
      <point x="708" y="534" type="line" smooth="yes"/>
      <point x="632" y="172"/>
      <point x="334" y="52"/>
      <point x="141" y="-19" type="curve"/>
      <point x="133" y="-170" type="line"/>
      <point x="455" y="-55"/>
      <point x="808" y="77"/>
      <point x="885" y="534" type="curve" smooth="yes"/>
      <point x="888" y="555" type="line" smooth="yes"/>
      <point x="926" y="811"/>
      <point x="879" y="1102"/>
      <point x="622" y="1102" type="curve" smooth="yes"/>
      <point x="397" y="1101"/>
      <point x="258" y="900"/>
      <point x="199" y="587" type="curve"/>
    </contour>
  </outline>
</glyph>
<glyph name="uni01C6" format="2">
  <advance width="1713"/>
  <unicode hex="01C6"/>
  <outline>
    <contour>
      <point x="604" y="210" type="line"/>
      <point x="593" y="0" type="line"/>
      <point x="746" y="0" type="line"/>
      <point x="1015" y="1560" type="line"/>
      <point x="837" y="1560" type="line"/>
    </contour>
    <contour>
      <point x="79" y="529" type="line" smooth="yes"/>
      <point x="42" y="310"/>
      <point x="81" y="-20"/>
      <point x="339" y="-20" type="curve" smooth="yes"/>
      <point x="523" y="-20"/>
      <point x="706" y="152"/>
      <point x="749" y="493" type="curve"/>
      <point x="824" y="586" type="line"/>
      <point x="856" y="904"/>
      <point x="719" y="1102"/>
      <point x="524" y="1102" type="curve" smooth="yes"/>
      <point x="266" y="1102"/>
      <point x="127" y="794"/>
      <point x="82" y="550" type="curve" smooth="yes"/>
    </contour>
    <contour>
      <point x="260" y="550" type="line" smooth="yes"/>
      <point x="302" y="702"/>
      <point x="380" y="946"/>
      <point x="571" y="946" type="curve" smooth="yes"/>
      <point x="631" y="945"/>
      <point x="752" y="863"/>
      <point x="736" y="659" type="curve"/>
      <point x="668" y="418" type="line"/>
      <point x="614" y="250"/>
      <point x="484" y="136"/>
      <point x="384" y="137" type="curve" smooth="yes"/>
      <point x="189" y="138"/>
      <point x="223" y="402"/>
      <point x="257" y="529" type="curve" smooth="yes"/>
    </contour>
    <contour>
      <point x="1539" y="151" type="line"/>
      <point x="907" y="151" type="line"/>
      <point x="900" y="0" type="line"/>
      <point x="1532" y="0" type="line"/>
    </contour>
    <contour>
      <point x="1692" y="951" type="line"/>
      <point x="1700" y="1081" type="line"/>
      <point x="1586" y="1081" type="line"/>
      <point x="839" y="137" type="line"/>
      <point x="832" y="0" type="line"/>
      <point x="940" y="0" type="line"/>
    </contour>
    <contour>
      <point x="1622" y="1082" type="line"/>
      <point x="1020" y="1082" type="line"/>
      <point x="1013" y="930" type="line"/>
      <point x="1614" y="930" type="line"/>
    </contour>
    <contour>
      <point x="1316" y="1515" type="line"/>
      <point x="1172" y="1515" type="line"/>
      <point x="1170" y="1494" type="line"/>
      <point x="1348" y="1252" type="line"/>
      <point x="1449" y="1252" type="line"/>
      <point x="1695" y="1496" type="line"/>
      <point x="1697" y="1514" type="line"/>
      <point x="1545" y="1514" type="line"/>
      <point x="1397" y="1366" type="line"/>
    </contour>
  </outline>
</glyph>
<glyph name="gbar" format="2">
  <advance width="976"/>
  <unicode hex="01E5"/>
  <anchor x="300" y="-484" name="markbottom"/>
  <anchor x="600" y="1290" name="top"/>
  <anchor x="300" y="-484" name="bottom"/>
  <anchor x="352" y="-116" name="parenthesses.w3"/>
  <anchor x="1076" y="1290" name="top0315"/>
  <outline>
    <contour>
      <point x="818" y="-54" type="line"/>
      <point x="-80" y="-54" type="line"/>
      <point x="-88" y="-169" type="line"/>
      <point x="810" y="-169" type="line"/>
    </contour>
    <contour>
      <point x="787" y="1082" type="line"/>
      <point x="729" y="844" type="line"/>
      <point x="585" y="-50" type="line" smooth="yes"/>
      <point x="545" y="-213"/>
      <point x="431" y="-340"/>
      <point x="294" y="-340" type="curve" smooth="yes"/>
      <point x="227" y="-340"/>
      <point x="150" y="-299"/>
      <point x="93" y="-193" type="curve"/>
      <point x="-1" y="-302" type="line"/>
      <point x="77" y="-452"/>
      <point x="241" y="-491"/>
      <point x="307" y="-491" type="curve" smooth="yes"/>
      <point x="546" y="-491"/>
      <point x="719" y="-294"/>
      <point x="763" y="-41" type="curve" smooth="yes"/>
      <point x="946" y="1082" type="line"/>
    </contour>
    <contour>
      <point x="94" y="529" type="line" smooth="yes"/>
      <point x="57" y="310"/>
      <point x="91" y="-20"/>
      <point x="352" y="-20" type="curve" smooth="yes"/>
      <point x="538" y="-20"/>
      <point x="720" y="152"/>
      <point x="764" y="493" type="curve"/>
      <point x="839" y="586" type="line"/>
      <point x="870" y="904"/>
      <point x="734" y="1102"/>
      <point x="538" y="1102" type="curve" smooth="yes"/>
      <point x="274" y="1102"/>
      <point x="143" y="794"/>
      <point x="98" y="550" type="curve" smooth="yes"/>
    </contour>
    <contour>
      <point x="274" y="550" type="line" smooth="yes"/>
      <point x="316" y="702"/>
      <point x="394" y="946"/>
      <point x="585" y="946" type="curve" smooth="yes"/>
      <point x="645" y="945"/>
      <point x="766" y="862"/>
      <point x="749" y="659" type="curve"/>
      <point x="681" y="418" type="line"/>
      <point x="629" y="251"/>
      <point x="499" y="137"/>
      <point x="397" y="137" type="curve" smooth="yes"/>
      <point x="203" y="138"/>
      <point x="237" y="402"/>
      <point x="271" y="529" type="curve" smooth="yes"/>
    </contour>
  </outline>
</glyph>
<glyph name="uni021C" format="2">
  <advance width="1035"/>
  <unicode hex="021C"/>
  <outline>
    <contour>
      <point x="129" y="330" type="line"/>
      <point x="281" y="346"/>
      <point x="927" y="631"/>
      <point x="994" y="1061" type="curve" smooth="yes"/>
      <point x="1038" y="1334"/>
      <point x="862" y="1477"/>
      <point x="637" y="1476" type="curve" smooth="yes"/>
      <point x="422" y="1475"/>
      <point x="222" y="1325"/>
      <point x="173" y="1074" type="curve"/>
      <point x="356" y="1074" type="line"/>
      <point x="406" y="1226"/>
      <point x="527" y="1318"/>
      <point x="638" y="1319" type="curve" smooth="yes"/>
      <point x="738" y="1319"/>
      <point x="855" y="1231"/>
      <point x="810" y="1065" type="curve" smooth="yes"/>
      <point x="738" y="702"/>
      <point x="324" y="534"/>
      <point x="136" y="474" type="curve"/>
    </contour>
    <contour>
      <point x="643" y="637" type="line"/>
      <point x="791" y="586"/>
      <point x="732" y="433"/>
      <point x="703" y="329" type="curve" smooth="yes"/>
      <point x="625" y="-78"/>
      <point x="243" y="-220"/>
      <point x="-8" y="-280" type="curve"/>
      <point x="-16" y="-436" type="line"/>
      <point x="315" y="-369"/>
      <point x="809" y="-188"/>
      <point x="887" y="326" type="curve" smooth="yes"/>
      <point x="916" y="485"/>
      <point x="907" y="678"/>
      <point x="736" y="742" type="curve"/>
    </contour>
  </outline>
</glyph>
<glyph name="uni0222" format="2">
  <advance width="1139"/>
  <unicode hex="0222"/>
  <outline>
    <contour>
      <point x="598" y="878" type="line" smooth="yes"/>
      <point x="378" y="875"/>
      <point x="127" y="738"/>
      <point x="79" y="432" type="curve" smooth="yes"/>
      <point x="32" y="114"/>
      <point x="252" y="-18"/>
      <point x="459" y="-21" type="curve" smooth="yes"/>
      <point x="475" y="-21" type="line" smooth="yes"/>
      <point x="696" y="-18"/>
      <point x="948" y="115"/>
      <point x="996" y="433" type="curve" smooth="yes"/>
      <point x="1044" y="740"/>
      <point x="819" y="876"/>
      <point x="614" y="878" type="curve" smooth="yes"/>
    </contour>
    <contour>
      <point x="616" y="729" type="line" smooth="yes"/>
      <point x="759" y="727"/>
      <point x="862" y="633"/>
      <point x="814" y="433" type="curve" smooth="yes"/>
      <point x="765" y="234"/>
      <point x="632" y="145"/>
      <point x="474" y="143" type="curve" smooth="yes"/>
      <point x="458" y="143" type="line" smooth="yes"/>
      <point x="309" y="145"/>
      <point x="213" y="234"/>
      <point x="261" y="432" type="curve" smooth="yes"/>
      <point x="310" y="629"/>
      <point x="436" y="726"/>
      <point x="601" y="729" type="curve" smooth="yes"/>
    </contour>
    <contour>
      <point x="591" y="892" type="line" smooth="yes"/>
      <point x="521" y="894"/>
      <point x="340" y="919"/>
      <point x="389" y="1117" type="curve" smooth="yes"/>
      <point x="422" y="1253"/>
      <point x="505" y="1294"/>
      <point x="581" y="1327" type="curve"/>
      <point x="589" y="1476" type="line"/>
      <point x="408" y="1461"/>
      <point x="240" y="1354"/>
      <point x="207" y="1117" type="curve" smooth="yes"/>
      <point x="161" y="807"/>
      <point x="451" y="745"/>
      <point x="593" y="744" type="curve" smooth="yes"/>
      <point x="628" y="744" type="line" smooth="yes"/>
      <point x="792" y="745"/>
      <point x="1078" y="812"/>
      <point x="1123" y="1117" type="curve" smooth="yes"/>
      <point x="1155" y="1345"/>
      <point x="1022" y="1461"/>
      <point x="852" y="1476" type="curve"/>
      <point x="844" y="1327" type="line"/>
      <point x="915" y="1295"/>
      <point x="974" y="1255"/>
      <point x="941" y="1117" type="curve" smooth="yes"/>
      <point x="894" y="925"/>
      <point x="718" y="894"/>
      <point x="626" y="892" type="curve" smooth="yes"/>
    </contour>
  </outline>
</glyph>
<glyph name="uni0223" format="2">
  <advance width="1103"/>
  <unicode hex="0223"/>
  <outline>
    <contour>
      <point x="579" y="874" type="line" smooth="yes"/>
      <point x="361" y="872"/>
      <point x="111" y="741"/>
      <point x="63" y="431" type="curve" smooth="yes"/>
      <point x="16" y="110"/>
      <point x="238" y="-18"/>
      <point x="442" y="-21" type="curve" smooth="yes"/>
      <point x="457" y="-21" type="line" smooth="yes"/>
      <point x="675" y="-18"/>
      <point x="926" y="112"/>
      <point x="974" y="433" type="curve" smooth="yes"/>
      <point x="1021" y="743"/>
      <point x="794" y="872"/>
      <point x="594" y="874" type="curve" smooth="yes"/>
    </contour>
    <contour>
      <point x="596" y="733" type="line" smooth="yes"/>
      <point x="734" y="730"/>
      <point x="846" y="636"/>
      <point x="797" y="433" type="curve" smooth="yes"/>
      <point x="749" y="231"/>
      <point x="610" y="133"/>
      <point x="456" y="131" type="curve" smooth="yes"/>
      <point x="441" y="131" type="line" smooth="yes"/>
      <point x="296" y="133"/>
      <point x="191" y="230"/>
      <point x="240" y="431" type="curve" smooth="yes"/>
      <point x="288" y="632"/>
      <point x="419" y="730"/>
      <point x="581" y="733" type="curve" smooth="yes"/>
    </contour>
    <contour>
      <point x="605" y="884" type="curve" smooth="yes"/>
      <point x="572" y="884" type="line" smooth="yes"/>
      <point x="473" y="886"/>
      <point x="325" y="934"/>
      <point x="375" y="1148" type="curve" smooth="yes"/>
      <point x="410" y="1310"/>
      <point x="506" y="1363"/>
      <point x="576" y="1416" type="curve"/>
      <point x="583" y="1557" type="line"/>
      <point x="429" y="1542"/>
      <point x="235" y="1422"/>
      <point x="199" y="1148" type="curve" smooth="yes"/>
      <point x="151" y="830"/>
      <point x="404" y="745"/>
      <point x="574" y="743" type="curve" smooth="yes"/>
      <point x="608" y="743" type="line" smooth="yes"/>
      <point x="795" y="745"/>
      <point x="1062" y="834"/>
      <point x="1109" y="1148" type="curve" smooth="yes"/>
      <point x="1142" y="1395"/>
      <point x="1013" y="1541"/>
      <point x="848" y="1557" type="curve"/>
      <point x="840" y="1416" type="line"/>
      <point x="910" y="1363"/>
      <point x="966" y="1307"/>
      <point x="933" y="1148" type="curve" smooth="yes"/>
      <point x="883" y="938"/>
      <point x="720" y="886"/>
    </contour>
  </outline>
</glyph>
<glyph name="uni0225" format="2">
  <advance width="906"/>
  <unicode hex="0225"/>
  <outline>
    <contour>
      <point x="459" y="151" type="line"/>
      <point x="65" y="151" type="line"/>
      <point x="57" y="0" type="line"/>
      <point x="451" y="0" type="line"/>
    </contour>
    <contour>
      <point x="849" y="951" type="line"/>
      <point x="857" y="1081" type="line"/>
      <point x="743" y="1081" type="line"/>
      <point x="-5" y="137" type="line"/>
      <point x="-12" y="0" type="line"/>
      <point x="98" y="0" type="line"/>
    </contour>
    <contour>
      <point x="779" y="1082" type="line"/>
      <point x="177" y="1082" type="line"/>
      <point x="169" y="930" type="line"/>
      <point x="772" y="930" type="line"/>
    </contour>
    <contour>
      <point x="313" y="0" type="line"/>
      <point x="466" y="0" type="line" smooth="yes"/>
      <point x="534" y="-3"/>
      <point x="592" y="-35"/>
      <point x="561" y="-152" type="curve" smooth="yes"/>
      <point x="554" y="-168"/>
      <point x="549" y="-187"/>
      <point x="537" y="-217" type="curve"/>
      <point x="674" y="-219" type="line"/>
      <point x="686" y="-190"/>
      <point x="700" y="-137"/>
      <point x="706" y="-104" type="curve" smooth="yes"/>
      <point x="738" y="92"/>
      <point x="609" y="149"/>
      <point x="470" y="151" type="curve" smooth="yes"/>
      <point x="320" y="151" type="line"/>
    </contour>
  </outline>
</glyph>
<glyph name="uni0235" format="2">
  <advance width="1212"/>
  <unicode hex="0235"/>
  <outline>
    <contour>
      <point x="589" y="226" type="curve"/>
      <point x="574" y="104"/>
      <point x="546" y="-1"/>
      <point x="528" y="-123" type="curve" smooth="yes"/>
      <point x="503" y="-245"/>
      <point x="532" y="-439"/>
      <point x="741" y="-437" type="curve" smooth="yes"/>
      <point x="875" y="-435"/>
      <point x="1009" y="-335"/>
      <point x="1029" y="-174" type="curve" smooth="yes"/>
      <point x="1048" y="-28"/>
      <point x="971" y="88"/>
      <point x="823" y="89" type="curve" smooth="yes"/>
      <point x="730" y="89"/>
      <point x="618" y="29"/>
      <point x="531" y="-46" type="curve"/>
      <point x="293" y="-281" type="line"/>
      <point x="308" y="-292"/>
      <point x="380" y="-383"/>
      <point x="394" y="-394" type="curve"/>
      <point x="549" y="-235" type="line" smooth="yes"/>
      <point x="626" y="-163"/>
      <point x="719" y="-62"/>
      <point x="802" y="-63" type="curve" smooth="yes"/>
      <point x="850" y="-64"/>
      <point x="872" y="-118"/>
      <point x="853" y="-174" type="curve" smooth="yes"/>
      <point x="833" y="-239"/>
      <point x="779" y="-284"/>
      <point x="743" y="-285" type="curve" smooth="yes"/>
      <point x="694" y="-287"/>
      <point x="680" y="-215"/>
      <point x="702" y="-164" type="curve" smooth="yes"/>
      <point x="723" y="-71"/>
      <point x="752" y="103"/>
      <point x="766" y="227" type="curve"/>
      <point x="748" y="227"/>
      <point x="607" y="227"/>
    </contour>
    <contour>
      <point x="348" y="851" type="line"/>
      <point x="377" y="1082" type="line"/>
      <point x="210" y="1082" type="line"/>
      <point x="24" y="0" type="line"/>
      <point x="201" y="0" type="line"/>
    </contour>
    <contour>
      <point x="267" y="582" type="line"/>
      <point x="317" y="850"/>
      <point x="483" y="943"/>
      <point x="578" y="946" type="curve" smooth="yes"/>
      <point x="733" y="948"/>
      <point x="703" y="787"/>
      <point x="672" y="711" type="curve" smooth="yes"/>
      <point x="552" y="0" type="line"/>
      <point x="728" y="0" type="line"/>
      <point x="848" y="709" type="line" smooth="yes"/>
      <point x="883" y="919"/>
      <point x="835" y="1103"/>
      <point x="631" y="1102" type="curve" smooth="yes"/>
      <point x="407" y="1100"/>
      <point x="242" y="880"/>
      <point x="205" y="586" type="curve"/>
    </contour>
  </outline>
</glyph>
<glyph name="uni0236" format="2">
  <advance width="780"/>
  <unicode hex="0236"/>
  <outline>
    <contour>
      <point x="356" y="1346" type="curve"/>
      <point x="319" y="978"/>
      <point x="217" y="660"/>
      <point x="168" y="294" type="curve" smooth="yes"/>
      <point x="146" y="172"/>
      <point x="170" y="-22"/>
      <point x="382" y="-20" type="curve" smooth="yes"/>
      <point x="516" y="-18"/>
      <point x="650" y="82"/>
      <point x="670" y="243" type="curve" smooth="yes"/>
      <point x="689" y="389"/>
      <point x="611" y="505"/>
      <point x="463" y="506" type="curve" smooth="yes"/>
      <point x="374" y="506"/>
      <point x="251" y="444"/>
      <point x="172" y="371" type="curve"/>
      <point x="-66" y="136" type="line"/>
      <point x="-52" y="125"/>
      <point x="20" y="34"/>
      <point x="34" y="23" type="curve"/>
      <point x="191" y="182" type="line" smooth="yes"/>
      <point x="265" y="253"/>
      <point x="359" y="355"/>
      <point x="443" y="354" type="curve" smooth="yes"/>
      <point x="490" y="353"/>
      <point x="512" y="299"/>
      <point x="494" y="243" type="curve" smooth="yes"/>
      <point x="474" y="178"/>
      <point x="420" y="133"/>
      <point x="383" y="132" type="curve" smooth="yes"/>
      <point x="334" y="130"/>
      <point x="320" y="202"/>
      <point x="343" y="253" type="curve" smooth="yes"/>
      <point x="405" y="585"/>
      <point x="505" y="979"/>
      <point x="532" y="1346" type="curve"/>
      <point x="514" y="1346"/>
      <point x="374" y="1346"/>
    </contour>
    <contour>
      <point x="637" y="1082" type="line"/>
      <point x="146" y="1082" type="line"/>
      <point x="139" y="940" type="line"/>
      <point x="630" y="940" type="line"/>
    </contour>
  </outline>
</glyph>
<glyph name="uni0239" format="2">
  <advance width="1521"/>
  <unicode hex="0239"/>
  <outline>
    <contour>
      <point x="496" y="-416" type="line"/>
      <point x="673" y="-416" type="line"/>
      <point x="896" y="874" type="line"/>
      <point x="916" y="1082" type="line"/>
      <point x="769" y="1082" type="line"/>
      <point x="718" y="874" type="line"/>
    </contour>
    <contour>
      <point x="79" y="529" type="line" smooth="yes"/>
      <point x="42" y="310"/>
      <point x="72" y="-20"/>
      <point x="342" y="-20" type="curve" smooth="yes"/>
      <point x="527" y="-20"/>
      <point x="715" y="151"/>
      <point x="758" y="493" type="curve"/>
      <point x="833" y="586" type="line"/>
      <point x="865" y="905"/>
      <point x="722" y="1102"/>
      <point x="528" y="1102" type="curve" smooth="yes"/>
      <point x="256" y="1102"/>
      <point x="127" y="794"/>
      <point x="82" y="550" type="curve" smooth="yes"/>
    </contour>
    <contour>
      <point x="260" y="550" type="line" smooth="yes"/>
      <point x="302" y="701"/>
      <point x="383" y="951"/>
      <point x="574" y="950" type="curve" smooth="yes"/>
      <point x="634" y="950"/>
      <point x="758" y="868"/>
      <point x="745" y="659" type="curve"/>
      <point x="677" y="418" type="line"/>
      <point x="623" y="250"/>
      <point x="488" y="131"/>
      <point x="388" y="132" type="curve" smooth="yes"/>
      <point x="193" y="133"/>
      <point x="223" y="402"/>
      <point x="257" y="529" type="curve" smooth="yes"/>
    </contour>
    <contour>
      <point x="1423" y="550" type="line" smooth="yes"/>
      <point x="1461" y="776"/>
      <point x="1444" y="1102"/>
      <point x="1167" y="1102" type="curve" smooth="yes"/>
      <point x="960" y="1102"/>
      <point x="777" y="903"/>
      <point x="743" y="586" type="curve"/>
      <point x="668" y="474" type="line"/>
      <point x="649" y="142"/>
      <point x="812" y="-20"/>
      <point x="985" y="-20" type="curve" smooth="yes"/>
      <point x="1251" y="-19"/>
      <point x="1375" y="291"/>
      <point x="1419" y="529" type="curve" smooth="yes"/>
    </contour>
    <contour>
      <point x="1242" y="529" type="line" smooth="yes"/>
      <point x="1201" y="379"/>
      <point x="1120" y="132"/>
      <point x="929" y="132" type="curve" smooth="yes"/>
      <point x="842" y="131"/>
      <point x="742" y="238"/>
      <point x="756" y="400" type="curve"/>
      <point x="824" y="659" type="line"/>
      <point x="875" y="863"/>
      <point x="1043" y="946"/>
      <point x="1113" y="946" type="curve" smooth="yes"/>
      <point x="1307" y="946"/>
      <point x="1280" y="679"/>
      <point x="1246" y="550" type="curve" smooth="yes"/>
    </contour>
  </outline>
</glyph>
<glyph name="uni023C" format="2">
  <advance width="915"/>
  <unicode hex="023C"/>
  <outline>
    <contour>
      <point x="974" y="1455" type="line"/>
      <point x="852" y="1455" type="line"/>
      <point x="-94" y="-415" type="line"/>
      <point x="29" y="-415" type="line"/>
    </contour>
    <component base="c"/>
  </outline>
</glyph>
<glyph name="uni023F" format="2">
  <advance width="903"/>
  <unicode hex="023F"/>
  <outline>
    <contour>
      <point x="574" y="287" type="curve" smooth="yes"/>
      <point x="541" y="152"/>
      <point x="408" y="133"/>
      <point x="360" y="132" type="curve" smooth="yes"/>
      <point x="265" y="131"/>
      <point x="190" y="200"/>
      <point x="153" y="316" type="curve"/>
      <point x="31" y="241" type="line"/>
      <point x="185" y="-194" type="line" smooth="yes"/>
      <point x="167" y="-215"/>
      <point x="199" y="-439"/>
      <point x="362" y="-437" type="curve" smooth="yes"/>
      <point x="417" y="-436"/>
      <point x="492" y="-388"/>
      <point x="541" y="-338" type="curve"/>
      <point x="487" y="-226" type="line"/>
      <point x="444" y="-264"/>
      <point x="402" y="-288"/>
      <point x="365" y="-289" type="curve" smooth="yes"/>
      <point x="250" y="-292"/>
      <point x="258" y="-41"/>
      <point x="274" y="-7" type="curve"/>
      <point x="309" y="-18"/>
      <point x="347" y="-20"/>
      <point x="361" y="-20" type="curve" smooth="yes"/>
      <point x="522" y="-19"/>
      <point x="720" y="81"/>
      <point x="752" y="301" type="curve" smooth="yes"/>
      <point x="785" y="502"/>
      <point x="604" y="581"/>
      <point x="493" y="621" type="curve" smooth="yes"/>
      <point x="479" y="636"/>
      <point x="309" y="653"/>
      <point x="343" y="791" type="curve" smooth="yes"/>
      <point x="374" y="922"/>
      <point x="503" y="950"/>
      <point x="542" y="950" type="curve" smooth="yes"/>
      <point x="595" y="950"/>
      <point x="680" y="889"/>
      <point x="657" y="765" type="curve"/>
      <point x="833" y="765" type="line"/>
      <point x="858" y="973"/>
      <point x="711" y="1102"/>
      <point x="542" y="1102" type="curve" smooth="yes"/>
      <point x="391" y="1101"/>
      <point x="196" y="991"/>
      <point x="166" y="786" type="curve" smooth="yes"/>
      <point x="134" y="581"/>
      <point x="327" y="514"/>
      <point x="444" y="473" type="curve" smooth="yes"/>
      <point x="455" y="457"/>
      <point x="609" y="444"/>
    </contour>
  </outline>
</glyph>
<glyph name="uni0240" format="2">
  <advance width="868"/>
  <unicode hex="0240"/>
  <outline>
    <contour>
      <point x="65" y="151" type="line"/>
      <point x="57" y="0" type="line"/>
      <point x="198" y="0" type="line" smooth="yes"/>
      <point x="468" y="-11"/>
      <point x="349" y="-437"/>
      <point x="606" y="-437" type="curve" smooth="yes"/>
      <point x="678" y="-437"/>
      <point x="748" y="-383"/>
      <point x="793" y="-340" type="curve"/>
      <point x="739" y="-228" type="line"/>
      <point x="703" y="-256"/>
      <point x="664" y="-290"/>
      <point x="614" y="-289" type="curve" smooth="yes"/>
      <point x="478" y="-288"/>
      <point x="523" y="143"/>
      <point x="262" y="151" type="curve" smooth="yes"/>
    </contour>
    <contour>
      <point x="849" y="951" type="line"/>
      <point x="857" y="1081" type="line"/>
      <point x="743" y="1081" type="line"/>
      <point x="-5" y="137" type="line"/>
      <point x="-12" y="0" type="line"/>
      <point x="98" y="0" type="line"/>
    </contour>
    <contour>
      <point x="779" y="1082" type="line"/>
      <point x="177" y="1082" type="line"/>
      <point x="169" y="930" type="line"/>
      <point x="772" y="930" type="line"/>
    </contour>
  </outline>
</glyph>
<glyph name="uni0241" format="2">
  <advance width="946"/>
  <unicode hex="0241"/>
  <outline>
    <contour>
      <point x="361" y="449" type="line"/>
      <point x="353" y="286" type="line"/>
      <point x="394" y="286" type="line" smooth="yes"/>
      <point x="696" y="291"/>
      <point x="840" y="581"/>
      <point x="888" y="826" type="curve" smooth="yes"/>
      <point x="895" y="936" type="line" smooth="yes"/>
      <point x="935" y="1160"/>
      <point x="883" y="1476"/>
      <point x="580" y="1476" type="curve" smooth="yes"/>
      <point x="341" y="1476"/>
      <point x="208" y="1277"/>
      <point x="159" y="1072" type="curve"/>
      <point x="332" y="1072" type="line"/>
      <point x="381" y="1189"/>
      <point x="441" y="1312"/>
      <point x="581" y="1311" type="curve" smooth="yes"/>
      <point x="774" y="1311"/>
      <point x="751" y="1075"/>
      <point x="713" y="936" type="curve" smooth="yes"/>
      <point x="706" y="826" type="line" smooth="yes"/>
      <point x="660" y="665"/>
      <point x="588" y="455"/>
      <point x="397" y="449" type="curve" smooth="yes"/>
    </contour>
    <contour>
      <point x="500" y="449" type="line"/>
      <point x="317" y="449" type="line"/>
      <point x="247" y="0" type="line"/>
      <point x="431" y="0" type="line"/>
    </contour>
  </outline>
</glyph>
<glyph name="uni024B" format="2">
  <advance width="1018"/>
  <unicode hex="024B"/>
  <outline>
    <contour>
      <point x="565" y="-108" type="line"/>
      <point x="742" y="-108" type="line"/>
      <point x="931" y="1082" type="line"/>
      <point x="769" y="1082" type="line"/>
      <point x="718" y="874" type="line"/>
    </contour>
    <contour>
      <point x="79" y="529" type="line" smooth="yes"/>
      <point x="42" y="310"/>
      <point x="71" y="-20"/>
      <point x="342" y="-20" type="curve" smooth="yes"/>
      <point x="527" y="-20"/>
      <point x="715" y="151"/>
      <point x="758" y="493" type="curve"/>
      <point x="833" y="586" type="line"/>
      <point x="865" y="905"/>
      <point x="722" y="1102"/>
      <point x="528" y="1102" type="curve" smooth="yes"/>
      <point x="256" y="1102"/>
      <point x="127" y="794"/>
      <point x="82" y="550" type="curve" smooth="yes"/>
    </contour>
    <contour>
      <point x="260" y="550" type="line" smooth="yes"/>
      <point x="302" y="701"/>
      <point x="383" y="951"/>
      <point x="574" y="950" type="curve" smooth="yes"/>
      <point x="634" y="950"/>
      <point x="758" y="868"/>
      <point x="745" y="659" type="curve"/>
      <point x="677" y="418" type="line"/>
      <point x="623" y="250"/>
      <point x="488" y="131"/>
      <point x="387" y="132" type="curve" smooth="yes"/>
      <point x="192" y="133"/>
      <point x="223" y="402"/>
      <point x="257" y="529" type="curve" smooth="yes"/>
    </contour>
    <contour>
      <point x="574" y="10" type="line"/>
      <point x="551" y="-135" type="line" smooth="yes"/>
      <point x="526" y="-259"/>
      <point x="591" y="-437"/>
      <point x="750" y="-437" type="curve" smooth="yes"/>
      <point x="773" y="-437"/>
      <point x="812" y="-430"/>
      <point x="829" y="-425" type="curve"/>
      <point x="837" y="-297" type="line"/>
      <point x="813" y="-303"/>
      <point x="799" y="-303"/>
      <point x="790" y="-303" type="curve" smooth="yes"/>
      <point x="698" y="-303"/>
      <point x="708" y="-190"/>
      <point x="728" y="-135" type="curve" smooth="yes"/>
      <point x="751" y="10" type="line"/>
    </contour>
  </outline>
</glyph>
<glyph name="uni024C" format="2">
  <advance width="1109"/>
  <unicode hex="024C"/>
  <anchor x="689" y="1601" name="top"/>
  <anchor x="413" y="10" name="bottom"/>
  <anchor x="1264" y="1601" name="top0315"/>
  <outline>
    <contour>
      <point x="359" y="1456" type="line"/>
      <point x="107" y="0" type="line"/>
      <point x="291" y="0" type="line"/>
      <point x="533" y="1298" type="line"/>
      <point x="749" y="1298" type="line" smooth="yes"/>
      <point x="891" y="1295"/>
      <point x="961" y="1192"/>
      <point x="917" y="1018" type="curve" smooth="yes"/>
      <point x="878" y="840"/>
      <point x="739" y="751"/>
      <point x="610" y="747" type="curve" smooth="yes"/>
      <point x="66" y="747" type="line"/>
      <point x="59" y="590" type="line"/>
      <point x="713" y="590" type="line"/>
      <point x="763" y="611" type="line"/>
      <point x="953" y="693"/>
      <point x="1065" y="814"/>
      <point x="1101" y="1018" type="curve" smooth="yes"/>
      <point x="1145" y="1298"/>
      <point x="1003" y="1453"/>
      <point x="749" y="1456" type="curve" smooth="yes"/>
    </contour>
    <contour>
      <point x="779" y="0" type="line"/>
      <point x="975" y="0" type="line"/>
      <point x="977" y="12" type="line"/>
      <point x="798" y="661" type="line"/>
      <point x="609" y="662" type="line"/>
    </contour>
  </outline>
</glyph>
<glyph name="aturn" format="2">
  <advance width="949"/>
  <unicode hex="0250"/>
  <anchor x="773" y="631" name="rhotichook"/>
  <anchor x="594" y="1290" name="top"/>
  <anchor x="371" y="0" name="bottom"/>
  <anchor x="1048" y="1290" name="top0315"/>
  <outline>
    <contour>
      <point x="360" y="897" type="line" smooth="yes"/>
      <point x="372" y="954"/>
      <point x="376" y="1024"/>
      <point x="368" y="1082" type="curve"/>
      <point x="186" y="1082" type="line"/>
      <point x="184" y="1066" type="line"/>
      <point x="201" y="983"/>
      <point x="193" y="908"/>
      <point x="182" y="846" type="curve" smooth="yes"/>
      <point x="88" y="342" type="line" smooth="yes"/>
      <point x="56" y="113"/>
      <point x="180" y="-21"/>
      <point x="364" y="-20" type="curve" smooth="yes"/>
      <point x="549" y="-19"/>
      <point x="727" y="114"/>
      <point x="768" y="299" type="curve"/>
      <point x="591" y="299" type="line"/>
      <point x="549" y="188"/>
      <point x="453" y="129"/>
      <point x="374" y="129" type="curve" smooth="yes"/>
      <point x="290" y="129"/>
      <point x="233" y="208"/>
      <point x="264" y="340" type="curve" smooth="yes"/>
    </contour>
    <contour>
      <point x="264" y="426" type="line"/>
      <point x="430" y="426" type="line" smooth="yes"/>
      <point x="578" y="428"/>
      <point x="836" y="494"/>
      <point x="875" y="781" type="curve" smooth="yes"/>
      <point x="903" y="969"/>
      <point x="776" y="1101"/>
      <point x="617" y="1102" type="curve" smooth="yes"/>
      <point x="482" y="1103"/>
      <point x="315" y="956"/>
      <point x="256" y="806" type="curve"/>
      <point x="324" y="715" type="line"/>
      <point x="359" y="809"/>
      <point x="473" y="943"/>
      <point x="591" y="940" type="curve" smooth="yes"/>
      <point x="671" y="939"/>
      <point x="725" y="872"/>
      <point x="698" y="756" type="curve" smooth="yes"/>
      <point x="657" y="571"/>
      <point x="473" y="558"/>
      <point x="400" y="556" type="curve" smooth="yes"/>
      <point x="269" y="556" type="line"/>
    </contour>
  </outline>
</glyph>
<glyph name="ccurl" format="2">
  <advance width="927"/>
  <unicode hex="0255"/>
  <anchor x="621" y="1290" name="top"/>
  <anchor x="398" y="0" name="bottom"/>
  <anchor x="1026" y="1290" name="top0315"/>
  <outline>
    <contour>
      <point x="397" y="132" type="curve" smooth="yes"/>
      <point x="229" y="132"/>
      <point x="226" y="353"/>
      <point x="268" y="520" type="curve" smooth="yes"/>
      <point x="276" y="562" type="line" smooth="yes"/>
      <point x="321" y="719"/>
      <point x="395" y="950"/>
      <point x="586" y="950" type="curve" smooth="yes"/>
      <point x="720" y="950"/>
      <point x="735" y="812"/>
      <point x="715" y="710" type="curve"/>
      <point x="881" y="710" type="line"/>
      <point x="902" y="900"/>
      <point x="819" y="1102"/>
      <point x="586" y="1102" type="curve" smooth="yes"/>
      <point x="285" y="1101"/>
      <point x="145" y="801"/>
      <point x="98" y="562" type="curve" smooth="yes"/>
      <point x="91" y="520" type="line" smooth="yes"/>
      <point x="46" y="266"/>
      <point x="126" y="-21"/>
      <point x="397" y="-20" type="curve" smooth="yes"/>
      <point x="596" y="-20"/>
      <point x="771" y="120"/>
      <point x="799" y="312" type="curve" smooth="yes"/>
      <point x="822" y="433"/>
      <point x="769" y="547"/>
      <point x="600" y="547" type="curve" smooth="yes"/>
      <point x="405" y="548"/>
      <point x="253" y="357"/>
      <point x="90" y="176" type="curve" smooth="yes"/>
      <point x="-71" y="-23" type="line"/>
      <point x="49" y="-128" type="line"/>
      <point x="173" y="27" type="line" smooth="yes"/>
      <point x="303" y="178"/>
      <point x="451" y="395"/>
      <point x="594" y="393" type="curve" smooth="yes"/>
      <point x="618" y="392"/>
      <point x="655" y="365"/>
      <point x="634" y="293" type="curve" smooth="yes"/>
      <point x="604" y="203"/>
      <point x="515" y="132"/>
    </contour>
  </outline>
</glyph>
<glyph name="schwa" format="2">
  <advance width="924"/>
  <unicode hex="0259"/>
  <anchor x="742" y="654" name="rhotichook"/>
  <anchor x="590" y="1291" name="top"/>
  <anchor x="667" y="63" name="right"/>
  <anchor x="383" y="0" name="bottom"/>
  <anchor x="1023" y="1291" name="top0315"/>
  <outline>
    <contour>
      <point x="519" y="1104" type="curve" smooth="yes"/>
      <point x="380" y="1105"/>
      <point x="263" y="1042"/>
      <point x="187" y="972" type="curve"/>
      <point x="251" y="845" type="line"/>
      <point x="333" y="911"/>
      <point x="433" y="953"/>
      <point x="519" y="952" type="curve" smooth="yes"/>
      <point x="706" y="950"/>
      <point x="697" y="730"/>
      <point x="661" y="563" type="curve" smooth="yes"/>
      <point x="650" y="519" type="line" smooth="yes"/>
      <point x="606" y="343"/>
      <point x="506" y="132"/>
      <point x="362" y="133" type="curve" smooth="yes"/>
      <point x="222" y="133"/>
      <point x="211" y="285"/>
      <point x="248" y="408" type="curve" smooth="yes"/>
      <point x="255" y="434" type="line"/>
      <point x="713" y="434" type="line"/>
      <point x="721" y="585" type="line"/>
      <point x="85" y="585" type="line"/>
      <point x="71" y="463" type="line" smooth="yes"/>
      <point x="34" y="225"/>
      <point x="89" y="-19"/>
      <point x="362" y="-19" type="curve" smooth="yes"/>
      <point x="605" y="-20"/>
      <point x="782" y="261"/>
      <point x="828" y="519" type="curve" smooth="yes"/>
      <point x="839" y="563" type="line" smooth="yes"/>
      <point x="876" y="815"/>
      <point x="817" y="1102"/>
    </contour>
  </outline>
</glyph>
<glyph name="epsilon1revhook" format="2">
  <advance width="1238"/>
  <unicode hex="025D"/>
  <anchor x="582" y="1290" name="top"/>
  <anchor x="359" y="0" name="bottom"/>
  <anchor x="1337" y="1290" name="top0315"/>
  <outline>
    <contour>
      <point x="811" y="735" type="line"/>
      <point x="930" y="761" type="line"/>
      <point x="941" y="764"/>
      <point x="883" y="503"/>
      <point x="1090" y="505" type="curve" smooth="yes"/>
      <point x="1140" y="506"/>
      <point x="1172" y="521"/>
      <point x="1197" y="537" type="curve"/>
      <point x="1182" y="653" type="line"/>
      <point x="1173" y="653"/>
      <point x="1162" y="649"/>
      <point x="1130" y="648" type="curve" smooth="yes"/>
      <point x="966" y="647"/>
      <point x="1069" y="972"/>
      <point x="1052" y="938" type="curve"/>
      <point x="819" y="889" type="line"/>
    </contour>
    <contour>
      <point x="297" y="587" type="line"/>
      <point x="290" y="479" type="line"/>
      <point x="469" y="479" type="line" smooth="yes"/>
      <point x="502" y="477"/>
      <point x="643" y="459"/>
      <point x="604" y="304" type="curve" smooth="yes"/>
      <point x="566" y="175"/>
      <point x="419" y="129"/>
      <point x="361" y="130" type="curve" smooth="yes"/>
      <point x="311" y="130"/>
      <point x="194" y="180"/>
      <point x="219" y="320" type="curve"/>
      <point x="44" y="320" type="line"/>
      <point x="19" y="78"/>
      <point x="201" y="-20"/>
      <point x="362" y="-20" type="curve" smooth="yes"/>
      <point x="530" y="-20"/>
      <point x="746" y="74"/>
      <point x="782" y="305" type="curve" smooth="yes"/>
      <point x="818" y="533"/>
      <point x="594" y="585"/>
      <point x="482" y="587" type="curve" smooth="yes"/>
    </contour>
    <contour>
      <point x="484" y="517" type="line" smooth="yes"/>
      <point x="595" y="520"/>
      <point x="822" y="585"/>
      <point x="855" y="787" type="curve" smooth="yes"/>
      <point x="890" y="1017"/>
      <point x="699" y="1101"/>
      <point x="546" y="1101" type="curve" smooth="yes"/>
      <point x="386" y="1101"/>
      <point x="188" y="1003"/>
      <point x="146" y="781" type="curve"/>
      <point x="322" y="781" type="line"/>
      <point x="366" y="904"/>
      <point x="483" y="951"/>
      <point x="547" y="951" type="curve" smooth="yes"/>
      <point x="576" y="951"/>
      <point x="715" y="920"/>
      <point x="679" y="787" type="curve" smooth="yes"/>
      <point x="643" y="646"/>
      <point x="499" y="628"/>
      <point x="470" y="626" type="curve" smooth="yes"/>
      <point x="298" y="626" type="line"/>
      <point x="291" y="517" type="line"/>
    </contour>
  </outline>
</glyph>
<glyph name="jdotlessbar" format="2">
  <advance width="584"/>
  <unicode hex="025F"/>
  <anchor x="443" y="1290" name="top"/>
  <anchor x="142" y="-447" name="bottom"/>
  <anchor x="684" y="1290" name="top0315"/>
  <outline>
    <contour>
      <point x="468" y="151" type="line"/>
      <point x="-20" y="151" type="line"/>
      <point x="-27" y="0" type="line"/>
      <point x="460" y="0" type="line"/>
    </contour>
    <contour>
      <point x="314" y="1082" type="line"/>
      <point x="104" y="-129" type="line" smooth="yes"/>
      <point x="77" y="-216"/>
      <point x="35" y="-282"/>
      <point x="-25" y="-280" type="curve" smooth="yes"/>
      <point x="-36" y="-280"/>
      <point x="-58" y="-280"/>
      <point x="-88" y="-272" type="curve"/>
      <point x="-95" y="-419" type="line"/>
      <point x="-69" y="-428"/>
      <point x="-26" y="-437"/>
      <point x="2" y="-437" type="curve" smooth="yes"/>
      <point x="169" y="-437"/>
      <point x="250" y="-301"/>
      <point x="282" y="-129" type="curve" smooth="yes"/>
      <point x="490" y="1082" type="line"/>
    </contour>
  </outline>
</glyph>
<glyph name="ghook" format="2">
  <advance width="937"/>
  <unicode hex="0260"/>
  <anchor x="587" y="1290" name="top"/>
  <anchor x="287" y="-447" name="bottom"/>
  <anchor x="1120" y="1290" name="top0315"/>
  <outline>
    <contour>
      <point x="81" y="489" type="line" smooth="yes"/>
      <point x="44" y="244"/>
      <point x="78" y="-21"/>
      <point x="340" y="-21" type="curve" smooth="yes"/>
      <point x="525" y="-21"/>
      <point x="707" y="134"/>
      <point x="752" y="453" type="curve"/>
      <point x="827" y="626" type="line"/>
      <point x="857" y="922"/>
      <point x="721" y="1102"/>
      <point x="525" y="1102" type="curve" smooth="yes"/>
      <point x="262" y="1102"/>
      <point x="130" y="862"/>
      <point x="85" y="590" type="curve" smooth="yes"/>
    </contour>
    <contour>
      <point x="262" y="590" type="line" smooth="yes"/>
      <point x="303" y="768"/>
      <point x="381" y="946"/>
      <point x="572" y="946" type="curve" smooth="yes"/>
      <point x="633" y="945"/>
      <point x="753" y="886"/>
      <point x="736" y="699" type="curve"/>
      <point x="669" y="378" type="line"/>
      <point x="616" y="233"/>
      <point x="486" y="136"/>
      <point x="385" y="136" type="curve" smooth="yes"/>
      <point x="191" y="137"/>
      <point x="224" y="336"/>
      <point x="258" y="489" type="curve" smooth="yes"/>
    </contour>
    <contour>
      <point x="303" y="-427" type="curve" smooth="yes"/>
      <point x="541" y="-427"/>
      <point x="707" y="-290"/>
      <point x="750" y="-37" type="curve"/>
      <point x="917" y="1074" type="line" smooth="yes"/>
      <point x="939" y="1142"/>
      <point x="999" y="1241"/>
      <point x="1089" y="1241" type="curve" smooth="yes"/>
      <point x="1094" y="1241"/>
      <point x="1102" y="1241"/>
      <point x="1124" y="1233" type="curve"/>
      <point x="1130" y="1359" type="line"/>
      <point x="1111" y="1367"/>
      <point x="1071" y="1375"/>
      <point x="1050" y="1375" type="curve" smooth="yes"/>
      <point x="894" y="1375"/>
      <point x="770" y="1209"/>
      <point x="740" y="1074" type="curve" smooth="yes"/>
      <point x="573" y="-46" type="line" smooth="yes"/>
      <point x="535" y="-209"/>
      <point x="427" y="-275"/>
      <point x="289" y="-275" type="curve" smooth="yes"/>
      <point x="224" y="-275"/>
      <point x="137" y="-242"/>
      <point x="80" y="-149" type="curve"/>
      <point x="-13" y="-258" type="line"/>
      <point x="64" y="-396"/>
      <point x="236" y="-427"/>
    </contour>
  </outline>
</glyph>
<glyph name="gamma1" format="2">
  <advance width="983"/>
  <unicode hex="0263"/>
  <anchor x="614" y="1290" name="top"/>
  <anchor x="314" y="-447" name="bottom"/>
  <anchor x="1083" y="1290" name="top0315"/>
  <outline>
    <contour>
      <point x="334" y="-429" type="curve" smooth="yes"/>
      <point x="492" y="-428"/>
      <point x="576" y="-321"/>
      <point x="589" y="-195" type="curve" smooth="yes"/>
      <point x="599" y="-142"/>
      <point x="600" y="-89"/>
      <point x="585" y="-31" type="curve" smooth="yes"/>
      <point x="317" y="1083" type="line"/>
      <point x="298" y="1083"/>
      <point x="146" y="1083"/>
      <point x="127" y="1083" type="curve"/>
      <point x="362" y="97" type="line" smooth="yes"/>
      <point x="410" y="-39"/>
      <point x="428" y="-120"/>
      <point x="412" y="-194" type="curve" smooth="yes"/>
      <point x="401" y="-218"/>
      <point x="386" y="-272"/>
      <point x="335" y="-271" type="curve" smooth="yes"/>
      <point x="283" y="-271"/>
      <point x="294" y="-213"/>
      <point x="302" y="-195" type="curve" smooth="yes"/>
      <point x="316" y="-114"/>
      <point x="369" y="-33"/>
      <point x="438" y="91" type="curve" smooth="yes"/>
      <point x="1024" y="1081" type="line"/>
      <point x="1003" y="1081"/>
      <point x="852" y="1081"/>
      <point x="832" y="1081" type="curve"/>
      <point x="187" y="-37" type="line" smooth="yes"/>
      <point x="155" y="-94"/>
      <point x="134" y="-143"/>
      <point x="126" y="-194" type="curve" smooth="yes"/>
      <point x="115" y="-317"/>
      <point x="174" y="-429"/>
    </contour>
  </outline>
</glyph>
<glyph name="hhook" format="2">
  <advance width="956"/>
  <unicode hex="0266"/>
  <anchor x="715" y="1700" name="top"/>
  <anchor x="377" y="0" name="bottom"/>
  <anchor x="1126" y="1700" name="top0315"/>
  <outline>
    <contour>
      <point x="407" y="1163" type="line"/>
      <point x="230" y="1163" type="line"/>
      <point x="24" y="0" type="line"/>
      <point x="201" y="0" type="line"/>
    </contour>
    <contour>
      <point x="267" y="582" type="line"/>
      <point x="317" y="850"/>
      <point x="483" y="943"/>
      <point x="578" y="946" type="curve" smooth="yes"/>
      <point x="733" y="948"/>
      <point x="703" y="787"/>
      <point x="672" y="711" type="curve" smooth="yes"/>
      <point x="552" y="0" type="line"/>
      <point x="728" y="0" type="line"/>
      <point x="848" y="709" type="line" smooth="yes"/>
      <point x="883" y="919"/>
      <point x="835" y="1103"/>
      <point x="631" y="1102" type="curve" smooth="yes"/>
      <point x="407" y="1100"/>
      <point x="242" y="880"/>
      <point x="205" y="586" type="curve"/>
    </contour>
    <contour>
      <point x="404" y="1120" type="line"/>
      <point x="414" y="1260" type="line" smooth="yes"/>
      <point x="440" y="1328"/>
      <point x="497" y="1427"/>
      <point x="586" y="1427" type="curve" smooth="yes"/>
      <point x="591" y="1427"/>
      <point x="600" y="1427"/>
      <point x="621" y="1420" type="curve"/>
      <point x="627" y="1545" type="line"/>
      <point x="609" y="1553"/>
      <point x="568" y="1561"/>
      <point x="547" y="1561" type="curve" smooth="yes"/>
      <point x="392" y="1561"/>
      <point x="266" y="1396"/>
      <point x="237" y="1260" type="curve" smooth="yes"/>
      <point x="227" y="1120" type="line"/>
    </contour>
  </outline>
</glyph>
<glyph name="henghook" format="2">
  <advance width="956"/>
  <unicode hex="0267"/>
  <anchor x="715" y="1700" name="top"/>
  <anchor x="301" y="-447" name="bottom"/>
  <anchor x="1126" y="1700" name="top0315"/>
  <outline>
    <contour>
      <point x="563" y="84" type="line"/>
      <point x="535" y="-64" type="line" smooth="yes"/>
      <point x="510" y="-133"/>
      <point x="452" y="-231"/>
      <point x="364" y="-231" type="curve" smooth="yes"/>
      <point x="357" y="-231"/>
      <point x="350" y="-232"/>
      <point x="327" y="-224" type="curve"/>
      <point x="321" y="-350" type="line"/>
      <point x="341" y="-358"/>
      <point x="381" y="-366"/>
      <point x="402" y="-366" type="curve" smooth="yes"/>
      <point x="557" y="-366"/>
      <point x="683" y="-200"/>
      <point x="712" y="-64" type="curve" smooth="yes"/>
      <point x="739" y="84" type="line"/>
    </contour>
    <contour>
      <point x="407" y="1163" type="line"/>
      <point x="230" y="1163" type="line"/>
      <point x="24" y="0" type="line"/>
      <point x="201" y="0" type="line"/>
    </contour>
    <contour>
      <point x="267" y="582" type="line"/>
      <point x="317" y="850"/>
      <point x="483" y="943"/>
      <point x="578" y="946" type="curve" smooth="yes"/>
      <point x="733" y="948"/>
      <point x="703" y="787"/>
      <point x="672" y="711" type="curve" smooth="yes"/>
      <point x="552" y="0" type="line"/>
      <point x="728" y="0" type="line"/>
      <point x="848" y="709" type="line" smooth="yes"/>
      <point x="883" y="919"/>
      <point x="835" y="1103"/>
      <point x="631" y="1102" type="curve" smooth="yes"/>
      <point x="407" y="1100"/>
      <point x="242" y="880"/>
      <point x="205" y="586" type="curve"/>
    </contour>
    <contour>
      <point x="404" y="1120" type="line"/>
      <point x="414" y="1260" type="line" smooth="yes"/>
      <point x="440" y="1328"/>
      <point x="497" y="1427"/>
      <point x="586" y="1427" type="curve" smooth="yes"/>
      <point x="591" y="1427"/>
      <point x="600" y="1427"/>
      <point x="621" y="1420" type="curve"/>
      <point x="627" y="1545" type="line"/>
      <point x="609" y="1553"/>
      <point x="568" y="1561"/>
      <point x="547" y="1561" type="curve" smooth="yes"/>
      <point x="392" y="1561"/>
      <point x="266" y="1396"/>
      <point x="237" y="1260" type="curve" smooth="yes"/>
      <point x="227" y="1120" type="line"/>
    </contour>
  </outline>
</glyph>
<glyph name="lbelt" format="2">
  <advance width="775"/>
  <unicode hex="026C"/>
  <anchor x="642" y="1599" name="top"/>
  <anchor x="367" y="0" name="bottom"/>
  <anchor x="927" y="1599" name="top0315"/>
  <outline>
    <contour>
      <point x="591" y="787" type="line" smooth="yes"/>
      <point x="617" y="909"/>
      <point x="586" y="1103"/>
      <point x="378" y="1101" type="curve" smooth="yes"/>
      <point x="244" y="1099"/>
      <point x="110" y="999"/>
      <point x="89" y="838" type="curve" smooth="yes"/>
      <point x="70" y="690"/>
      <point x="148" y="579"/>
      <point x="295" y="575" type="curve" smooth="yes"/>
      <point x="751" y="575" type="line"/>
      <point x="758" y="726" type="line"/>
      <point x="316" y="727" type="line" smooth="yes"/>
      <point x="270" y="731"/>
      <point x="247" y="780"/>
      <point x="266" y="838" type="curve" smooth="yes"/>
      <point x="285" y="903"/>
      <point x="340" y="948"/>
      <point x="376" y="949" type="curve" smooth="yes"/>
      <point x="425" y="951"/>
      <point x="439" y="880"/>
      <point x="417" y="828" type="curve" smooth="yes"/>
      <point x="370" y="446" type="line"/>
      <point x="546" y="446" type="line"/>
    </contour>
    <component base="l" xOffset="239"/>
  </outline>
</glyph>
<glyph name="mturn" format="2">
  <advance width="1486"/>
  <unicode hex="026F"/>
  <anchor x="868" y="1290" name="top"/>
  <anchor x="645" y="0" name="bottom"/>
  <anchor x="1586" y="1290" name="top0315"/>
  <outline>
    <contour>
      <point x="324" y="-20" type="curve" smooth="yes"/>
      <point x="542" y="-19"/>
      <point x="690" y="182"/>
      <point x="730" y="434" type="curve"/>
      <point x="616" y="398" type="line"/>
      <point x="568" y="189"/>
      <point x="437" y="137"/>
      <point x="376" y="136" type="curve" smooth="yes"/>
      <point x="220" y="134"/>
      <point x="237" y="280"/>
      <point x="267" y="369" type="curve" smooth="yes"/>
      <point x="388" y="1082" type="line"/>
      <point x="212" y="1082" type="line"/>
      <point x="91" y="371" type="line" smooth="yes"/>
      <point x="57" y="170"/>
      <point x="101" y="-21"/>
    </contour>
    <contour>
      <point x="838" y="-20" type="curve" smooth="yes"/>
      <point x="1088" y="-18"/>
      <point x="1228" y="203"/>
      <point x="1265" y="496" type="curve"/>
      <point x="1192" y="500" type="line"/>
      <point x="1144" y="232"/>
      <point x="1031" y="139"/>
      <point x="904" y="136" type="curve" smooth="yes"/>
      <point x="756" y="134"/>
      <point x="761" y="278"/>
      <point x="791" y="370" type="curve" smooth="yes"/>
      <point x="915" y="1082" type="line"/>
      <point x="739" y="1082" type="line"/>
      <point x="615" y="361" type="line" smooth="yes"/>
      <point x="581" y="150"/>
      <point x="653" y="-21"/>
    </contour>
    <contour>
      <point x="1119" y="214" type="line"/>
      <point x="1089" y="0" type="line"/>
      <point x="1256" y="0" type="line"/>
      <point x="1442" y="1082" type="line"/>
      <point x="1265" y="1082" type="line"/>
    </contour>
  </outline>
</glyph>
<glyph name="nlfthook" format="2">
  <advance width="1001"/>
  <unicode hex="0272"/>
  <anchor x="653" y="1290" name="top"/>
  <anchor x="353" y="-447" name="bottom"/>
  <anchor x="1100" y="1290" name="top0315"/>
  <outline>
    <contour>
      <point x="78" y="322" type="line"/>
      <point x="50" y="-135" type="line" smooth="yes"/>
      <point x="25" y="-204"/>
      <point x="-32" y="-302"/>
      <point x="-121" y="-302" type="curve" smooth="yes"/>
      <point x="-127" y="-302"/>
      <point x="-135" y="-303"/>
      <point x="-157" y="-295" type="curve"/>
      <point x="-163" y="-421" type="line"/>
      <point x="-143" y="-429"/>
      <point x="-104" y="-437"/>
      <point x="-82" y="-437" type="curve" smooth="yes"/>
      <point x="72" y="-437"/>
      <point x="199" y="-271"/>
      <point x="228" y="-135" type="curve" smooth="yes"/>
      <point x="255" y="322" type="line"/>
    </contour>
    <component base="n" xOffset="42"/>
  </outline>
</glyph>
<glyph name="Rsmallcap" format="2">
  <advance width="964"/>
  <unicode hex="0280"/>
  <anchor x="562" y="1290" name="top"/>
  <anchor x="339" y="0" name="bottom"/>
  <anchor x="1064" y="1290" name="top0315"/>
  <outline>
    <contour>
      <point x="403" y="518" type="line"/>
      <point x="582" y="0" type="line"/>
      <point x="769" y="0" type="line"/>
      <point x="590" y="517" type="line"/>
    </contour>
    <contour>
      <point x="184" y="1082" type="line"/>
      <point x="-2" y="0" type="line"/>
      <point x="174" y="0" type="line"/>
      <point x="351" y="932" type="line"/>
      <point x="557" y="932" type="line" smooth="yes"/>
      <point x="618" y="929"/>
      <point x="704" y="872"/>
      <point x="671" y="750" type="curve" smooth="yes"/>
      <point x="641" y="639"/>
      <point x="549" y="578"/>
      <point x="470" y="573" type="curve" smooth="yes"/>
      <point x="215" y="573" type="line"/>
      <point x="207" y="422" type="line"/>
      <point x="471" y="422" type="line" smooth="yes"/>
      <point x="664" y="425"/>
      <point x="819" y="556"/>
      <point x="848" y="752" type="curve" smooth="yes"/>
      <point x="881" y="962"/>
      <point x="731" y="1079"/>
      <point x="556" y="1082" type="curve" smooth="yes"/>
    </contour>
  </outline>
</glyph>
<glyph name="Rsmallcapinv" format="2">
  <advance width="964"/>
  <unicode hex="0281"/>
  <anchor x="612" y="1290" name="top"/>
  <anchor x="389" y="0" name="bottom"/>
  <anchor x="1064" y="1290" name="top0315"/>
  <outline>
    <contour>
      <point x="618" y="567" type="line"/>
      <point x="956" y="1080" type="line"/>
      <point x="764" y="1081" type="line"/>
      <point x="426" y="567" type="line"/>
    </contour>
    <contour>
      <point x="379" y="0" type="line" smooth="yes"/>
      <point x="561" y="3"/>
      <point x="738" y="119"/>
      <point x="771" y="330" type="curve" smooth="yes"/>
      <point x="800" y="522"/>
      <point x="682" y="657"/>
      <point x="492" y="660" type="curve" smooth="yes"/>
      <point x="237" y="660" type="line"/>
      <point x="229" y="509" type="line"/>
      <point x="492" y="509" type="line" smooth="yes"/>
      <point x="567" y="504"/>
      <point x="622" y="439"/>
      <point x="593" y="332" type="curve" smooth="yes"/>
      <point x="560" y="209"/>
      <point x="447" y="153"/>
      <point x="378" y="150" type="curve" smooth="yes"/>
      <point x="183" y="150" type="line"/>
      <point x="360" y="1082" type="line"/>
      <point x="184" y="1082" type="line"/>
      <point x="-4" y="0" type="line"/>
    </contour>
  </outline>
</glyph>
<glyph name="tturn" format="2">
  <advance width="586"/>
  <unicode hex="0287"/>
  <anchor x="383" y="1600" name="top"/>
  <anchor x="216" y="0" name="bottom"/>
  <anchor x="739" y="1600" name="top0315"/>
  <outline>
    <contour>
      <point x="23" y="263" type="line"/>
      <point x="513" y="263" type="line"/>
      <point x="520" y="405" type="line"/>
      <point x="30" y="405" type="line"/>
    </contour>
    <contour>
      <point x="303" y="0" type="line"/>
      <point x="495" y="1075" type="line" smooth="yes"/>
      <point x="517" y="1220"/>
      <point x="479" y="1363"/>
      <point x="331" y="1365" type="curve" smooth="yes"/>
      <point x="261" y="1365"/>
      <point x="242" y="1352"/>
      <point x="211" y="1345" type="curve"/>
      <point x="203" y="1194" type="line"/>
      <point x="213" y="1197"/>
      <point x="255" y="1206"/>
      <point x="274" y="1205" type="curve" smooth="yes"/>
      <point x="366" y="1204"/>
      <point x="336" y="1102"/>
      <point x="319" y="1076" type="curve" smooth="yes"/>
      <point x="126" y="0" type="line"/>
    </contour>
  </outline>
</glyph>
<glyph name="upsilonlatin" format="2">
  <advance width="1072"/>
  <unicode hex="028A"/>
  <anchor x="657" y="1290" name="top"/>
  <anchor x="434" y="0" name="bottom"/>
  <anchor x="1172" y="1290" name="top0315"/>
  <outline>
    <contour>
      <point x="433" y="131" type="curve" smooth="yes"/>
      <point x="355" y="131"/>
      <point x="199" y="215"/>
      <point x="241" y="431" type="curve" smooth="yes"/>
      <point x="284" y="557"/>
      <point x="409" y="705"/>
      <point x="440" y="868" type="curve" smooth="yes"/>
      <point x="455" y="933"/>
      <point x="456" y="1095"/>
      <point x="178" y="1101" type="curve"/>
      <point x="170" y="951" type="line"/>
      <point x="211" y="943"/>
      <point x="277" y="936"/>
      <point x="265" y="845" type="curve" smooth="yes"/>
      <point x="229" y="675"/>
      <point x="103" y="573"/>
      <point x="65" y="395" type="curve" smooth="yes"/>
      <point x="23" y="103"/>
      <point x="224" y="-21"/>
      <point x="434" y="-21" type="curve" smooth="yes"/>
      <point x="655" y="-21"/>
      <point x="884" y="102"/>
      <point x="925" y="395" type="curve" smooth="yes"/>
      <point x="958" y="550"/>
      <point x="884" y="702"/>
      <point x="925" y="845" type="curve" smooth="yes"/>
      <point x="941" y="934"/>
      <point x="1018" y="943"/>
      <point x="1062" y="951" type="curve"/>
      <point x="1069" y="1101" type="line"/>
      <point x="785" y="1094"/>
      <point x="766" y="938"/>
      <point x="748" y="868" type="curve" smooth="yes"/>
      <point x="715" y="724"/>
      <point x="787" y="548"/>
      <point x="748" y="431" type="curve" smooth="yes"/>
      <point x="707" y="215"/>
      <point x="522" y="131"/>
    </contour>
  </outline>
</glyph>
<glyph name="vscript" format="2">
  <advance width="938"/>
  <unicode hex="028B"/>
  <anchor x="587" y="1290" name="top"/>
  <anchor x="364" y="0" name="bottom"/>
  <anchor x="1037" y="1290" name="top0315"/>
  <outline>
    <contour>
      <point x="370" y="137" type="line"/>
      <point x="206" y="147"/>
      <point x="245" y="319"/>
      <point x="277" y="443" type="curve" smooth="yes"/>
      <point x="383" y="1082" type="line"/>
      <point x="207" y="1082" type="line"/>
      <point x="101" y="445" type="line" smooth="yes"/>
      <point x="65" y="241"/>
      <point x="96" y="-13"/>
      <point x="363" y="-20" type="curve"/>
    </contour>
    <contour>
      <point x="361" y="-20" type="line"/>
      <point x="631" y="-12"/>
      <point x="749" y="218"/>
      <point x="792" y="445" type="curve" smooth="yes"/>
      <point x="865" y="801" type="line" smooth="yes"/>
      <point x="881" y="904"/>
      <point x="914" y="1101"/>
      <point x="725" y="1101" type="curve" smooth="yes"/>
      <point x="653" y="1101"/>
      <point x="587" y="1077"/>
      <point x="531" y="1059" type="curve"/>
      <point x="545" y="911" type="line"/>
      <point x="584" y="920"/>
      <point x="618" y="933"/>
      <point x="650" y="932" type="curve" smooth="yes"/>
      <point x="711" y="930"/>
      <point x="700" y="862"/>
      <point x="689" y="806" type="curve" smooth="yes"/>
      <point x="613" y="443" type="line" smooth="yes"/>
      <point x="576" y="307"/>
      <point x="528" y="146"/>
      <point x="369" y="137" type="curve"/>
    </contour>
  </outline>
</glyph>
<glyph name="vturn" format="2">
  <advance width="848"/>
  <unicode hex="028C"/>
  <anchor x="540" y="1290" name="top"/>
  <anchor x="317" y="0" name="bottom"/>
  <anchor x="947" y="1290" name="top0315"/>
  <outline>
    <contour>
      <point x="520" y="915" type="line"/>
      <point x="556" y="1081" type="line"/>
      <point x="438" y="1081" type="line"/>
      <point x="-57" y="0" type="line"/>
      <point x="125" y="0" type="line"/>
    </contour>
    <contour>
      <point x="520" y="0" type="line"/>
      <point x="697" y="0" type="line"/>
      <point x="569" y="1082" type="line"/>
      <point x="456" y="1082" type="line"/>
      <point x="464" y="920" type="line"/>
    </contour>
  </outline>
</glyph>
<glyph name="wturn" format="2">
  <advance width="1282"/>
  <unicode hex="028D"/>
  <anchor x="758" y="1290" name="top"/>
  <anchor x="535" y="0" name="bottom"/>
  <anchor x="1382" y="1290" name="top0315"/>
  <outline>
    <contour>
      <point x="393" y="690" type="line"/>
      <point x="501" y="1081" type="line"/>
      <point x="384" y="1081" type="line"/>
      <point x="-56" y="0" type="line"/>
      <point x="119" y="0" type="line"/>
    </contour>
    <contour>
      <point x="468" y="0" type="line"/>
      <point x="583" y="0" type="line"/>
      <point x="546" y="413" type="line"/>
      <point x="525" y="1082" type="line"/>
      <point x="416" y="1083" type="line"/>
      <point x="428" y="695" type="line"/>
    </contour>
    <contour>
      <point x="915" y="690" type="line"/>
      <point x="1033" y="1081" type="line"/>
      <point x="922" y="1081" type="line"/>
      <point x="619" y="422" type="line"/>
      <point x="485" y="0" type="line"/>
      <point x="608" y="0" type="line"/>
    </contour>
    <contour>
      <point x="959" y="0" type="line"/>
      <point x="1132" y="0" type="line"/>
      <point x="1063" y="1082" type="line"/>
      <point x="948" y="1082" type="line"/>
      <point x="959" y="695" type="line"/>
    </contour>
  </outline>
</glyph>
<glyph name="yturn" format="2">
  <advance width="824"/>
  <unicode hex="028E"/>
  <anchor x="575" y="1600" name="top"/>
  <anchor x="299" y="0" name="bottom"/>
  <anchor x="976" y="1600" name="top0315"/>
  <outline>
    <contour>
      <point x="519" y="970" type="line"/>
      <point x="625" y="1180" type="line" smooth="yes"/>
      <point x="673" y="1294"/>
      <point x="748" y="1359"/>
      <point x="851" y="1357" type="curve" smooth="yes"/>
      <point x="868" y="1357"/>
      <point x="874" y="1354"/>
      <point x="884" y="1353" type="curve"/>
      <point x="891" y="1503" type="line"/>
      <point x="863" y="1508"/>
      <point x="831" y="1519"/>
      <point x="800" y="1519" type="curve" smooth="yes"/>
      <point x="669" y="1517"/>
      <point x="559" y="1395"/>
      <point x="489" y="1249" type="curve" smooth="yes"/>
      <point x="-70" y="0" type="line"/>
      <point x="120" y="0" type="line"/>
    </contour>
    <contour>
      <point x="491" y="0" type="line"/>
      <point x="682" y="0" type="line"/>
      <point x="557" y="1103" type="line"/>
      <point x="428" y="1036" type="line"/>
      <point x="464" y="840" type="line"/>
    </contour>
  </outline>
</glyph>
<glyph name="Ysmallcap" format="2">
  <advance width="912"/>
  <unicode hex="028F"/>
  <anchor x="577" y="1290" name="top"/>
  <anchor x="354" y="0" name="bottom"/>
  <anchor x="1011" y="1290" name="top0315"/>
  <outline>
    <contour>
      <point x="374" y="430" type="line"/>
      <point x="394" y="354" type="line"/>
      <point x="498" y="354" type="line"/>
      <point x="968" y="1080" type="line"/>
      <point x="769" y="1080" type="line"/>
    </contour>
    <contour>
      <point x="306" y="1082" type="line"/>
      <point x="110" y="1082" type="line"/>
      <point x="341" y="352" type="line"/>
      <point x="445" y="352" type="line"/>
      <point x="494" y="425" type="line"/>
    </contour>
    <contour>
      <point x="513" y="511" type="line"/>
      <point x="337" y="511" type="line"/>
      <point x="262" y="0" type="line"/>
      <point x="438" y="0" type="line"/>
    </contour>
  </outline>
</glyph>
<glyph name="zcurl" format="2">
  <advance width="1068"/>
  <unicode hex="0291"/>
  <anchor x="528" y="1290" name="top"/>
  <anchor x="228" y="-447" name="bottom"/>
  <anchor x="1167" y="1290" name="top0315"/>
  <outline>
    <contour>
      <point x="474" y="0" type="line"/>
      <point x="555" y="0" type="line" smooth="yes"/>
      <point x="735" y="5"/>
      <point x="940" y="124"/>
      <point x="961" y="328" type="curve" smooth="yes"/>
      <point x="980" y="442"/>
      <point x="936" y="563"/>
      <point x="780" y="564" type="curve" smooth="yes"/>
      <point x="540" y="566"/>
      <point x="378" y="234"/>
      <point x="229" y="21" type="curve" smooth="yes"/>
      <point x="134" y="-102" type="line"/>
      <point x="257" y="-202" type="line"/>
      <point x="412" y="12" type="line" smooth="yes"/>
      <point x="465" y="102"/>
      <point x="619" y="413"/>
      <point x="770" y="410" type="curve" smooth="yes"/>
      <point x="799" y="408"/>
      <point x="815" y="371"/>
      <point x="796" y="315" type="curve" smooth="yes"/>
      <point x="776" y="210"/>
      <point x="651" y="156"/>
      <point x="554" y="152" type="curve" smooth="yes"/>
      <point x="481" y="151" type="line"/>
    </contour>
    <contour>
      <point x="543" y="151" type="line"/>
      <point x="65" y="151" type="line"/>
      <point x="57" y="0" type="line"/>
      <point x="535" y="0" type="line"/>
    </contour>
    <contour>
      <point x="849" y="951" type="line"/>
      <point x="857" y="1081" type="line"/>
      <point x="743" y="1081" type="line"/>
      <point x="-5" y="137" type="line"/>
      <point x="-12" y="0" type="line"/>
      <point x="98" y="0" type="line"/>
    </contour>
    <contour>
      <point x="779" y="1082" type="line"/>
      <point x="177" y="1082" type="line"/>
      <point x="169" y="930" type="line"/>
      <point x="772" y="930" type="line"/>
    </contour>
  </outline>
</glyph>
<glyph name="uni0292" format="2">
  <advance width="975"/>
  <unicode hex="0292"/>
  <anchor x="588" y="1290" name="top"/>
  <anchor x="288" y="-447" name="bottom"/>
  <anchor x="1074" y="1290" name="top0315"/>
  <outline>
    <contour>
      <point x="294" y="-437" type="curve" smooth="yes"/>
      <point x="534" y="-437"/>
      <point x="727" y="-267"/>
      <point x="768" y="-10" type="curve" smooth="yes"/>
      <point x="813" y="231"/>
      <point x="694" y="413"/>
      <point x="480" y="428" type="curve" smooth="yes"/>
      <point x="467" y="429" type="line"/>
      <point x="901" y="964" type="line"/>
      <point x="911" y="1082" type="line"/>
      <point x="206" y="1082" type="line"/>
      <point x="199" y="931" type="line"/>
      <point x="692" y="930" type="line"/>
      <point x="292" y="436" type="line"/>
      <point x="284" y="285" type="line"/>
      <point x="411" y="285" type="line" smooth="yes"/>
      <point x="583" y="281"/>
      <point x="634" y="153"/>
      <point x="590" y="-14" type="curve" smooth="yes"/>
      <point x="549" y="-170"/>
      <point x="424" y="-286"/>
      <point x="293" y="-285" type="curve" smooth="yes"/>
      <point x="185" y="-285"/>
      <point x="130" y="-188"/>
      <point x="141" y="-47" type="curve"/>
      <point x="-34" y="-47" type="line"/>
      <point x="-33" y="-319"/>
      <point x="85" y="-437"/>
    </contour>
  </outline>
</glyph>
<glyph name="uni0293" format="2">
  <advance width="960"/>
  <unicode hex="0293"/>
  <anchor x="588" y="1290" name="top"/>
  <anchor x="288" y="-447" name="bottom"/>
  <anchor x="1059" y="1290" name="top0315"/>
  <outline>
    <contour>
      <point x="281" y="-437" type="curve" smooth="yes"/>
      <point x="371" y="-437"/>
      <point x="482" y="-412"/>
      <point x="587" y="-337" type="curve"/>
      <point x="638" y="-437" type="line"/>
      <point x="753" y="-318" type="line"/>
      <point x="691" y="-212" type="line"/>
      <point x="729" y="-148"/>
      <point x="754" y="-80"/>
      <point x="769" y="-9" type="curve" smooth="yes"/>
      <point x="813" y="239"/>
      <point x="687" y="413"/>
      <point x="479" y="428" type="curve" smooth="yes"/>
      <point x="468" y="429" type="line"/>
      <point x="901" y="964" type="line"/>
      <point x="910" y="1082" type="line"/>
      <point x="205" y="1082" type="line"/>
      <point x="198" y="931" type="line"/>
      <point x="691" y="930" type="line"/>
      <point x="291" y="436" type="line"/>
      <point x="283" y="285" type="line"/>
      <point x="410" y="285" type="line" smooth="yes"/>
      <point x="574" y="281"/>
      <point x="636" y="164"/>
      <point x="593" y="-13" type="curve" smooth="yes"/>
      <point x="579" y="-30"/>
      <point x="566" y="-48"/>
      <point x="555" y="-71" type="curve"/>
      <point x="520" y="4"/>
      <point x="410" y="138"/>
      <point x="247" y="136" type="curve" smooth="yes"/>
      <point x="93" y="135"/>
      <point x="-25" y="22"/>
      <point x="-49" y="-122" type="curve" smooth="yes"/>
      <point x="-81" y="-296"/>
      <point x="29" y="-437"/>
    </contour>
    <contour>
      <point x="280" y="-285" type="curve" smooth="yes"/>
      <point x="197" y="-285"/>
      <point x="96" y="-253"/>
      <point x="128" y="-134" type="curve" smooth="yes"/>
      <point x="153" y="-51"/>
      <point x="219" y="-17"/>
      <point x="253" y="-16" type="curve" smooth="yes"/>
      <point x="371" y="-14"/>
      <point x="467" y="-163"/>
      <point x="475" y="-214" type="curve"/>
      <point x="397" y="-270"/>
      <point x="323" y="-286"/>
    </contour>
  </outline>
</glyph>
<glyph name="qhook" format="2">
  <advance width="932"/>
  <unicode hex="02A0"/>
  <anchor x="659" y="1600" name="top"/>
  <anchor x="305" y="-447" name="bottom"/>
  <anchor x="1171" y="1600" name="top0315"/>
  <outline>
    <contour>
      <point x="79" y="489" type="line" smooth="yes"/>
      <point x="42" y="244"/>
      <point x="71" y="-20"/>
      <point x="342" y="-20" type="curve" smooth="yes"/>
      <point x="527" y="-20"/>
      <point x="715" y="133"/>
      <point x="758" y="453" type="curve"/>
      <point x="833" y="626" type="line"/>
      <point x="865" y="923"/>
      <point x="722" y="1102"/>
      <point x="528" y="1102" type="curve" smooth="yes"/>
      <point x="256" y="1102"/>
      <point x="127" y="862"/>
      <point x="82" y="590" type="curve" smooth="yes"/>
    </contour>
    <contour>
      <point x="260" y="590" type="line" smooth="yes"/>
      <point x="302" y="767"/>
      <point x="383" y="951"/>
      <point x="574" y="950" type="curve" smooth="yes"/>
      <point x="634" y="950"/>
      <point x="758" y="894"/>
      <point x="745" y="699" type="curve"/>
      <point x="677" y="378" type="line"/>
      <point x="623" y="232"/>
      <point x="488" y="131"/>
      <point x="387" y="132" type="curve" smooth="yes"/>
      <point x="192" y="133"/>
      <point x="223" y="336"/>
      <point x="257" y="489" type="curve" smooth="yes"/>
    </contour>
    <contour>
      <point x="673" y="-416" type="line"/>
      <point x="913" y="1067" type="line" smooth="yes"/>
      <point x="936" y="1139"/>
      <point x="997" y="1241"/>
      <point x="1085" y="1241" type="curve" smooth="yes"/>
      <point x="1091" y="1241"/>
      <point x="1099" y="1241"/>
      <point x="1121" y="1233" type="curve"/>
      <point x="1127" y="1359" type="line"/>
      <point x="1108" y="1367"/>
      <point x="1068" y="1375"/>
      <point x="1046" y="1375" type="curve" smooth="yes"/>
      <point x="892" y="1375"/>
      <point x="764" y="1199"/>
      <point x="735" y="1074" type="curve" smooth="yes"/>
      <point x="496" y="-416" type="line"/>
    </contour>
  </outline>
</glyph>
<glyph name="glottalstopbar" format="2">
  <advance width="916"/>
  <unicode hex="02A1"/>
  <anchor x="596" y="1633" name="top"/>
  <anchor x="314" y="0" name="bottom"/>
  <anchor x="1074" y="1633" name="top0315"/>
  <outline>
    <contour>
      <point x="615" y="303" type="line"/>
      <point x="89" y="303" type="line"/>
      <point x="81" y="152" type="line"/>
      <point x="607" y="152" type="line"/>
    </contour>
    <contour>
      <point x="304" y="546" type="line"/>
      <point x="296" y="395" type="line"/>
      <point x="403" y="395" type="line" smooth="yes"/>
      <point x="705" y="400"/>
      <point x="845" y="691"/>
      <point x="892" y="935" type="curve" smooth="yes"/>
      <point x="894" y="1017" type="line" smooth="yes"/>
      <point x="934" y="1242"/>
      <point x="888" y="1557"/>
      <point x="585" y="1557" type="curve" smooth="yes"/>
      <point x="386" y="1557"/>
      <point x="223" y="1376"/>
      <point x="174" y="1196" type="curve"/>
      <point x="342" y="1196" type="line"/>
      <point x="390" y="1289"/>
      <point x="461" y="1406"/>
      <point x="585" y="1405" type="curve" smooth="yes"/>
      <point x="780" y="1404"/>
      <point x="755" y="1158"/>
      <point x="718" y="1017" type="curve" smooth="yes"/>
      <point x="715" y="935" type="line" smooth="yes"/>
      <point x="670" y="775"/>
      <point x="596" y="552"/>
      <point x="407" y="546" type="curve" smooth="yes"/>
    </contour>
    <contour>
      <point x="489" y="546" type="line"/>
      <point x="305" y="546" type="line"/>
      <point x="217" y="0" type="line"/>
      <point x="401" y="0" type="line"/>
    </contour>
  </outline>
</glyph>
<glyph name="ts" format="2">
  <advance width="1222"/>
  <unicode hex="02A6"/>
  <anchor x="951" y="1600" name="top"/>
  <anchor x="674" y="0" name="bottom"/>
  <anchor x="1375" y="1600" name="top0315"/>
  <outline>
    <contour>
      <point x="314" y="1344" type="line"/>
      <point x="129" y="318" type="line" smooth="yes"/>
      <point x="107" y="164"/>
      <point x="140" y="4"/>
      <point x="290" y="0" type="curve" smooth="yes"/>
      <point x="408" y="0" type="line"/>
      <point x="415" y="159" type="line"/>
      <point x="346" y="159" type="line" smooth="yes"/>
      <point x="253" y="164"/>
      <point x="288" y="282"/>
      <point x="305" y="317" type="curve" smooth="yes"/>
      <point x="491" y="1344" type="line"/>
    </contour>
    <contour>
      <point x="891" y="287" type="curve" smooth="yes"/>
      <point x="858" y="153"/>
      <point x="723" y="162"/>
      <point x="680" y="159" type="curve" smooth="yes"/>
      <point x="351" y="159" type="line"/>
      <point x="344" y="0" type="line"/>
      <point x="681" y="0" type="line" smooth="yes"/>
      <point x="837" y="2"/>
      <point x="1037" y="81"/>
      <point x="1069" y="301" type="curve" smooth="yes"/>
      <point x="1102" y="498"/>
      <point x="942" y="580"/>
      <point x="785" y="628" type="curve" smooth="yes"/>
      <point x="780" y="641"/>
      <point x="625" y="658"/>
      <point x="660" y="791" type="curve" smooth="yes"/>
      <point x="692" y="922"/>
      <point x="820" y="950"/>
      <point x="859" y="950" type="curve" smooth="yes"/>
      <point x="911" y="950"/>
      <point x="997" y="889"/>
      <point x="974" y="765" type="curve"/>
      <point x="1150" y="765" type="line"/>
      <point x="1175" y="973"/>
      <point x="1028" y="1102"/>
      <point x="859" y="1102" type="curve" smooth="yes"/>
      <point x="708" y="1101"/>
      <point x="513" y="991"/>
      <point x="483" y="786" type="curve" smooth="yes"/>
      <point x="451" y="588"/>
      <point x="639" y="510"/>
      <point x="761" y="473" type="curve" smooth="yes"/>
      <point x="789" y="456"/>
      <point x="926" y="429"/>
    </contour>
    <contour>
      <point x="762" y="1081" type="line"/>
      <point x="104" y="1082" type="line"/>
      <point x="97" y="940" type="line"/>
      <point x="756" y="941" type="line"/>
    </contour>
  </outline>
</glyph>
<glyph name="uni02A9" format="2">
  <advance width="1436"/>
  <unicode hex="02A9"/>
  <anchor x="1164" y="1700" name="top"/>
  <anchor x="793" y="-447" name="bottom"/>
  <anchor x="1606" y="1700" name="top0315"/>
  <outline>
    <contour>
      <point x="864" y="1082" type="line"/>
      <point x="688" y="1082" type="line"/>
      <point x="502" y="0" type="line"/>
      <point x="678" y="0" type="line"/>
    </contour>
    <contour>
      <point x="746" y="582" type="line"/>
      <point x="794" y="850"/>
      <point x="961" y="943"/>
      <point x="1055" y="946" type="curve" smooth="yes"/>
      <point x="1227" y="948"/>
      <point x="1174" y="740"/>
      <point x="1144" y="680" type="curve" smooth="yes"/>
      <point x="1030" y="0" type="line"/>
      <point x="1206" y="0" type="line"/>
      <point x="1320" y="678" type="line" smooth="yes"/>
      <point x="1354" y="876"/>
      <point x="1329" y="1103"/>
      <point x="1109" y="1102" type="curve" smooth="yes"/>
      <point x="886" y="1100"/>
      <point x="720" y="880"/>
      <point x="683" y="586" type="curve"/>
    </contour>
    <contour>
      <point x="1041" y="84" type="line"/>
      <point x="1013" y="-64" type="line" smooth="yes"/>
      <point x="988" y="-133"/>
      <point x="930" y="-231"/>
      <point x="841" y="-231" type="curve" smooth="yes"/>
      <point x="835" y="-231"/>
      <point x="828" y="-232"/>
      <point x="805" y="-224" type="curve"/>
      <point x="799" y="-350" type="line"/>
      <point x="819" y="-358"/>
      <point x="859" y="-366"/>
      <point x="880" y="-366" type="curve" smooth="yes"/>
      <point x="1036" y="-366"/>
      <point x="1161" y="-200"/>
      <point x="1190" y="-64" type="curve" smooth="yes"/>
      <point x="1217" y="84" type="line"/>
    </contour>
    <contour>
      <point x="276" y="0" type="line"/>
      <point x="490" y="1196" type="line" smooth="yes"/>
      <point x="518" y="1299"/>
      <point x="576" y="1397"/>
      <point x="684" y="1399" type="curve" smooth="yes"/>
      <point x="694" y="1400"/>
      <point x="736" y="1396"/>
      <point x="757" y="1391" type="curve"/>
      <point x="772" y="1540" type="line"/>
      <point x="738" y="1549"/>
      <point x="705" y="1557"/>
      <point x="667" y="1557" type="curve" smooth="yes"/>
      <point x="461" y="1555"/>
      <point x="343" y="1396"/>
      <point x="312" y="1197" type="curve" smooth="yes"/>
      <point x="99" y="0" type="line"/>
    </contour>
    <contour>
      <point x="702" y="1082" type="line"/>
      <point x="150" y="1082" type="line"/>
      <point x="142" y="940" type="line"/>
      <point x="695" y="940" type="line"/>
    </contour>
  </outline>
</glyph>
<glyph name="finalkaf" format="2">
  <advance width="1159"/>
  <unicode hex="02AA"/>
  <anchor x="886" y="1600" name="top"/>
  <anchor x="610" y="0" name="bottom"/>
  <anchor x="1312" y="1600" name="top0315"/>
  <outline>
    <contour>
      <point x="829" y="287" type="curve" smooth="yes"/>
      <point x="797" y="157"/>
      <point x="674" y="133"/>
      <point x="613" y="132" type="curve" smooth="yes"/>
      <point x="548" y="130"/>
      <point x="347" y="165"/>
      <point x="183" y="359" type="curve"/>
      <point x="104" y="214" type="line"/>
      <point x="334" y="-26"/>
      <point x="539" y="-21"/>
      <point x="614" y="-20" type="curve" smooth="yes"/>
      <point x="786" y="-19"/>
      <point x="974" y="88"/>
      <point x="1006" y="301" type="curve" smooth="yes"/>
      <point x="1039" y="505"/>
      <point x="860" y="585"/>
      <point x="726" y="626" type="curve" smooth="yes"/>
      <point x="736" y="634"/>
      <point x="561" y="654"/>
      <point x="597" y="791" type="curve" smooth="yes"/>
      <point x="629" y="922"/>
      <point x="756" y="950"/>
      <point x="796" y="950" type="curve" smooth="yes"/>
      <point x="848" y="950"/>
      <point x="933" y="889"/>
      <point x="911" y="765" type="curve"/>
      <point x="1087" y="765" type="line"/>
      <point x="1111" y="973"/>
      <point x="965" y="1102"/>
      <point x="795" y="1102" type="curve" smooth="yes"/>
      <point x="644" y="1101"/>
      <point x="450" y="991"/>
      <point x="420" y="786" type="curve" smooth="yes"/>
      <point x="388" y="588"/>
      <point x="572" y="515"/>
      <point x="694" y="473" type="curve" smooth="yes"/>
      <point x="710" y="456"/>
      <point x="863" y="445"/>
    </contour>
    <component base="l"/>
  </outline>
</glyph>
<glyph name="finalnun" format="2">
  <advance width="1077"/>
  <unicode hex="02AF"/>
  <anchor x="675" y="1290" name="top"/>
  <anchor x="374" y="-447" name="bottom"/>
  <anchor x="1176" y="1290" name="top0315"/>
  <outline>
    <contour>
      <point x="619" y="-18" type="line"/>
      <point x="796" y="-18" type="line"/>
      <point x="990" y="1082" type="line"/>
      <point x="813" y="1082" type="line"/>
    </contour>
    <contour>
      <point x="719" y="499" type="line"/>
      <point x="669" y="230"/>
      <point x="548" y="140"/>
      <point x="417" y="137" type="curve" smooth="yes"/>
      <point x="286" y="135"/>
      <point x="317" y="322"/>
      <point x="348" y="439" type="curve" smooth="yes"/>
      <point x="401" y="686" type="line"/>
      <point x="224" y="686" type="line"/>
      <point x="171" y="441" type="line" smooth="yes"/>
      <point x="137" y="215"/>
      <point x="169" y="-21"/>
      <point x="389" y="-20" type="curve" smooth="yes"/>
      <point x="643" y="-18"/>
      <point x="752" y="202"/>
      <point x="789" y="495" type="curve"/>
    </contour>
    <contour>
      <point x="395" y="592" type="line"/>
      <point x="405" y="800" type="line" smooth="yes"/>
      <point x="430" y="924"/>
      <point x="366" y="1102"/>
      <point x="206" y="1102" type="curve" smooth="yes"/>
      <point x="184" y="1102"/>
      <point x="145" y="1095"/>
      <point x="127" y="1090" type="curve"/>
      <point x="119" y="962" type="line"/>
      <point x="144" y="968"/>
      <point x="156" y="968"/>
      <point x="165" y="968" type="curve" smooth="yes"/>
      <point x="259" y="968"/>
      <point x="249" y="855"/>
      <point x="229" y="800" type="curve" smooth="yes"/>
      <point x="218" y="592" type="line"/>
    </contour>
    <contour>
      <point x="621" y="73" type="line"/>
      <point x="611" y="-135" type="line" smooth="yes"/>
      <point x="586" y="-259"/>
      <point x="650" y="-437"/>
      <point x="809" y="-437" type="curve" smooth="yes"/>
      <point x="832" y="-437"/>
      <point x="870" y="-430"/>
      <point x="888" y="-425" type="curve"/>
      <point x="896" y="-297" type="line"/>
      <point x="872" y="-303"/>
      <point x="859" y="-303"/>
      <point x="850" y="-303" type="curve" smooth="yes"/>
      <point x="757" y="-303"/>
      <point x="767" y="-190"/>
      <point x="788" y="-135" type="curve" smooth="yes"/>
      <point x="798" y="73" type="line"/>
    </contour>
  </outline>
</glyph>
<glyph name="hhooksuper" format="2">
  <advance width="719"/>
  <unicode hex="02B1"/>
  <outline>
    <contour>
      <point x="444" y="1567" type="line"/>
      <point x="456" y="1611"/>
      <point x="477" y="1632"/>
      <point x="501" y="1635" type="curve" smooth="yes"/>
      <point x="527" y="1637"/>
      <point x="551" y="1626"/>
      <point x="555" y="1626" type="curve"/>
      <point x="563" y="1785" type="line"/>
      <point x="519" y="1795"/>
      <point x="484" y="1806"/>
      <point x="433" y="1804" type="curve" smooth="yes"/>
      <point x="324" y="1801"/>
      <point x="296" y="1704"/>
      <point x="282" y="1579" type="curve" smooth="yes"/>
      <point x="109" y="651" type="line"/>
      <point x="270" y="651" type="line"/>
    </contour>
    <contour>
      <point x="322" y="1079" type="line"/>
      <point x="360" y="1194"/>
      <point x="406" y="1321"/>
      <point x="508" y="1322" type="curve" smooth="yes"/>
      <point x="586" y="1323"/>
      <point x="581" y="1228"/>
      <point x="557" y="1127" type="curve" smooth="yes"/>
      <point x="469" y="651" type="line"/>
      <point x="631" y="651" type="line"/>
      <point x="718" y="1159" type="line" smooth="yes"/>
      <point x="745" y="1335"/>
      <point x="701" y="1467"/>
      <point x="562" y="1466" type="curve" smooth="yes"/>
      <point x="400" y="1464"/>
      <point x="319" y="1268"/>
      <point x="282" y="1078" type="curve"/>
    </contour>
  </outline>
</glyph>
<glyph name="jsuper" format="2">
  <advance width="405"/>
  <unicode hex="02B2"/>
  <outline>
    <contour>
      <point x="289" y="1452" type="line"/>
      <point x="139" y="622" type="line" smooth="yes"/>
      <point x="119" y="554"/>
      <point x="102" y="480"/>
      <point x="39" y="481" type="curve" smooth="yes"/>
      <point x="36" y="482"/>
      <point x="26" y="482"/>
      <point x="7" y="487" type="curve"/>
      <point x="1" y="342" type="line"/>
      <point x="18" y="336"/>
      <point x="53" y="329"/>
      <point x="73" y="329" type="curve" smooth="yes"/>
      <point x="238" y="328"/>
      <point x="278" y="499"/>
      <point x="303" y="622" type="curve" smooth="yes"/>
      <point x="451" y="1452" type="line"/>
    </contour>
    <contour>
      <point x="319" y="1666" type="curve" smooth="yes"/>
      <point x="315" y="1616"/>
      <point x="343" y="1570"/>
      <point x="402" y="1570" type="curve" smooth="yes"/>
      <point x="458" y="1569"/>
      <point x="497" y="1614"/>
      <point x="500" y="1663" type="curve" smooth="yes"/>
      <point x="504" y="1714"/>
      <point x="475" y="1762"/>
      <point x="417" y="1762" type="curve" smooth="yes"/>
      <point x="360" y="1763"/>
      <point x="322" y="1715"/>
    </contour>
  </outline>
</glyph>
<glyph name="rturnsuper" format="2">
  <advance width="491"/>
  <unicode hex="02B4"/>
  <outline>
    <contour>
      <point x="61" y="644" type="line"/>
      <point x="78" y="641"/>
      <point x="103" y="636"/>
      <point x="120" y="637" type="curve" smooth="yes"/>
      <point x="268" y="639"/>
      <point x="332" y="847"/>
      <point x="367" y="1025" type="curve"/>
      <point x="326" y="1024" type="line"/>
      <point x="292" y="932"/>
      <point x="269" y="802"/>
      <point x="151" y="799" type="curve" smooth="yes"/>
      <point x="130" y="798"/>
      <point x="102" y="807"/>
      <point x="68" y="822" type="curve"/>
    </contour>
    <contour>
      <point x="271" y="822" type="line"/>
      <point x="281" y="651" type="line"/>
      <point x="402" y="651" type="line"/>
      <point x="540" y="1451" type="line"/>
      <point x="379" y="1451" type="line"/>
    </contour>
  </outline>
</glyph>
<glyph name="finaltsadi" format="2">
  <advance width="540"/>
  <unicode hex="02B5"/>
  <outline>
    <contour>
      <point x="61" y="644" type="line"/>
      <point x="78" y="641"/>
      <point x="103" y="636"/>
      <point x="120" y="637" type="curve" smooth="yes"/>
      <point x="268" y="639"/>
      <point x="332" y="847"/>
      <point x="367" y="1025" type="curve"/>
      <point x="326" y="1024" type="line"/>
      <point x="292" y="932"/>
      <point x="269" y="802"/>
      <point x="151" y="799" type="curve" smooth="yes"/>
      <point x="130" y="798"/>
      <point x="102" y="807"/>
      <point x="68" y="822" type="curve"/>
    </contour>
    <contour>
      <point x="455" y="351" type="curve"/>
      <point x="462" y="510" type="line"/>
      <point x="456" y="511"/>
      <point x="428" y="499"/>
      <point x="400" y="502" type="curve" smooth="yes"/>
      <point x="377" y="507"/>
      <point x="373" y="528"/>
      <point x="379" y="569" type="curve" smooth="yes"/>
      <point x="540" y="1451" type="line"/>
      <point x="379" y="1451" type="line"/>
      <point x="219" y="558" type="line" smooth="yes"/>
      <point x="210" y="436"/>
      <point x="216" y="334"/>
      <point x="327" y="331" type="curve" smooth="yes"/>
      <point x="377" y="331"/>
      <point x="412" y="341"/>
    </contour>
  </outline>
</glyph>
<glyph name="wsuper" format="2">
  <advance width="973"/>
  <unicode hex="02B7"/>
  <outline>
    <contour>
      <point x="569" y="1450" type="line"/>
      <point x="362" y="972" type="line"/>
      <point x="281" y="652" type="line"/>
      <point x="380" y="652" type="line"/>
      <point x="603" y="1138" type="line"/>
      <point x="680" y="1450" type="line"/>
    </contour>
    <contour>
      <point x="199" y="1452" type="line"/>
      <point x="232" y="651" type="line"/>
      <point x="344" y="650" type="line"/>
      <point x="352" y="963" type="line"/>
      <point x="372" y="1452" type="line"/>
    </contour>
    <contour>
      <point x="894" y="1450" type="line"/>
      <point x="720" y="972" type="line"/>
      <point x="647" y="652" type="line"/>
      <point x="761" y="652" type="line"/>
      <point x="1069" y="1450" type="line"/>
    </contour>
    <contour>
      <point x="587" y="1452" type="line"/>
      <point x="597" y="1146" type="line"/>
      <point x="612" y="650" type="line"/>
      <point x="711" y="650" type="line"/>
      <point x="709" y="963" type="line"/>
      <point x="697" y="1452" type="line"/>
    </contour>
  </outline>
</glyph>
<glyph name="ysuper" format="2">
  <advance width="715"/>
  <unicode hex="02B8"/>
  <outline>
    <contour>
      <point x="334" y="738" type="line"/>
      <point x="263" y="583" type="line" smooth="yes"/>
      <point x="247" y="545"/>
      <point x="202" y="472"/>
      <point x="142" y="472" type="curve" smooth="yes"/>
      <point x="111" y="472"/>
      <point x="106" y="474"/>
      <point x="98" y="474" type="curve"/>
      <point x="91" y="340" type="line"/>
      <point x="115" y="335"/>
      <point x="133" y="328"/>
      <point x="166" y="328" type="curve" smooth="yes"/>
      <point x="256" y="329"/>
      <point x="344" y="406"/>
      <point x="398" y="527" type="curve" smooth="yes"/>
      <point x="811" y="1450" type="line"/>
      <point x="638" y="1450" type="line"/>
    </contour>
    <contour>
      <point x="388" y="1452" type="line"/>
      <point x="209" y="1452" type="line"/>
      <point x="301" y="635" type="line"/>
      <point x="432" y="684" type="line"/>
      <point x="410" y="887" type="line"/>
    </contour>
  </outline>
</glyph>
<glyph name="uni02BB" format="2">
  <advance width="423"/>
  <unicode hex="02BB"/>
  <outline>
    <contour>
      <point x="176" y="998" type="line"/>
      <point x="352" y="998" type="line"/>
      <point x="381" y="1183" type="line" smooth="yes"/>
      <point x="400" y="1292"/>
      <point x="444" y="1397"/>
      <point x="502" y="1486" type="curve"/>
      <point x="406" y="1560" type="line"/>
      <point x="287" y="1455"/>
      <point x="224" y="1295"/>
      <point x="204" y="1180" type="curve" smooth="yes"/>
    </contour>
  </outline>
</glyph>
<glyph name="uni02BE" format="2">
  <advance width="271"/>
  <unicode hex="02BE"/>
  <anchor x="188" y="1160" name="_top"/>
  <anchor x="65" y="1160" name="_rhalfring"/>
  <outline>
    <contour>
      <point x="153" y="1118" type="line"/>
      <point x="253" y="1127"/>
      <point x="339" y="1191"/>
      <point x="352" y="1309" type="curve" smooth="yes"/>
      <point x="364" y="1422"/>
      <point x="296" y="1496"/>
      <point x="199" y="1505" type="curve"/>
      <point x="190" y="1415" type="line"/>
      <point x="238" y="1406"/>
      <point x="271" y="1371"/>
      <point x="262" y="1310" type="curve" smooth="yes"/>
      <point x="253" y="1250"/>
      <point x="211" y="1215"/>
      <point x="162" y="1207" type="curve"/>
    </contour>
  </outline>
</glyph>
<glyph name="uni02BF" format="2">
  <advance width="271"/>
  <unicode hex="02BF"/>
  <outline>
    <contour>
      <point x="325" y="1117" type="line"/>
      <point x="229" y="1127"/>
      <point x="162" y="1195"/>
      <point x="177" y="1309" type="curve" smooth="yes"/>
      <point x="192" y="1423"/>
      <point x="277" y="1496"/>
      <point x="376" y="1506" type="curve"/>
      <point x="364" y="1414" type="line"/>
      <point x="314" y="1406"/>
      <point x="272" y="1372"/>
      <point x="264" y="1311" type="curve" smooth="yes"/>
      <point x="257" y="1252"/>
      <point x="290" y="1215"/>
      <point x="336" y="1207" type="curve"/>
    </contour>
  </outline>
</glyph>
<glyph name="uni02C1" format="2">
  <advance width="664"/>
  <unicode hex="02C1"/>
  <outline>
    <contour>
      <point x="792" y="1515" type="line"/>
      <point x="805" y="1655"/>
      <point x="746" y="1805"/>
      <point x="572" y="1805" type="curve" smooth="yes"/>
      <point x="350" y="1804"/>
      <point x="241" y="1584"/>
      <point x="205" y="1406" type="curve" smooth="yes"/>
      <point x="190" y="1313" type="line" smooth="yes"/>
      <point x="159" y="1092"/>
      <point x="209" y="886"/>
      <point x="423" y="883" type="curve" smooth="yes"/>
      <point x="449" y="883" type="line"/>
      <point x="456" y="1025" type="line"/>
      <point x="426" y="1025" type="line" smooth="yes"/>
      <point x="280" y="1031"/>
      <point x="323" y="1208"/>
      <point x="352" y="1313" type="curve" smooth="yes"/>
      <point x="368" y="1406" type="line" smooth="yes"/>
      <point x="401" y="1514"/>
      <point x="441" y="1659"/>
      <point x="573" y="1660" type="curve" smooth="yes"/>
      <point x="680" y="1660"/>
      <point x="657" y="1572"/>
      <point x="651" y="1515" type="curve"/>
    </contour>
    <contour>
      <point x="325" y="1024" type="line"/>
      <point x="275" y="651" type="line"/>
      <point x="436" y="651" type="line"/>
      <point x="487" y="1024" type="line"/>
    </contour>
  </outline>
</glyph>
<glyph name="uni02C2" format="2">
  <advance width="704"/>
  <unicode hex="02C2"/>
  <outline>
    <contour>
      <point x="341" y="941" type="line"/>
      <point x="123" y="1011" type="line"/>
      <point x="115" y="899" type="line"/>
      <point x="649" y="596" type="line"/>
      <point x="657" y="761" type="line"/>
    </contour>
    <contour>
      <point x="764" y="1164" type="line"/>
      <point x="773" y="1328" type="line"/>
      <point x="125" y="1028" type="line"/>
      <point x="117" y="914" type="line"/>
      <point x="365" y="982" type="line"/>
    </contour>
  </outline>
</glyph>
<glyph name="breve" format="2">
  <advance width="849"/>
  <unicode hex="02D8"/>
  <anchor x="523" y="1290" name="_top"/>
  <anchor x="558" y="1606" name="mkmktop_acc"/>
  <outline>
    <contour>
      <point x="696" y="1495" type="line"/>
      <point x="667" y="1395"/>
      <point x="594" y="1347"/>
      <point x="521" y="1347" type="curve" smooth="yes"/>
      <point x="452" y="1347"/>
      <point x="397" y="1395"/>
      <point x="412" y="1495" type="curve"/>
      <point x="263" y="1495" type="line"/>
      <point x="248" y="1331"/>
      <point x="358" y="1228"/>
      <point x="521" y="1228" type="curve" smooth="yes"/>
      <point x="688" y="1228"/>
      <point x="817" y="1331"/>
      <point x="846" y="1494" type="curve"/>
    </contour>
  </outline>
</glyph>
